<svg width="199" height="24" viewBox="0 0 199 24" fill="none" xmlns="http://www.w3.org/2000/svg">
<path d="M77.3898 23.14C83.7798 23.14 88.9598 17.9599 88.9598 11.57C88.9598 5.18007 83.7798 0 77.3898 0C70.9999 0 65.8198 5.18007 65.8198 11.57C65.8198 17.9599 70.9999 23.14 77.3898 23.14Z" fill="white"/>
<path d="M2.32 11.7697C2.27414 11.5994 2.27414 11.42 2.32 11.2497C2.35372 11.1583 2.40854 11.0761 2.48 11.0097C2.54711 10.9275 2.63279 10.8624 2.73 10.8197C3.5696 10.4165 4.26701 9.76793 4.73 8.95975C5.27588 7.89129 6.11776 7.00254 7.15511 6.39964C8.19246 5.79674 9.38142 5.50516 10.58 5.55974V6.40974C10.5951 6.61107 10.5345 6.81079 10.41 6.96974C10.287 7.12423 10.1135 7.23045 9.92 7.26975C9.17054 7.41104 8.46241 7.71894 7.84795 8.17071C7.23348 8.62247 6.72839 9.20654 6.37 9.87975C6.18389 10.2787 5.91723 10.6348 5.5868 10.9256C5.25637 11.2165 4.86932 11.4358 4.45 11.5697L10.67 18.0097C9.77789 18.0541 8.88358 18.0106 8 17.8797C7.44145 17.6156 6.95447 17.2212 6.58 16.7297L2.54 12.1997C2.42642 12.0848 2.3498 11.9386 2.32 11.7797V11.7697ZM21.17 13.0097C21.17 16.4431 19.7633 18.1564 16.95 18.1497C15.26 18.1497 14.13 17.6997 13.56 16.7897V21.7897C12.9511 21.8577 12.3346 21.7824 11.76 21.5697C11.58 21.4297 11.52 20.9497 11.52 20.0797V8.00974C11.9822 7.95104 12.4516 8.01662 12.88 8.19975C13.01 8.32975 13.08 8.73975 13.07 9.44975C13.68 8.44975 14.95 7.88975 16.9 7.87975C19.74 7.84641 21.1633 9.55641 21.17 13.0097ZM19.06 13.0097C19.1204 12.1499 18.9477 11.2896 18.56 10.5197C18.2975 10.1874 17.9558 9.92628 17.5662 9.7603C17.1766 9.59432 16.7515 9.5288 16.33 9.56974C14.93 9.56974 14.12 9.71974 13.87 10.0097C13.62 10.2997 13.52 11.2997 13.52 13.0097C13.4649 13.8413 13.6305 14.6727 14 15.4197C14.26 15.768 14.6057 16.0432 15.0034 16.2184C15.4012 16.3936 15.8375 16.463 16.27 16.4197C17.67 16.4197 18.48 16.2797 18.71 16.0097C19.0408 15.0465 19.1602 14.0233 19.06 13.0097ZM31.49 12.1597C31.49 12.9797 31.4 13.4697 31.22 13.6197C30.619 13.8233 29.9805 13.8915 29.35 13.8197H24.13C24.11 14.1607 24.1646 14.502 24.29 14.8197C24.4083 15.1373 24.5963 15.4243 24.84 15.6597C25.4149 16.1478 26.1577 16.3918 26.91 16.3397H29.1C29.5879 16.2785 30.0831 16.3547 30.53 16.5597C30.729 17.0155 30.8049 17.5155 30.75 18.0097H27C23.6667 18.0097 22 16.3164 22 12.9297C22 9.54308 23.6667 7.84308 27 7.82974C27.6161 7.79371 28.233 7.88623 28.8114 8.10142C29.3899 8.31662 29.9172 8.64978 30.36 9.07974C30.7311 9.49091 31.0197 9.9696 31.21 10.4897C31.4027 11.0147 31.4976 11.5706 31.49 12.1297V12.1597ZM29.35 12.1597C29.35 10.3497 28.54 9.46974 26.83 9.46974C26.0251 9.36677 25.2075 9.49149 24.47 9.82974C24.2233 10.0697 24.1033 10.8497 24.11 12.1697L29.35 12.1597ZM42.24 17.9697V18.5397C42.24 19.3997 42.16 19.8997 42 20.0297C41.4199 20.2341 40.8022 20.3092 40.19 20.2497V18.0097H33.72V20.2497C33.1111 20.312 32.496 20.2368 31.92 20.0297C31.74 19.8797 31.67 19.3997 31.67 18.5397V18.0097C31.67 17.1497 31.75 16.6697 31.89 16.5497C32.1368 16.3922 32.4279 16.3186 32.72 16.3397C34.02 15.0997 34.39 11.5897 34.4 9.58974V9.38974C34.3446 8.9604 34.4213 8.52437 34.62 8.13974C35.0695 7.94374 35.5623 7.86793 36.05 7.91974H39.52C40.33 7.91974 40.8 7.98974 40.94 8.13974C41.08 8.28974 41.15 8.68974 41.16 9.42974V16.3097C41.468 16.2875 41.7753 16.3608 42.04 16.5197C42.19 16.6497 42.26 17.1197 42.24 17.9397V17.9697ZM39.1 15.6597V9.56974H36.22C36.2064 10.5433 36.133 11.5152 36 12.4797C35.8607 13.801 35.499 15.0892 34.93 16.2897H38.45C38.96 16.2897 39.07 16.0097 39.1 15.8197V15.6697V15.6597ZM2.15 18.0097C1.51476 18.0794 0.872003 18.0041 0.27 17.7897C0.09 17.6497 0 17.1331 0 16.2397V5.53975C0.633063 5.47895 1.2719 5.54351 1.88 5.72974C2.06 5.85974 2.15 6.32975 2.15 7.11975V18.0097ZM43.25 17.9397V7.93975C43.8797 7.88429 44.5143 7.94876 45.12 8.12975C45.3 8.25975 45.39 8.67974 45.39 9.42974V15.3097L49.14 9.20975C49.3905 8.77552 49.7315 8.40034 50.14 8.10975C50.6304 7.96958 51.1407 7.91212 51.65 7.93975H52.77V16.2597C52.77 17.1197 52.68 17.6297 52.5 17.7697C51.8982 17.9852 51.2552 18.0604 50.62 17.9897V10.4897L46.87 16.4897C46.6097 16.9512 46.2714 17.364 45.87 17.7097C45.4095 17.8613 44.9232 17.9191 44.44 17.8797L43.25 17.9397ZM63.05 7.93975C63.1146 8.47004 63.0387 9.00798 62.83 9.49974C62.3625 9.70681 61.8474 9.78285 61.34 9.71974H59.46V18.0097C58.8412 18.0728 58.2162 17.9977 57.63 17.7897C57.45 17.6397 57.37 17.1397 57.37 16.2697V9.70975H53.78C53.7196 9.18122 53.7882 8.64593 53.98 8.14974C54.4033 7.94891 54.875 7.87261 55.34 7.92974L63.05 7.93975Z" fill="#005BAA"/>
<path d="M110.29 15.0096C110.29 14.1496 109.71 13.6696 108.29 13.6696H104.21V16.3996H108.21C108.821 16.4522 109.437 16.3981 110.03 16.2396C110.21 16.1296 110.29 15.7996 110.29 15.0096ZM108.21 9.45959H104.21V12.0096H108.29C108.821 12.0595 109.357 12.0086 109.87 11.8596C109.98 11.7896 110.04 11.5096 110.04 10.7496C110.04 9.98959 109.51 9.43959 108.21 9.43959V9.45959ZM104 18.0096C103.513 18.0632 103.019 18.0016 102.56 17.8296C102.41 17.7096 102.36 17.2996 102.36 16.5896V9.27959C102.36 8.56959 102.43 8.12959 102.56 8.01959C103.019 7.8465 103.513 7.78481 104 7.83959H108.19C110.697 7.83959 111.953 8.71959 111.96 10.4796C111.96 11.5896 111.57 12.2696 110.79 12.5296L110.64 12.5796L110.79 12.6296C111.233 12.8052 111.605 13.1214 111.85 13.5296C112.133 13.9708 112.279 14.4857 112.27 15.0096C112.27 17.0096 110.937 18.0096 108.27 18.0096H104ZM123.1 12.9196C123.1 16.3529 121.697 18.0663 118.89 18.0596C117.19 18.0596 116.07 17.6096 115.5 16.6996V21.6996C114.888 21.7666 114.268 21.6913 113.69 21.4796C113.51 21.3396 113.45 20.8596 113.45 19.9996V7.85959C114.23 7.85959 114.68 7.91959 114.81 8.04959C114.94 8.17959 115.01 8.57959 115.01 9.28959C115.61 8.28959 116.89 7.72959 118.84 7.72959C121.64 7.72959 123.06 9.49959 123.06 12.8796L123.1 12.9196ZM121.01 12.9196C121.066 12.0578 120.886 11.1971 120.49 10.4296C120.231 10.0982 119.893 9.83736 119.507 9.67131C119.121 9.50526 118.699 9.43932 118.28 9.47959C116.88 9.47959 116.05 9.62959 115.81 9.91959C115.57 10.2096 115.46 11.2196 115.46 12.9196C115.397 13.7624 115.567 14.6064 115.95 15.3596C116.207 15.7086 116.551 15.9844 116.947 16.1598C117.344 16.3351 117.779 16.404 118.21 16.3596C119.61 16.3596 120.42 16.2296 120.65 15.9496C121 14.9665 121.12 13.9162 121 12.8796L121.01 12.9196ZM134.15 12.9196C134.15 16.3396 132.483 18.0463 129.15 18.0396C125.817 18.0329 124.173 16.3263 124.22 12.9196C124.22 9.52626 125.887 7.82959 129.22 7.82959C132.553 7.82959 134.183 9.50293 134.11 12.8496L134.15 12.9196ZM132.02 12.9196C132.073 12.0908 131.885 11.2645 131.48 10.5396C131.218 10.1882 130.869 9.91113 130.468 9.73576C130.066 9.56039 129.626 9.49278 129.19 9.53959C127.76 9.53959 126.94 9.67959 126.7 9.96959C126.368 10.9153 126.252 11.9232 126.36 12.9196C126.36 15.1996 127.293 16.3396 129.16 16.3396C130.593 16.3396 131.423 16.1996 131.65 15.9196C131.998 14.936 132.118 13.8862 132 12.8496L132.02 12.9196ZM144.25 17.6996C143.648 17.914 143.005 17.9892 142.37 17.9196V9.92959H137.37V17.8496C136.735 17.9192 136.092 17.844 135.49 17.6296C135.32 17.4896 135.23 16.9796 135.23 16.1196V9.72959C135.167 9.15677 135.242 8.5771 135.45 8.03959C135.58 7.86959 136.09 7.76959 136.95 7.76959H142.78C143.64 7.76959 144.14 7.85959 144.29 8.03959C144.492 8.57849 144.568 9.15683 144.51 9.72959V16.1196C144.49 17.0096 144.4 17.4796 144.21 17.6296L144.25 17.6996ZM154.95 17.9196C154.16 17.9196 153.71 17.8596 153.58 17.7196C153.45 17.5796 153.39 17.1596 153.39 16.4096C153.036 16.8783 152.553 17.2329 152 17.4296C151.204 17.7845 150.341 17.962 149.47 17.9496C148.499 17.9978 147.537 17.7502 146.71 17.2396C146.341 16.9837 146.042 16.64 145.84 16.2396C145.642 15.8395 145.549 15.3955 145.57 14.9496C145.546 14.5053 145.621 14.0612 145.79 13.6496C145.964 13.245 146.219 12.8807 146.54 12.5796C147.445 11.8866 148.573 11.5487 149.71 11.6296H152.86C152.891 11.335 152.847 11.0373 152.731 10.7644C152.616 10.4916 152.433 10.2525 152.2 10.0696C151.573 9.70955 150.851 9.5491 150.13 9.60959H148.13C147.673 9.66754 147.21 9.59833 146.79 9.40959C146.65 9.27959 146.59 8.76959 146.59 7.91959H150.1C151.97 7.91959 153.27 8.30959 154.01 9.06959C154.366 9.50147 154.633 9.99942 154.796 10.5348C154.959 11.0703 155.015 11.6326 154.96 12.1896L154.95 17.9196ZM152.95 13.6296V13.3096H150C149.325 13.2423 148.644 13.3173 148 13.5296C147.8 13.6796 147.7 14.1396 147.7 14.9496C147.7 15.7596 148.45 16.3796 149.95 16.3796C150.81 16.4889 151.684 16.3646 152.48 16.0196C152.835 15.2516 152.967 14.399 152.86 13.5596L152.95 13.6296ZM101 18.0096H94.41C93.7781 18.0794 93.1385 18.0042 92.54 17.7896C92.36 17.6396 92.27 17.1196 92.27 16.2196V7.21959C92.27 6.31959 92.36 5.78959 92.54 5.64959C93.1385 5.43499 93.7781 5.35975 94.41 5.42959H99.24C100.12 5.42959 100.64 5.49959 100.78 5.64959C100.92 5.79959 101 6.31959 101 7.21959H94.41V10.6996H98.65C99.1673 10.6325 99.693 10.7085 100.17 10.9196C100.32 11.0696 100.39 11.5696 100.39 12.4396H94.39V16.1896H99.07C99.6363 16.1225 100.21 16.1982 100.74 16.4096C100.972 16.909 101.062 17.4625 101 18.0096Z" fill="#005BAA"/>
<path d="M191 17.9196C190.365 17.9836 189.723 17.9085 189.12 17.6996C188.94 17.5463 188.85 17.0263 188.85 16.1396V7.74964C189.484 7.68966 190.123 7.75767 190.73 7.94964C190.91 8.07964 191 8.53964 191 9.33964V17.9196ZM198 17.9196C197.218 17.9479 196.435 17.9111 195.66 17.8096C195.211 17.6041 194.822 17.2875 194.53 16.8896L191.38 13.2796C191.256 13.1302 191.186 12.9437 191.18 12.7496C191.18 12.7496 191.18 12.2096 191.54 12.0396C192.261 11.6462 192.873 11.0791 193.32 10.3896C193.776 9.56094 194.458 8.87863 195.286 8.42194C196.115 7.96526 197.056 7.75294 198 7.80964V8.58964C198 8.58964 198.06 9.41964 197.5 9.49964C196.94 9.57964 195.92 9.76964 194.66 11.4996C194.346 11.9818 193.93 12.3883 193.44 12.6896L198 17.9196ZM176.68 17.9196C175.9 17.9196 175.44 17.8596 175.32 17.7296C175.133 17.3165 175.064 16.8597 175.12 16.4096C174.793 16.8998 174.326 17.2798 173.78 17.4996C172.981 17.856 172.114 18.0335 171.24 18.0196C170.269 18.0633 169.308 17.8048 168.49 17.2796C168.118 17.0271 167.819 16.6825 167.62 16.2796C167.418 15.877 167.322 15.4297 167.34 14.9796C167.321 14.5379 167.399 14.0974 167.57 13.6896C167.738 13.2822 167.994 12.9169 168.32 12.6196C169.224 11.925 170.352 11.5869 171.49 11.6696H174.63C174.678 11.3621 174.646 11.0471 174.535 10.756C174.425 10.4649 174.24 10.2076 174 10.0096C173.373 9.6479 172.651 9.48407 171.93 9.53964H169.93C169.16 9.53964 168.72 9.47964 168.59 9.34964C168.398 8.878 168.329 8.36523 168.39 7.85964H171.9C173.77 7.85964 175.08 8.24964 175.81 9.00964C176.166 9.44152 176.433 9.93947 176.596 10.4749C176.759 11.0103 176.815 11.5727 176.76 12.1296L176.68 17.9196ZM174.63 13.6296V13.3096H171.79C171.115 13.2467 170.435 13.3215 169.79 13.5296C169.59 13.6796 169.5 14.1396 169.5 14.9496C169.5 15.7596 170.25 16.3796 171.74 16.3796C172.603 16.4883 173.48 16.364 174.28 16.0196C174.616 15.246 174.736 14.3962 174.63 13.5596V13.6296ZM165.85 12.1396C165.921 12.226 165.988 12.3162 166.05 12.4096L166.15 12.5696C166.074 12.3897 165.973 12.2214 165.85 12.0696V12.1396ZM166.56 14.2396C166.56 16.6796 164.893 17.8996 161.56 17.8996H158.63C158.028 17.962 157.419 17.8868 156.85 17.6796C156.68 17.5296 156.61 17.0196 156.61 16.1396V7.13964C156.61 6.25964 156.69 5.73964 156.85 5.59964C157.418 5.3872 158.027 5.31182 158.63 5.37964H165.81C165.778 5.80929 165.722 6.2367 165.64 6.65964C165.55 6.95964 165.43 7.12964 164.81 7.12964H158.81V10.6096H162.07C162.777 10.5553 163.487 10.6621 164.147 10.9219C164.807 11.1817 165.4 11.5878 165.88 12.1096C165.994 12.2443 166.091 12.392 166.17 12.5496C166.447 13.0432 166.582 13.604 166.56 14.1696V14.2396ZM164.39 14.2396C164.39 12.9996 163.51 12.3896 161.74 12.3896H158.81V16.1096H161.68C162.479 16.1887 163.285 16.1036 164.05 15.8596C164.27 15.6996 164.4 15.1496 164.39 14.1896V14.2396ZM187.39 17.8896C186.748 17.9592 186.099 17.884 185.49 17.6696C185.31 17.5296 185.23 17.0096 185.23 16.1096V13.3196H180.23V17.8496C179.598 17.9209 178.958 17.8456 178.36 17.6296C178.18 17.4896 178.08 16.9696 178.08 16.0696V7.77964C178.729 7.70919 179.386 7.78785 180 8.00964C180.17 8.14964 180.26 8.65964 180.26 9.51964V11.6096H185.26V7.77964C185.902 7.71009 186.551 7.78526 187.16 7.99964C187.33 8.13964 187.42 8.64964 187.42 9.50964V17.8396L187.39 17.8896Z" fill="#ED1C24"/>
<path d="M77.3901 0.820317C75.2611 0.818339 73.1794 1.44797 71.4084 2.62954C69.6374 3.8111 68.2567 5.49148 67.4411 7.45802C66.6254 9.42456 66.4115 11.5889 66.8264 13.677C67.2412 15.7652 68.2662 17.6834 69.7717 19.1888C71.2771 20.6942 73.1952 21.7192 75.2834 22.1341C77.3716 22.5489 79.5359 22.335 81.5024 21.5193C83.469 20.7037 85.1493 19.323 86.3309 17.552C87.5125 15.781 88.1421 13.6993 88.1401 11.5703C88.1401 10.1586 87.8621 8.76072 87.3218 7.45647C86.7816 6.15222 85.9897 4.96715 84.9915 3.96892C83.9933 2.97069 82.8082 2.17885 81.504 1.63861C80.1997 1.09837 78.8018 0.820317 77.3901 0.820317ZM77.3901 16.8803L72.0901 11.5703L77.3901 6.27032L82.6901 11.5703L77.3901 16.8803Z" fill="#ED1C24"/>
</svg>
