<svg width="102" height="50" viewBox="0 0 102 50" fill="none" xmlns="http://www.w3.org/2000/svg">
<path d="M0 0.5H49V49.5H0V0.5Z" fill="#15008F"/>
<path d="M52.1399 0.5H101.14V49.5H52.1399V0.5Z" fill="#DD002E"/>
<path d="M14.9201 16.3299C15.5128 17.4598 16.4055 18.4044 17.5001 19.0599C17.7342 19.207 17.9069 19.4341 17.986 19.699C18.0651 19.9639 18.0452 20.2485 17.9301 20.4999C17.6501 21.2099 17.1001 22.2399 17.3701 22.6699C17.7334 22.9311 18.1612 23.0878 18.6072 23.123C19.0532 23.1583 19.5003 23.0707 19.9001 22.8699C20.0668 23.2334 20.2538 23.5873 20.4601 23.9299C20.3672 24.0345 20.2426 24.1059 20.1054 24.1329C19.9681 24.16 19.8258 24.1414 19.7001 24.0799C19.8277 24.1915 19.9067 24.3485 19.9203 24.5175C19.9338 24.6864 19.8808 24.854 19.7725 24.9844C19.6642 25.1149 19.5093 25.1979 19.3407 25.2157C19.1721 25.2335 19.0033 25.1848 18.8701 25.0799C18.7766 25.0078 18.7073 24.9088 18.6716 24.7962C18.6358 24.6836 18.6353 24.5628 18.6701 24.4499C18.488 24.7334 18.2225 24.9535 17.9101 25.0799C17.7432 24.9545 17.6197 24.7801 17.557 24.5811C17.4942 24.382 17.4953 24.1683 17.5601 23.9699C17.4216 24.2143 17.2286 24.4234 16.9963 24.5812C16.7639 24.739 16.4983 24.8412 16.2201 24.8799C16.0496 24.6266 15.9715 24.3224 15.9988 24.0183C16.0261 23.7142 16.1572 23.4288 16.3701 23.2099C16.1622 23.3652 15.9181 23.465 15.661 23.5C15.4038 23.535 15.142 23.504 14.9001 23.4099C14.9001 23.4099 14.7501 22.9299 15.6101 22.2199C15.3273 22.2098 15.0515 22.1285 14.8085 21.9834C14.5655 21.8383 14.3631 21.6341 14.2201 21.3899C14.4225 21.2212 14.6575 21.096 14.9104 21.022C15.1633 20.948 15.4287 20.9269 15.6901 20.9599C15.3888 20.8655 15.1189 20.6909 14.9093 20.4549C14.6997 20.2188 14.5582 19.9302 14.5001 19.6199C14.7857 19.4911 15.1028 19.449 15.4121 19.4987C15.7214 19.5485 16.0093 19.688 16.2401 19.8999C16.0575 19.6403 15.8461 19.4021 15.6101 19.1899C15.268 18.8032 15.0269 18.3378 14.9083 17.8353C14.7896 17.3328 14.7971 16.8088 14.9301 16.3099L14.9201 16.3299ZM18.8501 27.7899C18.696 27.6294 18.5768 27.4387 18.5001 27.2299C18.6501 28.6199 18.7001 29.5299 19.5001 30.4399C19.7953 29.8146 19.8488 29.1022 19.6501 28.4399C19.5118 28.363 19.3681 28.2961 19.2201 28.2399C19.3223 28.6279 19.3495 29.0318 19.3001 29.4299C19.0742 28.9153 18.9292 28.3688 18.8701 27.8099L18.8501 27.7899ZM17.6101 27.6599C17.456 27.4994 17.3368 27.3087 17.2601 27.0999C17.1801 27.9299 16.9801 30.0299 17.6901 30.6699C17.6901 30.6699 18.1701 30.3199 18.3201 27.2299C18.1701 27.3799 18.1201 27.5799 17.9701 27.7099C18.0418 28.2745 17.9731 28.8482 17.7701 29.3799C17.7701 29.3799 17.4201 29.1999 17.6201 27.6599H17.6101ZM15.9301 29.2799C16.5601 28.5699 16.6901 26.4199 16.6901 26.4199L16.9701 26.2199L17.0501 26.1399V26.3399C17.049 27.4602 16.8597 28.5723 16.4901 29.6299C16.2051 30.0469 15.8245 30.3898 15.3801 30.6299C14.6701 29.4399 15.5301 27.8199 16.2101 26.6299L16.4901 26.4799C16.2101 27.4799 15.7301 28.4799 15.9301 29.2899V29.2799ZM14.2601 25.5699C14.2496 25.6701 14.2783 25.7704 14.3401 25.8499V25.9299C13.6702 26.6265 13.0613 27.3792 12.5201 28.1799C12.2639 28.5212 11.9377 28.8039 11.5635 29.0091C11.1893 29.2143 10.7756 29.3373 10.3501 29.3699C10.4403 28.4296 10.8293 27.543 11.4601 26.8399C12.1478 26.0875 12.9195 25.4164 13.7601 24.8399C13.9819 24.9427 14.231 24.9707 14.4701 24.9199H14.5501C14.4568 25.0128 14.403 25.1382 14.4001 25.2699C13.3336 25.7593 12.4209 26.5303 11.7601 27.4999C11.6301 27.5999 12.5901 27.3199 14.2101 25.5799L14.2601 25.5699ZM13.1501 24.4699L13.2301 24.3899L13.3101 24.3099C12.7501 24.5099 10.7801 25.3099 10.1501 25.5699C9.65959 25.8424 9.22949 26.2115 8.88579 26.655C8.54199 27.0984 8.29169 27.607 8.15009 28.1499C8.57729 28.1865 9.00759 28.1382 9.41599 28.0077C9.82449 27.8773 10.2031 27.6673 10.5301 27.3899C11.6401 26.4799 12.9101 25.2199 13.3901 24.8099L13.2401 24.6599C12.3189 25.4098 11.3118 26.0476 10.2401 26.5599C10.4744 26.1248 10.8194 25.7592 11.2401 25.4999C11.8435 25.0527 12.5203 24.7143 13.2401 24.4999L13.1501 24.4699ZM12.0001 23.4999L12.0801 23.3499C11.4501 23.4999 9.83009 23.6999 9.08009 23.9099C8.48129 24.0697 7.92229 24.3522 7.43859 24.7395C6.95479 25.1269 6.55689 25.6106 6.27009 26.1599C6.27009 26.1599 7.38009 26.5099 9.56009 25.5299C10.5883 24.989 11.6625 24.5406 12.7701 24.1899C12.5195 24.1899 12.2738 24.1207 12.0601 23.9899C11.0715 24.4715 9.99769 24.7535 8.90009 24.8199C9.24019 24.5746 9.60969 24.373 10.0001 24.2199C10.6291 23.8859 11.3026 23.6435 12.0001 23.4999ZM12.0001 22.4999C12.2001 22.5852 12.4131 22.6359 12.6301 22.6499C12.4693 22.7433 12.3242 22.8614 12.2001 22.9999C10.8238 23.3455 9.41719 23.5565 8.00009 23.6299C6.92759 23.7812 5.83549 23.7132 4.79009 23.4299C5.64249 22.9432 6.56259 22.5859 7.52009 22.3699C8.28009 22.2199 10.3801 22.2199 11.3601 22.0899C11.4473 22.1648 11.541 22.2317 11.6401 22.2899C10.5203 22.2967 9.40909 22.4858 8.35009 22.8499C9.57789 22.9899 10.8213 22.8707 12.0001 22.4999ZM11.8701 21.2399C12.0084 21.163 12.1521 21.0961 12.3001 21.0399C10.7648 20.5091 9.16899 20.1732 7.55009 20.0399C6.40299 19.9006 5.24069 19.9513 4.11009 20.1899C5.07859 20.8262 6.14659 21.296 7.27009 21.5799C8.61579 21.7938 9.98229 21.8442 11.3401 21.7299C11.4176 21.6014 11.5117 21.4837 11.6201 21.3799C10.3203 21.3724 9.02789 21.1839 7.78009 20.8199C9.15959 20.7126 10.5473 20.848 11.8801 21.2199L11.8701 21.2399ZM11.8801 19.9799C12.0208 20.4059 12.3173 20.7631 12.7101 20.9799C11.1701 20.3499 8.23009 19.9199 6.62009 19.3099C4.45009 18.3999 4.09009 17.3099 4.09009 17.3099C5.63729 17.3219 7.17299 17.5784 8.64009 18.0699C10.0301 18.4999 12.0801 19.2599 12.8401 19.6099C12.5404 19.6106 12.249 19.7089 12.0101 19.8899C11.2501 19.5399 10.3901 19.3299 9.63009 19.0599C9.06959 18.8687 8.48229 18.7674 7.89009 18.7599C8.41629 19.0754 8.97649 19.3304 9.56009 19.5199C10.3401 19.7199 11.1001 19.8699 11.8901 20.0299L11.8801 19.9799ZM11.8101 18.4099C11.8901 18.5599 12.0101 18.7599 12.0901 18.8899C9.84529 18.4132 7.81439 17.2242 6.30009 15.4999C5.79919 14.6542 5.60169 13.663 5.74009 12.6899C6.84499 13.191 7.84059 13.9045 8.67009 14.7899C9.51009 15.6814 10.4233 16.5009 11.4001 17.2399L11.6801 18.0699C10.9201 17.4399 9.94009 16.7299 9.38009 16.2499C8.82279 15.8179 8.21079 15.4615 7.56009 15.1899C7.89719 15.6161 8.26839 16.0141 8.67009 16.3799C9.18799 16.808 9.74749 17.1832 10.3401 17.4999C10.7845 17.8739 11.288 18.1713 11.8301 18.3799" fill="white"/>
<path d="M18.56 24.9999L18.76 24.7999C19.04 25.1499 19.24 25.5099 19.47 25.8599C19.6118 26.2725 19.7287 26.6933 19.82 27.1199C19.8949 27.5381 20.0403 27.9405 20.25 28.3099C20.0623 28.3134 19.8761 28.2769 19.7036 28.2028C19.5312 28.1286 19.3765 28.0186 19.25 27.8799C18.9166 27.4525 18.6996 26.9461 18.62 26.4099C18.4833 25.9492 18.4559 25.463 18.54 24.9899L18.56 24.9999ZM17.54 25.0699L17.74 25.2699L17.82 25.3499H17.9L18.1 25.2699C18.1915 25.4429 18.2428 25.6343 18.25 25.8299C18.3255 26.1792 18.3255 26.5406 18.25 26.8899C18.1555 27.1996 17.9913 27.4835 17.77 27.7199C17.5669 27.4965 17.4045 27.2393 17.29 26.9599C17.138 26.5778 17.138 26.152 17.29 25.7699C17.39 25.4699 17.47 25.2599 17.54 25.0599V25.0699ZM16.28 25.1099C16.6056 25.0624 16.9165 24.9429 17.19 24.7599C17.2399 24.8432 17.2727 24.9357 17.2864 25.0318C17.3002 25.128 17.2946 25.2259 17.27 25.3199C17.1749 25.6088 17.0101 25.8699 16.79 26.0799C16.5891 26.2535 16.3557 26.3853 16.1033 26.4677C15.8509 26.5501 15.5846 26.5815 15.32 26.5599C15.22 26.6099 15.09 26.1799 16.32 25.1199L16.28 25.1099ZM15.84 24.3599C15.8691 24.5929 15.9666 24.8121 16.12 24.9899C15.9473 25.2708 15.6992 25.4975 15.404 25.6443C15.1087 25.791 14.7782 25.8519 14.45 25.8199C14.372 25.6218 14.3732 25.4013 14.4532 25.204C14.5333 25.0067 14.6861 24.8477 14.88 24.7599C15.21 24.6299 15.49 24.4799 15.88 24.3599" fill="white"/>
<path d="M16 23.6598C15.6507 23.7353 15.2893 23.7353 14.94 23.6598H14.79V23.4998C14.23 23.9298 13.68 23.9798 13.45 24.4098C13.5615 24.566 13.7136 24.6887 13.8899 24.7645C14.0662 24.8403 14.2599 24.8664 14.45 24.8398C14.7499 24.8147 15.0415 24.7281 15.3065 24.5853C15.5714 24.4424 15.8041 24.2466 15.99 24.0098C15.9602 23.9563 15.9446 23.896 15.9446 23.8348C15.9446 23.7736 15.9602 23.7133 15.99 23.6598H16ZM14.8 23.0298C14.8703 22.8179 14.9903 22.6259 15.15 22.4698C14.6898 22.3941 14.2202 22.3941 13.76 22.4698C13.3978 22.467 13.0443 22.5813 12.7524 22.7958C12.4605 23.0102 12.2456 23.3133 12.14 23.6598C12.4738 23.8581 12.868 23.9292 13.25 23.8598C13.5504 23.8365 13.8426 23.7506 14.1078 23.6077C14.373 23.4647 14.6054 23.2679 14.79 23.0298H14.8ZM14.51 22.0298C14.3544 21.8529 14.2108 21.6658 14.08 21.4698L14 21.3598C13.4805 21.1071 12.8863 21.0537 12.33 21.2098C11.9865 21.3131 11.6918 21.5367 11.5 21.8398C11.8922 22.1367 12.3532 22.3294 12.84 22.3998C13.4178 22.4757 14.0045 22.3598 14.51 22.0698V22.0298ZM14.66 20.9298C14.74 20.8498 14.86 20.8498 15.01 20.8498C14.7193 20.562 14.5239 20.1921 14.45 19.7898C14.0805 19.8764 13.6933 19.8485 13.34 19.7098C13.144 19.6382 12.9338 19.6145 12.7268 19.6406C12.5198 19.6667 12.3221 19.7418 12.15 19.8598C12.2228 20.096 12.361 20.3069 12.5486 20.4679C12.7361 20.6289 12.9655 20.7336 13.21 20.7698C13.4216 20.9055 13.6621 20.9897 13.9122 21.0158C14.1622 21.0418 14.4149 21.009 14.65 20.9198L14.66 20.9298ZM14.34 19.4998L14.49 19.4198C14.663 19.3283 14.8544 19.277 15.05 19.2698C14.5909 18.8755 14.0991 18.5208 13.58 18.2098C12.9868 17.8658 12.3468 17.6098 11.68 17.4498C11.8681 18.023 12.1786 18.5485 12.59 18.9898C12.7978 19.2365 13.0736 19.4164 13.3831 19.5071C13.6926 19.5978 14.022 19.5953 14.33 19.4998H14.34ZM15.24 19.0198C15.0087 18.6849 14.8456 18.3077 14.76 17.9098C14.61 17.4298 14.48 16.8498 14.28 16.3698C13.9313 15.7323 13.3515 15.2528 12.66 15.0298C12.5057 15.7004 12.576 16.4031 12.86 17.0298C13.4778 17.8811 14.295 18.5678 15.24 19.0298V19.0198ZM20.7 24.0298C20.8246 24.1492 20.9704 24.2442 21.13 24.3098C21.2232 24.5237 21.2646 24.7565 21.2507 24.9894C21.2368 25.2223 21.168 25.4486 21.05 25.6498C20.7103 26.2537 20.4322 26.8902 20.22 27.5498C20.22 27.5498 20.02 27.5498 19.79 26.3598C19.7199 25.9181 19.5257 25.5054 19.23 25.1698C19.3599 25.2522 19.507 25.3035 19.66 25.3198H19.81L19.89 25.1698C20.014 24.955 20.0665 24.7064 20.04 24.4598V24.2598C20.1605 24.2848 20.2856 24.2766 20.4018 24.2361C20.518 24.1956 20.6211 24.1243 20.7 24.0298Z" fill="white"/>
<path d="M12.39 15.5V16.13C11.83 15.42 11.13 14.51 10.39 13.68C10.0452 13.2204 9.62611 12.8216 9.15001 12.5C9.43291 13.3809 9.9394 14.1733 10.62 14.8C11.164 15.3526 11.7454 15.8672 12.36 16.34L12.44 16.54C12.52 16.74 12.59 16.97 12.64 17.1C12.7911 17.3777 12.9795 17.6334 13.2 17.86C13 17.78 12.77 17.66 12.57 17.58H12.39C10.636 16.5855 9.1845 15.134 8.19 13.38C7.6966 12.1613 7.62961 10.8116 8.00001 9.55C8.90811 10.3736 9.72911 11.2884 10.45 12.28C11.1876 13.2959 11.8366 14.3731 12.39 15.5ZM37.09 21.24C36.9517 21.1631 36.808 21.0962 36.66 21.04C38.1953 20.5092 39.7911 20.1733 41.41 20.04C42.5571 19.9007 43.7194 19.9514 44.85 20.19C43.8815 20.8263 42.8135 21.2961 41.69 21.58C40.3443 21.7939 38.9778 21.8443 37.62 21.73C37.5425 21.6015 37.4484 21.4838 37.34 21.38C38.6398 21.3725 39.9322 21.184 41.18 20.82C39.8005 20.7127 38.4128 20.8481 37.08 21.22L37.09 21.24ZM37.08 19.98C36.9393 20.406 36.6428 20.7632 36.25 20.98C37.79 20.35 40.73 19.92 42.34 19.31C44.51 18.4 44.87 17.31 44.87 17.31C43.3228 17.322 41.7871 17.5785 40.32 18.07C38.93 18.5 36.88 19.26 36.12 19.61C36.4197 19.6107 36.7111 19.709 36.95 19.89C37.71 19.54 38.57 19.33 39.33 19.06C39.8945 18.8876 40.4799 18.7934 41.07 18.78C40.5438 19.0955 39.9836 19.3505 39.4 19.54C38.62 19.72 37.86 19.87 37.07 20.02L37.08 19.98ZM37.22 18.4C37.14 18.55 37.02 18.75 36.94 18.88C39.2016 18.4161 41.2511 17.2299 42.78 15.5C43.2809 14.6543 43.4784 13.6631 43.34 12.69C42.2351 13.1911 41.2395 13.9046 40.41 14.79C39.5761 15.6877 38.6623 16.5077 37.68 17.24L37.4 18.07C38.16 17.44 39.14 16.73 39.7 16.25C40.2573 15.818 40.8693 15.4616 41.52 15.19C41.1829 15.6162 40.8117 16.0141 40.41 16.38C39.8889 16.8086 39.3261 17.1838 38.73 17.5C38.2622 17.8396 37.7633 18.1342 37.24 18.38L37.22 18.4ZM36.61 15.5V16.13C37.17 15.42 37.87 14.51 38.61 13.68C38.9548 13.2204 39.3739 12.8216 39.85 12.5C39.5671 13.3809 39.0606 14.1733 38.38 14.8C37.836 15.3526 37.2546 15.8672 36.64 16.34L36.56 16.54C36.48 16.74 36.41 16.97 36.36 17.1C36.2089 17.3777 36.0205 17.6334 35.8 17.86C36 17.78 36.23 17.66 36.43 17.58L36.63 17.5C38.384 16.5055 39.8355 15.054 40.83 13.3C41.3099 12.088 41.3698 10.75 41 9.5C40.0919 10.3236 39.2709 11.2384 38.55 12.23C37.7954 13.2531 37.1264 14.3368 36.55 15.47L36.61 15.5ZM14.55 26.11C13.84 26.82 12.3 28.49 12.45 30.23C13.2607 29.9742 13.9639 29.4574 14.45 28.76C14.8005 28.0669 15.1981 27.3987 15.64 26.76H15.01C14.6035 27.5873 14.0073 28.3069 13.27 28.86C13.27 28.86 13.12 28.03 15.01 26.21C15.01 26.13 15.09 26.06 15.16 26.01C14.9561 26.0722 14.743 26.0993 14.53 26.09L14.55 26.11ZM34.05 16.31C33.4573 17.4399 32.5646 18.3845 31.47 19.04C31.2498 19.204 31.0961 19.442 31.0373 19.7102C30.9786 19.9785 31.0186 20.2589 31.15 20.5C31.43 21.21 31.98 22.24 31.71 22.67C31.44 23.1 30.09 23.3 29.06 22.87C28.8933 23.2335 28.7063 23.5874 28.5 23.93C28.5929 24.0346 28.7175 24.106 28.8547 24.133C28.992 24.1601 29.1343 24.1415 29.26 24.08C29.1979 24.2523 29.1729 24.4359 29.1867 24.6186C29.2005 24.8012 29.2527 24.9789 29.34 25.14C29.5475 25.0994 29.744 25.0151 29.9164 24.8927C30.0889 24.7702 30.2332 24.6125 30.34 24.43C30.5221 24.7135 30.7876 24.9336 31.1 25.06C31.2669 24.9346 31.3904 24.7602 31.4531 24.5612C31.5159 24.3621 31.5148 24.1484 31.45 23.95C31.5885 24.1943 31.7815 24.4035 32.0138 24.5613C32.2462 24.7191 32.5118 24.8213 32.79 24.86C32.9605 24.6067 33.0386 24.3025 33.0113 23.9984C32.984 23.6943 32.8529 23.4089 32.64 23.19C32.8479 23.3453 33.092 23.4451 33.3491 23.4801C33.6063 23.5151 33.8681 23.4841 34.11 23.39C34.11 23.39 34.26 22.91 33.4 22.2C33.6828 22.1899 33.9586 22.1086 34.2016 21.9635C34.4446 21.8184 34.647 21.6142 34.79 21.37C34.5876 21.2013 34.3526 21.0761 34.0997 21.0021C33.8468 20.9281 33.5814 20.907 33.32 20.94C33.6185 20.8546 33.8843 20.6809 34.0824 20.4418C34.2805 20.2027 34.4016 19.9092 34.43 19.6C34.1444 19.4712 33.8273 19.4291 33.518 19.4788C33.2087 19.5286 32.9208 19.6681 32.69 19.88C32.8726 19.6204 33.084 19.3822 33.32 19.17C33.6943 18.8012 33.9693 18.3439 34.1197 17.8404C34.27 17.3369 34.2908 16.8036 34.18 16.29L34.05 16.31ZM30.18 27.77C30.3233 27.6014 30.4413 27.4127 30.53 27.21C30.38 28.6 30.33 29.51 29.53 30.42C29.2348 29.7947 29.1813 29.0823 29.38 28.42C29.5183 28.3431 29.662 28.2762 29.81 28.22C29.7078 28.608 29.6806 29.0119 29.73 29.41C29.9559 28.8953 30.1009 28.3489 30.16 27.79L30.18 27.77ZM31.42 27.64C31.5741 27.4795 31.6933 27.2888 31.77 27.08C31.85 27.91 32.05 30.01 31.34 30.65C31.34 30.65 30.86 30.3 30.71 27.21C30.86 27.36 30.91 27.56 31.06 27.69C30.9883 28.2546 31.057 28.8283 31.26 29.36C31.26 29.36 31.61 29.18 31.41 27.64H31.42ZM33.08 29.26C32.45 28.55 32.32 26.4 32.32 26.4C32.2425 26.3136 32.1469 26.2453 32.04 26.2L32 26.14V26.34C32.0011 27.4603 32.1904 28.5724 32.56 29.63C32.8255 30.0636 33.2111 30.411 33.67 30.63C34.38 29.44 33.52 27.82 32.84 26.63C32.7331 26.6111 32.635 26.5585 32.56 26.48C32.84 27.48 33.34 28.48 33.12 29.29L33.08 29.26ZM34.81 25.57C34.8205 25.6702 34.7918 25.7705 34.73 25.85V25.93C35.3999 26.6266 36.0088 27.3793 36.55 28.18C36.8062 28.5213 37.1324 28.804 37.5066 29.0092C37.8808 29.2144 38.2945 29.3374 38.72 29.37C38.6298 28.4297 38.2408 27.5431 37.61 26.84C36.9223 26.0876 36.1506 25.4165 35.31 24.84C35.0882 24.9428 34.8391 24.9708 34.6 24.92H34.52C34.6133 25.0129 34.6671 25.1383 34.67 25.27C35.7108 25.7699 36.5984 26.54 37.24 27.5C37.37 27.6 36.38 27.32 34.79 25.58L34.81 25.57ZM35.79 24.47V24.32L35.71 24.24C36.27 24.44 38.24 25.24 38.87 25.5C39.3605 25.7725 39.7906 26.1416 40.1343 26.5851C40.4781 27.0285 40.7284 27.5371 40.87 28.08C40.4428 28.1166 40.0125 28.0683 39.604 27.9378C39.1956 27.8074 38.817 27.5974 38.49 27.32C37.43 26.41 36.11 25.15 35.63 24.74L35.78 24.59C36.7012 25.3399 37.7083 25.9777 38.78 26.49C38.5457 26.0549 38.2007 25.6892 37.78 25.43C37.1634 25.0047 36.4902 24.6681 35.78 24.43L35.79 24.47ZM37 23.5C37 23.42 36.92 23.42 36.92 23.35C37.55 23.5 39.17 23.7 39.92 23.91C40.5188 24.0698 41.0778 24.3523 41.5615 24.7396C42.0453 25.127 42.4432 25.6107 42.73 26.16C42.73 26.16 41.62 26.51 39.44 25.53C38.4118 24.9891 37.3376 24.5407 36.23 24.19C36.4806 24.19 36.7263 24.1208 36.94 23.99C37.9286 24.4716 39.0024 24.7536 40.1 24.82C39.7599 24.5747 39.3904 24.3731 39 24.22C38.3628 23.9048 37.6918 23.6633 37 23.5ZM37 22.5C36.8 22.5853 36.587 22.636 36.37 22.65C36.5308 22.7434 36.6759 22.8615 36.8 23C38.1763 23.3456 39.5829 23.5566 41 23.63C42.0725 23.7813 43.1646 23.7133 44.21 23.43C43.3576 22.9433 42.4375 22.586 41.48 22.37C40.72 22.22 38.62 22.22 37.64 22.09C37.5528 22.1649 37.4591 22.2318 37.36 22.29C38.4798 22.2968 39.591 22.4859 40.65 22.85C39.4222 22.9877 38.1792 22.8685 37 22.5Z" fill="white"/>
<path d="M30.4399 24.9999L30.2399 24.7999C29.9843 25.124 29.7724 25.4804 29.6099 25.8599C29.4681 26.2725 29.3512 26.6933 29.2599 27.1199C29.1505 27.528 29.0066 27.9261 28.8299 28.3099C29.0262 28.3116 29.2209 28.2745 29.4028 28.2007C29.5847 28.1269 29.7503 28.0179 29.8899 27.8799C30.2233 27.4525 30.4403 26.9461 30.5199 26.4099C30.6137 25.9374 30.5861 25.4489 30.4399 24.9899V24.9999ZM31.4399 25.0699L31.2399 25.2699L31.1599 25.3499H31.0799L30.7999 25.2699C30.7084 25.4429 30.6571 25.6343 30.6499 25.8299C30.5744 26.1792 30.5744 26.5406 30.6499 26.8899C30.7444 27.1996 30.9086 27.4835 31.1299 27.7199C31.333 27.4965 31.4954 27.2393 31.6099 26.9599C31.7619 26.5778 31.7619 26.152 31.6099 25.7699C31.6112 25.5218 31.5493 25.2774 31.4299 25.0599L31.4399 25.0699ZM32.6899 25.1099C32.3643 25.0624 32.0534 24.9429 31.7799 24.7599C31.73 24.8432 31.6972 24.9357 31.6834 25.0318C31.6697 25.128 31.6753 25.2259 31.6999 25.3199C31.795 25.6088 31.9599 25.8699 32.1799 26.0799C32.3808 26.2535 32.6142 26.3853 32.8666 26.4677C33.119 26.5501 33.3853 26.5815 33.6499 26.5599C33.7299 26.6099 33.8799 26.1799 32.6499 25.1199L32.6899 25.1099ZM33.1299 24.3599C33.1008 24.5929 33.0033 24.8121 32.8499 24.9899C33.0226 25.2708 33.2707 25.4975 33.5659 25.6443C33.8612 25.791 34.1917 25.8519 34.5199 25.8199C34.5978 25.6218 34.5967 25.4013 34.5167 25.204C34.4366 25.0067 34.2838 24.8477 34.0899 24.7599C33.7599 24.6299 33.4799 24.4799 33.0899 24.3599H33.1299ZM32.9999 23.6599C33.3492 23.7354 33.7106 23.7354 34.0599 23.6599H34.2099V23.4999C34.7699 23.9299 35.3199 23.9799 35.5999 24.4099C35.4998 24.5556 35.3628 24.6722 35.2029 24.7477C35.0431 24.8233 34.8661 24.8551 34.6899 24.8399C34.3899 24.8148 34.0984 24.7282 33.8334 24.5854C33.5685 24.4425 33.3358 24.2467 33.1499 24.0099C33.0557 23.9176 33.0018 23.7918 32.9999 23.6599ZM34.1899 23.0299C34.1196 22.818 33.9995 22.626 33.8399 22.4699C34.3001 22.3942 34.7697 22.3942 35.2299 22.4699C35.5921 22.4671 35.9456 22.5814 36.2375 22.7959C36.5295 23.0103 36.7443 23.3134 36.8499 23.6599C36.5161 23.8582 36.1219 23.9293 35.7399 23.8599C35.4371 23.8473 35.1411 23.766 34.8743 23.6222C34.6075 23.4784 34.3769 23.2759 34.1999 23.0299H34.1899ZM34.4799 22.0299C34.6507 21.8661 34.7957 21.6772 34.9099 21.4699L34.9899 21.3199C35.5094 21.0672 36.1036 21.0138 36.6599 21.1699C37.0034 21.2732 37.2981 21.4968 37.4899 21.7999C37.0977 22.0968 36.6367 22.2895 36.1499 22.3599C35.5767 22.3631 35.0088 22.2509 34.4799 22.0299ZM34.2499 20.8899C34.1699 20.8099 34.0499 20.8099 33.8999 20.8099C34.1872 20.5086 34.4025 20.1462 34.5299 19.7499C34.8994 19.8365 35.2866 19.8086 35.6399 19.6699C35.8359 19.5983 36.0461 19.5746 36.2531 19.6007C36.4601 19.6268 36.6578 19.7019 36.8299 19.8199C36.7571 20.0561 36.6189 20.267 36.4313 20.428C36.2438 20.589 36.0144 20.6937 35.7699 20.7299C35.5444 20.8682 35.2904 20.9535 35.0271 20.9795C34.7639 21.0055 34.4981 20.9714 34.2499 20.8799V20.8899ZM34.6399 19.4999H34.4899C34.3169 19.4084 34.1255 19.3571 33.9299 19.3499C34.389 18.9556 34.8808 18.6009 35.3999 18.2899C35.9771 17.9142 36.6228 17.6559 37.2999 17.5299C37.0823 18.0893 36.7749 18.6095 36.3899 19.0699C36.1838 19.3187 35.908 19.5003 35.5979 19.5911C35.2879 19.682 34.9577 19.6781 34.6499 19.5799L34.6399 19.4999ZM33.7399 19.0999C33.9712 18.765 34.1343 18.3878 34.2199 17.9899C34.3699 17.5099 34.4999 16.9299 34.6999 16.4499C35.0486 15.8124 35.6284 15.3329 36.3199 15.1099C36.4742 15.7805 36.4039 16.4832 36.1199 17.1099C35.5083 17.967 34.6895 18.6551 33.7399 19.1099V19.0999ZM28.2799 24.1099C28.1553 24.2293 28.0095 24.3243 27.8499 24.3899C27.7567 24.6038 27.7153 24.8366 27.7292 25.0695C27.7431 25.3024 27.8119 25.5287 27.9299 25.7299C28.2696 26.3338 28.5477 26.9703 28.7599 27.6299C28.7599 27.6299 28.9599 27.6299 29.1899 26.4399C29.26 25.9982 29.4542 25.5855 29.7499 25.2499C29.62 25.3323 29.4729 25.3836 29.3199 25.3999H29.1699L29.0899 25.2499C28.9659 25.0351 28.9134 24.7865 28.9399 24.5399V24.3399C28.8194 24.3608 28.6956 24.3506 28.5801 24.3104C28.4646 24.2701 28.3613 24.2011 28.2799 24.1099Z" fill="white"/>
<path d="M34.3601 26.11C35.0701 26.82 36.6101 28.49 36.4601 30.23C35.6494 29.9742 34.9462 29.4574 34.4601 28.76C34.1096 28.0669 33.712 27.3987 33.2701 26.76H33.9001C34.3066 27.5873 34.9028 28.3069 35.6401 28.86C35.6401 28.86 35.7901 28.03 33.9001 26.21C33.9001 26.13 33.8201 26.06 33.7501 26.01C33.954 26.0722 34.1671 26.0993 34.3801 26.09L34.3601 26.11ZM19.5901 13.32C20.041 13.1683 20.5292 13.1683 20.9801 13.32C20.5254 13.4467 20.0448 13.4467 19.5901 13.32ZM24.7001 12.5C24.7001 12.65 24.6201 12.7 24.5001 12.7C24.4735 12.7014 24.4468 12.6973 24.4219 12.6877C24.397 12.6782 24.3743 12.6635 24.3555 12.6446C24.3366 12.6258 24.3219 12.6031 24.3124 12.5782C24.3028 12.5533 24.2987 12.5266 24.3001 12.5C24.3001 12.35 24.3801 12.3 24.5001 12.3C24.5267 12.2986 24.5534 12.3027 24.5783 12.3123C24.6032 12.3218 24.6259 12.3365 24.6447 12.3554C24.6636 12.3742 24.6783 12.3969 24.6878 12.4218C24.6974 12.4467 24.7015 12.4734 24.7001 12.5ZM23.3101 11.74C23.0335 11.1863 22.8221 10.6024 22.6801 10C22.7601 9.85 22.8301 9.72 23.0301 9.72C23.2301 9.72 23.3101 9.64 23.3801 9.72C23.6267 10.2976 23.7721 10.9132 23.8101 11.54C23.6344 11.591 23.4636 11.6579 23.3001 11.74H23.3101ZM23.9801 11.59H24.2601C24.1878 11.0676 24.0707 10.5523 23.9101 10.05C23.8919 9.93043 23.8439 9.81736 23.7705 9.72123C23.6971 9.62511 23.6007 9.54902 23.4901 9.5C23.5701 9.78 23.6901 10.06 23.7701 10.33C23.8699 10.7555 23.9467 11.1862 24.0001 11.62L23.9801 11.59ZM23.4401 13.09C23.0749 13.2862 22.6645 13.3828 22.2501 13.37C22.4101 13.0933 22.6244 12.8518 22.8801 12.66C23.2313 12.4291 23.6528 12.3299 24.0701 12.38C23.9143 12.6597 23.6993 12.902 23.4401 13.09ZM22.8101 13.17C23.1245 13.0465 23.4079 12.8554 23.6401 12.61C23.3002 12.6794 23.0017 12.8808 22.8101 13.17Z" fill="white"/>
<path d="M19.4701 13.45C19.919 13.594 20.3888 13.6616 20.8601 13.65C21.6851 13.6567 22.5079 13.5627 23.3101 13.37C23.2782 13.4709 23.2224 13.5626 23.1476 13.6375C23.0727 13.7123 22.981 13.7681 22.8801 13.8C23.0118 13.8029 23.1372 13.8567 23.2301 13.95C23.1865 14.0349 23.1258 14.1098 23.0518 14.1701C22.9778 14.2303 22.8921 14.2746 22.8001 14.3C23.0966 14.5939 23.4929 14.7653 23.9101 14.78C23.7987 14.8787 23.6647 14.9485 23.52 14.9834C23.3753 15.0182 23.2243 15.0171 23.0801 14.98C22.72 14.9071 22.3975 14.7086 22.1701 14.42C22.2334 14.554 22.2609 14.7022 22.2501 14.85C22.1555 14.8375 22.0644 14.8062 21.982 14.7582C21.8996 14.7101 21.8276 14.6461 21.7701 14.57C21.8602 14.7146 21.9118 14.8798 21.9201 15.05C21.7644 15.0471 21.6138 14.9946 21.4901 14.9C21.5519 15.0058 21.5798 15.1279 21.5701 15.25C21.1923 15.1139 20.8355 14.9254 20.5101 14.69V15.04C20.5901 15.12 19.5101 14.96 19.5101 13.42L19.4701 13.45ZM21.3301 14.05H20.1001C20.1126 14.1446 20.1439 14.2357 20.1919 14.3181C20.24 14.4005 20.304 14.4725 20.3801 14.53C20.3801 14.05 21.2901 14.05 21.2901 14.05H21.3301ZM19.2901 13.57C19.2959 13.8836 19.3639 14.1929 19.4901 14.48C19.277 14.3463 19.1096 14.151 19.0101 13.92C18.9301 13.57 18.9301 13.41 19.2901 13.57ZM19.5201 14.57L20.0801 15C19.8739 15.078 19.6636 15.1448 19.4501 15.2C19.2436 15.0284 18.9836 14.9345 18.7151 14.9345C18.4466 14.9345 18.1866 15.0284 17.9801 15.2C17.8776 15.146 17.7878 15.0707 17.7169 14.979C17.646 14.8874 17.5955 14.7816 17.569 14.6688C17.5424 14.556 17.5404 14.4388 17.563 14.3252C17.5857 14.2115 17.6324 14.104 17.7001 14.01C17.8236 13.8743 17.9873 13.7818 18.1673 13.7458C18.3472 13.7098 18.5339 13.7323 18.7001 13.81C18.7773 13.9879 18.8911 14.1475 19.0341 14.2785C19.1771 14.4094 19.3461 14.5087 19.5301 14.57H19.5201ZM18.5301 14.72C18.5598 14.72 18.5888 14.7112 18.6134 14.6947C18.6381 14.6782 18.6573 14.6548 18.6687 14.6274C18.68 14.6 18.683 14.5698 18.6772 14.5407C18.6714 14.5116 18.6571 14.4849 18.6362 14.4639C18.6152 14.443 18.5885 14.4287 18.5594 14.4229C18.5303 14.4171 18.5001 14.4201 18.4727 14.4314C18.4453 14.4428 18.4219 14.462 18.4054 14.4867C18.3889 14.5113 18.3801 14.5403 18.3801 14.57C18.3801 14.65 18.3801 14.72 18.5301 14.72ZM20.1201 15.12C20.2682 15.3165 20.4286 15.5035 20.6001 15.68C20.3028 15.6695 20.0095 15.7514 19.7606 15.9143C19.5117 16.0773 19.3194 16.3133 19.2101 16.59C19.1099 16.4451 19.0497 16.2764 19.0356 16.1008C19.0216 15.9252 19.0542 15.749 19.1301 15.59C19.2541 15.4447 19.4071 15.3269 19.5793 15.2443C19.7516 15.1616 19.9392 15.1159 20.1301 15.11L20.1201 15.12ZM21.3401 15.34L21.8201 15.49V15.21C21.9701 15.21 22.0201 15.29 22.1701 15.29C22.2918 15.7258 22.4917 16.1358 22.7601 16.5C22.7438 16.653 22.6925 16.8001 22.6101 16.93C22.4409 16.6419 22.2539 16.3647 22.0501 16.1C21.8697 15.8079 21.6046 15.5777 21.2901 15.44L21.3401 15.34ZM20.3801 15.29C20.7384 15.3663 21.0782 15.5124 21.3801 15.72C21.5501 15.8261 21.6905 15.9733 21.7884 16.1481C21.8863 16.323 21.9385 16.5196 21.9401 16.72C21.7869 16.5026 21.5975 16.3132 21.3801 16.16C20.9721 15.9737 20.6253 15.6755 20.3801 15.3V15.29ZM20.3801 11.73C20.5301 11.73 20.6601 11.81 20.6601 11.93C20.5751 12.1967 20.4575 12.452 20.3101 12.69C20.1485 12.4599 20.03 12.2024 19.9601 11.93C20.006 11.8599 20.0706 11.8041 20.1466 11.7688C20.2226 11.7334 20.3069 11.72 20.3901 11.73H20.3801ZM20.1601 13.07C20.1013 12.7279 20.0075 12.3928 19.8801 12.07C19.7502 11.9876 19.6031 11.9363 19.4501 11.92C19.3986 11.9245 19.3503 11.947 19.3137 11.9836C19.2771 12.0202 19.2546 12.0685 19.2501 12.12V12.2C19.4182 12.5144 19.6052 12.8183 19.8101 13.11C19.9211 13.0657 20.0411 13.0485 20.1601 13.06V13.07ZM20.5101 13.06C20.5689 12.7179 20.6627 12.3828 20.7901 12.06C20.92 11.9776 21.0671 11.9263 21.2201 11.91C21.2716 11.9145 21.3199 11.937 21.3565 11.9736C21.3931 12.0102 21.4156 12.0585 21.4201 12.11V12.19C21.2694 12.5141 21.0815 12.8195 20.8601 13.1C20.7496 13.0537 20.6291 13.0364 20.5101 13.05V13.06ZM20.8601 10.88H20.4301V10.5H20.2301V10.85H19.8001V11.13H20.2301V11.5H20.4301V11.1H20.8601V10.88ZM16.5901 13.38V12.7C16.4196 12.7563 16.2633 12.8489 16.1321 12.9715C16.0008 13.0941 15.8978 13.2437 15.8301 13.41C15.8301 13.41 16.3901 13.06 16.5901 13.41V13.38ZM17.0701 14.32C17.1501 14.04 17.2201 13.69 17.2701 13.41C17.3408 13.2021 17.364 12.981 17.3381 12.763C17.3121 12.5449 17.2376 12.3355 17.1201 12.15C16.9719 11.8383 16.9032 11.4947 16.9201 11.15L16.4401 11.35C16.4618 11.6994 16.5572 12.0402 16.7201 12.35C16.8206 12.6145 16.8482 12.9012 16.8001 13.18C16.7615 13.379 16.7665 13.5839 16.8148 13.7808C16.8632 13.9776 16.9537 14.1616 17.0801 14.32H17.0701ZM17.0801 11.32V11.12C17.3411 10.8264 17.6934 10.6291 18.0801 10.56C18.2801 10.48 18.4301 10.56 18.6401 10.71C18.5084 10.7129 18.383 10.7667 18.2901 10.86C18.0762 11.0513 17.8373 11.2128 17.5801 11.34C17.4203 11.3281 17.2599 11.3281 17.1001 11.34" fill="white"/>
<path d="M18.6099 10.6399C18.7807 10.7867 18.9027 10.9821 18.9599 11.1999C18.8974 11.4964 18.7786 11.7782 18.6099 12.0299C18.4398 12.2286 18.3413 12.4786 18.3299 12.7399C18.3299 12.8899 18.4799 13.0199 18.5299 13.1699C18.3805 13.1278 18.241 13.0567 18.1191 12.9606C17.9973 12.8645 17.8956 12.7453 17.8199 12.6099C17.7819 12.4769 17.7805 12.3362 17.8156 12.2025C17.8508 12.0687 17.9214 11.947 18.0199 11.8499C18.1438 11.5755 18.3054 11.3197 18.4999 11.0899C18.5792 10.9503 18.6141 10.7898 18.5999 10.6299L18.6099 10.6399ZM22.3199 15.0499C22.4386 15.4751 22.6279 15.8774 22.8799 16.2399C23.0543 16.545 23.1505 16.8886 23.1599 17.2399C23.3053 16.9068 23.3571 16.5403 23.3099 16.1799C23.1325 15.6946 22.7741 15.2968 22.3099 15.0699L22.3199 15.0499ZM23.0199 15.1999C23.2369 15.2139 23.4499 15.2646 23.6499 15.3499C23.9721 15.5978 24.1954 15.9523 24.2799 16.3499C24.0575 16.2874 23.8453 16.1931 23.6499 16.0699C23.366 15.8455 23.1482 15.5483 23.0199 15.2099V15.1999ZM20.7699 16.0699C20.6199 16.0699 20.4899 16.1499 20.3399 16.1499C20.5362 16.2225 20.724 16.3164 20.8999 16.4299C21.0035 16.5182 21.088 16.6267 21.1481 16.7488C21.2083 16.8709 21.243 17.004 21.2499 17.1399C21.3471 17.5262 21.4915 17.899 21.6799 18.2499C21.6852 17.8714 21.7528 17.4964 21.8799 17.1399C21.7191 17.0466 21.574 16.9284 21.4499 16.7899C21.3143 16.4803 21.0733 16.2288 20.7699 16.0799V16.0699ZM22.7699 17.0799C22.928 17.4034 23.0068 17.7599 22.9999 18.1199C22.8374 18.4994 22.6255 18.8558 22.3699 19.1799C22.2829 18.7651 22.2327 18.3435 22.2199 17.9199C22.2129 17.736 22.2569 17.5537 22.3468 17.3931C22.4368 17.2326 22.5694 17.1 22.7299 17.0099L22.7699 17.0799ZM23.4899 17.0099C23.7057 17.3854 23.8768 17.7847 23.9999 18.1999C24.0345 18.3296 24.039 18.4656 24.013 18.5973C23.987 18.729 23.9312 18.8531 23.8499 18.9599C23.6499 19.2399 23.4199 19.5199 23.2199 19.7899C23.0866 19.626 22.991 19.4348 22.9399 19.2299C22.9226 18.9518 22.9428 18.6726 22.9999 18.3999C23.2186 17.9559 23.3895 17.49 23.5099 17.0099H23.4899ZM23.7899 19.7399C23.5198 20.0156 23.2817 20.3209 23.0799 20.6499C23.0055 20.7627 22.9658 20.8948 22.9658 21.0299C22.9658 21.165 23.0055 21.2971 23.0799 21.4099C23.3001 21.7187 23.5829 21.9777 23.9099 22.1699C23.7127 21.8748 23.6146 21.5245 23.6299 21.1699C23.7054 20.9266 23.799 20.6892 23.9099 20.4599C23.9222 20.2099 23.8777 19.9603 23.7799 19.7299L23.7899 19.7399ZM22.7799 19.3799C22.916 19.5612 22.9866 19.7833 22.9799 20.0099C22.9664 20.2919 22.916 20.571 22.8299 20.8399C22.6791 21.2525 22.4917 21.6507 22.2699 22.0299C22.1251 21.8368 22.0073 21.6249 21.9199 21.3999C22.1199 21.1199 22.2699 20.8399 22.4799 20.5699C22.6094 20.1813 22.7097 19.7835 22.7799 19.3799ZM22.6299 19.1799C22.4866 19.9255 22.2051 20.6378 21.7999 21.2799C21.6862 21.4905 21.5279 21.6738 21.3363 21.8171C21.1446 21.9604 20.924 22.0603 20.6899 22.1099C20.4834 22.1001 20.2851 22.0266 20.1221 21.8994C19.9592 21.7723 19.8396 21.5978 19.7799 21.3999C19.7092 21.2173 19.6858 21.0197 19.7121 20.8256C19.7383 20.6315 19.8132 20.4472 19.9299 20.2899C19.9738 20.4665 20.0621 20.629 20.1863 20.762C20.3106 20.895 20.4667 20.9941 20.6399 21.0499C21.1699 20.9999 21.8799 20.3699 22.6399 19.1799" fill="white"/>
<path d="M22 18.6998C22.0695 18.9619 22.0695 19.2377 22 19.4998C21.9732 19.6448 21.9168 19.7828 21.8342 19.905C21.7516 20.0271 21.6446 20.1309 21.52 20.2098C21.3576 20.3042 21.1663 20.3359 20.9821 20.2991C20.798 20.2622 20.6336 20.1594 20.52 20.0098L20.44 19.9298C20.7901 19.8944 21.1228 19.7598 21.3991 19.542C21.6754 19.3241 21.8839 19.032 22 18.6998ZM23.72 23.4998C23.9871 23.8344 24.1997 24.209 24.35 24.6098C24.3363 25.1288 24.1881 25.6353 23.92 26.0798C23.6004 25.8139 23.3557 25.4692 23.21 25.0798C23.1728 24.7951 23.1992 24.5057 23.2874 24.2325C23.3756 23.9593 23.5234 23.709 23.72 23.4998ZM23.04 23.9798C23.1617 23.641 23.3523 23.3311 23.6 23.0698C23.6736 22.7706 23.6434 22.4554 23.5144 22.1756C23.3854 21.8958 23.1653 21.6681 22.89 21.5298C22.6345 21.8609 22.4444 22.2376 22.33 22.6398C22.25 23.2198 22.81 23.4998 23.04 23.9798ZM21.78 21.5998C21.6268 21.8172 21.4374 22.0066 21.22 22.1598V22.8698C21.3294 23.2779 21.4733 23.676 21.65 24.0598C21.8679 23.7907 22.031 23.4816 22.13 23.1498C22.1877 22.877 22.2145 22.5986 22.21 22.3198C22.0856 22.0722 21.9418 21.8348 21.78 21.6098V21.5998ZM20.59 23.6098C20.2919 23.1853 20.0906 22.7006 20 22.1898C20.151 22.2745 20.3186 22.3255 20.4912 22.3393C20.6639 22.3531 20.8374 22.3294 21 22.2698C21.0758 22.5684 21.0758 22.8812 21 23.1798C20.8688 23.3502 20.725 23.5107 20.57 23.6598L20.59 23.6098ZM20.65 23.8098L21 23.4998C21.08 23.4198 21.35 24.1298 21.43 24.3298C21.28 24.3298 21.15 24.3298 21.08 24.2498C20.9501 24.1027 20.8061 23.9688 20.65 23.8498V23.8098ZM22.25 23.4998C22.0374 23.8496 21.8001 24.1838 21.54 24.4998C21.6155 24.7431 21.7091 24.9805 21.82 25.2098C21.989 25.5153 22.2012 25.7949 22.45 26.0398C22.6208 25.7783 22.7648 25.5002 22.88 25.2098C22.9964 24.9926 23.0385 24.7432 23 24.4998C22.85 24.1498 22.44 23.7898 22.29 23.4398L22.25 23.4998ZM23 25.3998C23.232 25.7056 23.4205 26.0422 23.56 26.3998C23.609 26.6126 23.5806 26.836 23.48 27.0298C23.4 27.1798 23.2 27.5098 23.05 27.7898C22.7679 27.5761 22.5499 27.289 22.42 26.9598C22.3771 26.8231 22.3621 26.6793 22.3758 26.5367C22.3896 26.3941 22.4318 26.2558 22.5 26.1298C22.65 25.9298 22.93 25.7298 23.01 25.4198L23 25.3998ZM21.59 25.3698C21.7869 25.6234 21.9484 25.9026 22.07 26.1998C22.1438 26.3256 22.1828 26.4689 22.1828 26.6148C22.1828 26.7607 22.1438 26.904 22.07 27.0298C21.92 27.3098 21.79 27.5098 21.72 27.6598C21.5169 27.4364 21.3545 27.1792 21.24 26.8998C21.165 26.6282 21.165 26.3414 21.24 26.0698C21.406 25.8608 21.5253 25.6187 21.59 25.3598V25.3698ZM23.59 27.3598C23.304 27.7393 23.1028 28.1758 23 28.6398C23.1093 29.0707 23.2531 29.492 23.43 29.8998C23.6325 29.6948 23.7953 29.4541 23.91 29.1898C24.0834 28.9202 24.1543 28.5973 24.11 28.2798C24.1186 28.1075 24.087 27.9355 24.0176 27.7775C23.9481 27.6196 23.8428 27.48 23.71 27.3698L23.59 27.3598ZM22.37 27.2898C22.5849 27.6028 22.7063 27.9704 22.72 28.3498C22.5702 28.7025 22.3825 29.0378 22.16 29.3498C22.0119 29.0875 21.8945 28.809 21.81 28.5198C21.8037 28.2886 21.851 28.0591 21.9482 27.8492C22.0453 27.6393 22.1897 27.4547 22.37 27.3098V27.2898ZM29.45 13.3098C28.9991 13.1581 28.5109 13.1581 28.06 13.3098C28.5147 13.4365 28.9953 13.4365 29.45 13.3098ZM24.5 11.0698C24.6775 10.6348 24.8213 10.1869 24.93 9.7298C24.93 9.61576 24.8847 9.50639 24.8041 9.42575C24.7234 9.34511 24.614 9.2998 24.5 9.2998C24.386 9.2998 24.2766 9.34511 24.1959 9.42575C24.1153 9.50639 24.07 9.61576 24.07 9.7298C24.1675 10.1899 24.3116 10.6389 24.5 11.0698ZM25.69 11.7798C25.9666 11.2261 26.178 10.6422 26.32 10.0398C26.24 9.8898 26.17 9.7598 26.04 9.7598C25.91 9.7598 25.76 9.6798 25.69 9.7598C25.4434 10.3374 25.298 10.953 25.26 11.5798C25.34 11.6298 25.54 11.7098 25.69 11.7798ZM25 11.6198H24.7C24.7723 11.0974 24.8894 10.5821 25.05 10.0798C25.0496 9.94826 25.0925 9.82024 25.172 9.71544C25.2515 9.61065 25.3632 9.53488 25.49 9.4998C25.41 9.7798 25.29 10.0598 25.21 10.3298C25.13 10.7598 25.06 11.1898 24.98 11.5898L25 11.6198ZM25.06 12.3698C25.4744 12.357 25.8848 12.4536 26.25 12.6498C26.5224 12.8227 26.7408 13.0687 26.88 13.3598C26.4656 13.3726 26.0552 13.276 25.69 13.0798C25.5344 13.0229 25.3954 12.9282 25.2854 12.8043C25.1754 12.6804 25.098 12.5311 25.06 12.3698ZM25.34 12.5698C25.572 12.8154 25.8554 13.0066 26.17 13.1298C26.0806 12.9818 25.9601 12.855 25.8168 12.7583C25.6734 12.6615 25.5107 12.5972 25.34 12.5698ZM28.42 15.0998V14.7498C28.1142 14.9818 27.7776 15.1703 27.42 15.3098C27.4103 15.1877 27.4382 15.0656 27.5 14.9598C27.3701 15.0422 27.223 15.0935 27.07 15.1098C27.15 14.9598 27.15 14.7598 27.27 14.6298C27.2142 14.7076 27.1426 14.7728 27.0599 14.8211C26.9772 14.8693 26.8852 14.8996 26.79 14.9098C26.7792 14.762 26.8067 14.6138 26.87 14.4798C26.6739 14.7645 26.3774 14.9645 26.04 15.0398C25.8958 15.0769 25.7448 15.078 25.6001 15.0432C25.4554 15.0083 25.3214 14.9385 25.21 14.8398C25.6283 14.8301 26.0264 14.658 26.32 14.3598C26.1592 14.2664 26.0141 14.1483 25.89 14.0098C25.9829 13.9165 26.1083 13.8627 26.24 13.8598C26.1391 13.8279 26.0474 13.7721 25.9725 13.6973C25.8977 13.6224 25.8419 13.5307 25.81 13.4298C26.6115 13.6267 27.4348 13.7208 28.26 13.7098C28.7306 13.7108 29.1988 13.6434 29.65 13.5098C29.45 14.9798 28.41 15.1298 28.41 15.1298L28.42 15.0998ZM28.61 14.4998C28.6878 14.444 28.753 14.3724 28.8013 14.2897C28.8495 14.207 28.8798 14.115 28.89 14.0198C28.4685 14.0307 28.0468 14.0039 27.63 13.9398V14.0198C27.71 14.0698 28.63 14.0698 28.63 14.4998H28.61ZM29.74 13.5898C29.7342 13.9034 29.6662 14.2127 29.54 14.4998C29.7531 14.3661 29.9205 14.1708 30.02 13.9398C30.1 13.6398 30.1 13.4298 29.74 13.5898ZM30.45 13.9198C30.6162 13.8421 30.8029 13.8196 30.9828 13.8556C31.1628 13.8916 31.3265 13.9842 31.45 14.1198C31.5415 14.3212 31.5637 14.5472 31.513 14.7626C31.4623 14.9779 31.3417 15.1704 31.17 15.3098C30.9635 15.1382 30.7035 15.0443 30.435 15.0443C30.1665 15.0443 29.9065 15.1382 29.7 15.3098C29.5025 15.2087 29.2896 15.1411 29.07 15.1098C29.227 14.9315 29.4172 14.7854 29.63 14.6798C29.9886 14.5338 30.283 14.2642 30.46 13.9198H30.45ZM30.74 14.6998C30.74 14.6701 30.7312 14.6411 30.7147 14.6165C30.6982 14.5918 30.6748 14.5726 30.6474 14.5612C30.62 14.5499 30.5898 14.5469 30.5607 14.5527C30.5316 14.5585 30.5049 14.5728 30.4839 14.5937C30.463 14.6147 30.4487 14.6414 30.4429 14.6705C30.4371 14.6996 30.4401 14.7298 30.4514 14.7572C30.4628 14.7846 30.482 14.808 30.5067 14.8245C30.5313 14.841 30.5603 14.8498 30.59 14.8498C30.67 14.8498 30.74 14.7698 30.74 14.6998ZM28.92 15.1798C28.7719 15.3763 28.6115 15.5633 28.44 15.7398C28.7373 15.7293 29.0306 15.8112 29.2795 15.9741C29.5284 16.1371 29.7207 16.3731 29.83 16.6498C29.9302 16.5049 29.9904 16.3362 30.0045 16.1606C30.0185 15.985 29.9859 15.8088 29.91 15.6498C29.79 15.4999 29.6378 15.3789 29.4647 15.2959C29.2916 15.2128 29.102 15.1697 28.91 15.1698" fill="white"/>
<path d="M27.71 15.4199L27.23 15.5699V15.2899C27.08 15.2899 27.03 15.3699 26.88 15.3699C26.7344 15.7811 26.5178 16.1636 26.24 16.4999C26.2563 16.6529 26.3076 16.8 26.39 16.9299C26.5592 16.6418 26.7462 16.3646 26.95 16.0999C27.1452 15.8207 27.4062 15.594 27.71 15.4399V15.4199ZM28.62 15.2899C28.2617 15.3662 27.9219 15.5123 27.62 15.7199C27.45 15.826 27.3096 15.9732 27.2117 16.148C27.1138 16.3229 27.0616 16.5196 27.06 16.7199C27.2132 16.5025 27.4026 16.3131 27.62 16.1599C28.013 15.951 28.3546 15.6572 28.62 15.2999V15.2899ZM28.62 11.7299C28.47 11.7299 28.34 11.8099 28.34 11.9299C28.425 12.1966 28.5426 12.4519 28.69 12.6899C28.8516 12.4598 28.9701 12.2023 29.04 11.9299C28.9258 11.813 28.7729 11.7419 28.61 11.7299H28.62ZM28.81 13.0699C28.8317 12.7205 28.9271 12.3797 29.09 12.0699C29.2199 11.9875 29.367 11.9362 29.52 11.9199C29.6 11.9199 29.72 11.9999 29.67 12.1199V12.1999C29.5019 12.5143 29.3149 12.8182 29.11 13.1099C29.11 13.0599 28.96 13.0599 28.81 13.0599V13.0699ZM28.48 13.0599C28.4212 12.7178 28.3274 12.3828 28.2 12.0599C28.0701 11.9775 27.923 11.9262 27.77 11.9099C27.7185 11.9144 27.6702 11.9369 27.6336 11.9735C27.597 12.0101 27.5745 12.0584 27.57 12.1099V12.1899C27.7381 12.5043 27.9251 12.8082 28.13 13.0999C28.2405 13.0536 28.361 13.0363 28.48 13.0499V13.0599ZM28.13 10.8799H28.53V10.4999H28.81V10.8499H29.16V11.1299H28.81V11.4999H28.53V11.0999H28.13V10.8799ZM24 8.61994H24.35V8.18994H24.63V8.61994H25V8.81994H24.65V9.32994H24.37V8.81994H24V8.61994ZM32.42 13.3699V12.6899C32.5905 12.7462 32.7468 12.8388 32.878 12.9614C33.0093 13.084 33.1123 13.2336 33.18 13.3999C33.18 13.3999 32.62 13.0499 32.42 13.3999V13.3699ZM31.91 14.3099C31.83 14.0299 31.76 13.6799 31.71 13.3999C31.5827 12.9841 31.6112 12.5362 31.79 12.1399C31.9747 11.8414 32.0457 11.4864 31.99 11.1399L32.47 11.3399C32.4483 11.6893 32.3529 12.0301 32.19 12.3399C32.0895 12.6044 32.0619 12.8911 32.11 13.1699C32.1871 13.3595 32.2092 13.567 32.1738 13.7686C32.1384 13.9703 32.047 14.1578 31.91 14.3099ZM31.91 11.3099V11.1099C31.649 10.8163 31.2967 10.619 30.91 10.5499C30.71 10.4699 30.56 10.5499 30.35 10.6999C30.4817 10.7028 30.6071 10.7566 30.7 10.8499C30.9139 11.0412 31.1528 11.2027 31.41 11.3299C31.5699 11.3208 31.7301 11.3208 31.89 11.3299" fill="white"/>
<path d="M30.3701 10.6399C30.1993 10.7867 30.0772 10.9821 30.0201 11.1999C30.0826 11.4964 30.2014 11.7782 30.3701 12.0299C30.5402 12.2286 30.6388 12.4786 30.6501 12.7399C30.6501 12.8899 30.5001 13.0199 30.4501 13.1699C30.5994 13.1278 30.739 13.0567 30.8609 12.9606C30.9827 12.8645 31.0844 12.7453 31.1601 12.6099C31.1981 12.4769 31.1996 12.3362 31.1644 12.2025C31.1292 12.0687 31.0586 11.947 30.9601 11.8499C30.8362 11.5755 30.6746 11.3197 30.4801 11.0899C30.4008 10.9503 30.3659 10.7898 30.3801 10.6299L30.3701 10.6399ZM26.6901 15.0499C26.5714 15.4751 26.3821 15.8774 26.1301 16.2399C25.9352 16.5583 25.8378 16.9268 25.8501 17.2999C25.7047 16.9668 25.6528 16.6003 25.7001 16.2399C25.7545 15.974 25.8745 15.7258 26.0491 15.518C26.2237 15.3102 26.4475 15.1493 26.7001 15.0499H26.6901ZM25.9901 15.1799C25.7731 15.1939 25.5601 15.2446 25.3601 15.3299C25.0379 15.5778 24.8146 15.9323 24.7301 16.3299C24.9525 16.2674 25.1647 16.1731 25.3601 16.0499C25.638 15.8198 25.8545 15.5243 25.9901 15.1899V15.1799ZM28.2401 16.0499C28.3901 16.0499 28.5201 16.1299 28.6701 16.1299C28.4737 16.2025 28.286 16.2964 28.1101 16.4099C28.0065 16.4982 27.922 16.6067 27.8619 16.7288C27.8017 16.8509 27.7671 16.984 27.7601 17.1199C27.6629 17.5062 27.5185 17.879 27.3301 18.2299C27.3248 17.8514 27.2572 17.4764 27.1301 17.1199C27.2909 17.0266 27.436 16.9084 27.5601 16.7699C27.6196 16.6117 27.7105 16.4673 27.8274 16.3452C27.9442 16.2232 28.0846 16.1261 28.2401 16.0599V16.0499ZM26.2401 17.0599C26.0754 17.3886 25.9931 17.7524 26.0001 18.1199C26.1626 18.4994 26.3745 18.8558 26.6301 19.1799C26.7171 18.7651 26.7673 18.3435 26.7801 17.9199C26.777 17.7379 26.7288 17.5594 26.6398 17.4006C26.5508 17.2418 26.4238 17.1075 26.2701 17.0099L26.2401 17.0599ZM24.5001 18.2699C24.5001 17.9899 25.1301 17.3599 25.1301 17.0099C25.0809 16.8633 24.9984 16.7302 24.8891 16.6209C24.7798 16.5116 24.6467 16.4291 24.5001 16.3799C24.2319 16.5223 24.0125 16.7417 23.8701 17.0099C23.8701 17.3599 24.5001 18.0699 24.5001 18.2699ZM25.5001 17.0099C25.2878 17.3858 25.12 17.7852 25.0001 18.1999C24.9655 18.3296 24.961 18.4656 24.987 18.5973C25.013 18.729 25.0688 18.8531 25.1501 18.9599C25.3501 19.2399 25.5801 19.5199 25.7801 19.7899C25.9134 19.626 26.009 19.4348 26.0601 19.2299C26.0774 18.9518 26.0572 18.6726 26.0001 18.3999C25.7703 17.9608 25.5988 17.4935 25.4901 17.0099H25.5001ZM24.4901 20.2999C24.6831 20.1572 24.8321 19.9632 24.9201 19.7399C24.9635 19.6491 24.9791 19.5474 24.9649 19.4478C24.9506 19.3481 24.9072 19.2549 24.8401 19.1799C24.6697 19.0046 24.5489 18.7872 24.4901 18.5499C24.4027 18.7749 24.2849 18.9868 24.1401 19.1799C24.0718 19.2543 24.0276 19.3475 24.0133 19.4475C23.999 19.5475 24.0153 19.6494 24.0601 19.7399C24.1547 19.9594 24.3025 20.1518 24.4901 20.2999ZM25.2001 19.7399C25.4702 20.0156 25.7084 20.3209 25.9101 20.6499C25.9845 20.7627 26.0242 20.8948 26.0242 21.0299C26.0242 21.165 25.9845 21.2971 25.9101 21.4099C25.6899 21.7187 25.4071 21.9777 25.0801 22.1699C25.2773 21.8748 25.3754 21.5245 25.3601 21.1699C25.2846 20.9266 25.191 20.6892 25.0801 20.4599C25.0678 20.2099 25.1123 19.9603 25.2101 19.7299L25.2001 19.7399ZM26.2101 19.3799C26.0739 19.5612 26.0034 19.7833 26.0101 20.0099C26.0236 20.2919 26.074 20.571 26.1601 20.8399C26.3109 21.2525 26.4983 21.6507 26.7201 22.0299C26.8649 21.8368 26.9827 21.6249 27.0701 21.3999C26.8701 21.1199 26.7201 20.8399 26.5101 20.5699C26.3001 20.2999 26.2801 19.7399 26.2101 19.3799ZM26.4401 19.1799C26.5834 19.9255 26.8649 20.6378 27.2701 21.2799C27.3838 21.4905 27.5421 21.6738 27.7337 21.8171C27.9254 21.9604 28.146 22.0603 28.3801 22.1099C28.5866 22.1001 28.7849 22.0266 28.9479 21.8994C29.1108 21.7723 29.2304 21.5978 29.2901 21.3999C29.3608 21.2173 29.3842 21.0197 29.3579 20.8256C29.3317 20.6315 29.2568 20.4472 29.1401 20.2899C29.0962 20.4665 29.0079 20.629 28.8837 20.762C28.7594 20.895 28.6033 20.9941 28.4301 21.0499C27.9001 20.9999 27.1901 20.3699 26.4301 19.1799" fill="white"/>
<path d="M27 18.7002C26.9305 18.9623 26.9305 19.2381 27 19.5002C27.0268 19.6452 27.0832 19.7832 27.1658 19.9054C27.2484 20.0275 27.3554 20.1313 27.48 20.2102C27.6424 20.3046 27.8337 20.3363 28.0179 20.2995C28.202 20.2626 28.3664 20.1598 28.48 20.0102L28.56 19.9302C28.2088 19.8984 27.8743 19.7652 27.5974 19.5468C27.3204 19.3284 27.1129 19.0343 27 18.7002ZM24.5 22.1902C24.6818 22.131 24.8351 22.0062 24.93 21.8402C25.0666 21.5852 25.1355 21.2994 25.13 21.0102C25.0537 20.7802 24.935 20.5665 24.78 20.3802C24.7025 20.4666 24.6069 20.5349 24.5 20.5802C24.4128 20.5053 24.3191 20.4384 24.22 20.3802C24.0752 20.5733 23.9574 20.7852 23.87 21.0102C23.84 21.1547 23.8424 21.3041 23.877 21.4476C23.9115 21.5911 23.9775 21.7252 24.07 21.8402C24.15 22.0702 24.3 22.1202 24.5 22.1902ZM24.5 24.2902C24.58 23.9402 25.21 23.3802 25.21 23.0302C25.21 22.6802 24.78 22.6002 24.5 22.4002C24.22 22.6002 23.94 22.5502 23.79 23.0302C23.79 23.3102 24.42 23.9402 24.5 24.2902ZM25.26 23.5302C24.9929 23.8648 24.7803 24.2394 24.63 24.6402C24.6437 25.1591 24.7919 25.6657 25.06 26.1102C25.3796 25.8443 25.6243 25.4996 25.77 25.1102C25.8181 24.8206 25.7969 24.5238 25.7083 24.244C25.6196 23.9642 25.466 23.7093 25.26 23.5002V23.5302ZM25.97 23.9802C25.8483 23.6414 25.6577 23.3315 25.41 23.0702C25.3364 22.771 25.3666 22.4558 25.4956 22.176C25.6246 21.8962 25.8447 21.6685 26.12 21.5302C26.3464 21.8788 26.5342 22.2509 26.68 22.6402C26.73 23.2202 26.17 23.5002 25.97 23.9802ZM27.23 21.6002C27.3832 21.8176 27.5726 22.007 27.79 22.1602V22.8702C27.6806 23.2783 27.5367 23.6764 27.36 24.0602C27.1421 23.7911 26.979 23.482 26.88 23.1502C26.8223 22.8774 26.7955 22.599 26.8 22.3202C26.88 22.2402 27.08 21.8102 27.23 21.6102V21.6002ZM28.42 23.6102C28.7145 23.1848 28.9125 22.7001 29 22.1902C28.849 22.2749 28.6814 22.3259 28.5088 22.3397C28.3361 22.3535 28.1626 22.3298 28 22.2702C27.9242 22.5688 27.9242 22.8816 28 23.1802C28.124 23.3566 28.2683 23.5177 28.43 23.6602L28.42 23.6102ZM28.35 23.8102C28.2 23.6602 28.07 23.6102 28 23.4602C27.85 23.7402 27.72 24.0202 27.57 24.2902C27.72 24.2902 27.85 24.2902 27.92 24.2102C28.0499 24.0631 28.1939 23.9291 28.35 23.8102ZM26.72 23.5002C26.9326 23.85 27.1699 24.1842 27.43 24.5002C27.3545 24.7435 27.2609 24.9809 27.15 25.2102C26.981 25.5157 26.7688 25.7953 26.52 26.0402C26.3492 25.7786 26.2051 25.5006 26.09 25.2102C25.9839 24.9895 25.9523 24.7404 26 24.5002C26.15 24.1502 26.58 23.7902 26.71 23.4402L26.72 23.5002ZM24.5 27.9302C24.6806 27.6622 24.8475 27.3851 25 27.1002C25.0678 26.9059 25.0678 26.6944 25 26.5002C24.92 26.3002 24.57 25.7902 24.52 25.6702C24.3262 25.9335 24.1524 26.211 24 26.5002C23.925 26.7035 23.925 26.9269 24 27.1302C24.13 27.5602 24.48 27.7602 24.48 27.9602L24.5 27.9302ZM25.87 25.4302C25.638 25.736 25.4495 26.0726 25.31 26.4302C25.261 26.643 25.2894 26.8663 25.39 27.0602C25.47 27.2102 25.67 27.5402 25.82 27.8202C26.1021 27.6065 26.3201 27.3194 26.45 26.9902C26.4929 26.8535 26.5079 26.7097 26.4942 26.5671C26.4804 26.4245 26.4382 26.2861 26.37 26.1602C26.29 25.9602 26.02 25.7602 25.86 25.4502L25.87 25.4302ZM27.33 25.4002C27.1331 25.6538 26.9716 25.933 26.85 26.2302C26.7762 26.356 26.7372 26.4993 26.7372 26.6452C26.7372 26.7911 26.7762 26.9344 26.85 27.0602C27 27.3402 27.13 27.5402 27.2 27.6902C27.4031 27.4668 27.5655 27.2096 27.68 26.9302C27.755 26.6586 27.755 26.3718 27.68 26.1002C27.5334 25.8795 27.4157 25.6409 27.33 25.3902V25.4002ZM24.5 32.0002C24.7792 31.3979 24.9679 30.7577 25.06 30.1002C24.9859 29.6144 24.7936 29.1543 24.5 28.7602C24.1729 29.1343 23.9763 29.6046 23.94 30.1002C24.0097 30.7623 24.1995 31.4061 24.5 32.0002ZM25.33 27.3702C25.6433 27.7396 25.872 28.1731 26 28.6402C25.8907 29.071 25.7469 29.4924 25.57 29.9002C25.3675 29.6952 25.2047 29.4545 25.09 29.1902C24.9933 29.0618 24.9254 28.914 24.8909 28.757C24.8564 28.6 24.8561 28.4373 24.89 28.2802C24.8715 28.1068 24.8988 27.9316 24.9689 27.772C25.0391 27.6123 25.1498 27.4738 25.29 27.3702H25.33ZM26.63 27.2902C26.4151 27.6032 26.2937 27.9708 26.28 28.3502C26.4298 28.7029 26.6175 29.0382 26.84 29.3502C26.9881 29.0879 27.1055 28.8094 27.19 28.5202C27.1963 28.289 27.149 28.0595 27.0518 27.8496C26.9547 27.6397 26.8103 27.4551 26.63 27.3102" fill="white"/>
<path d="M25 33.39C25.0906 32.9055 25.2524 32.4371 25.48 32C25.5235 31.7932 25.5209 31.5795 25.4725 31.3738C25.4242 31.1682 25.3311 30.9757 25.2 30.81C25.0093 31.4336 24.772 32.042 24.49 32.63C24.2186 32.0374 23.9816 31.4298 23.78 30.81C23.6489 30.9757 23.5558 31.1682 23.5075 31.3738C23.4591 31.5795 23.4565 31.7932 23.5 32C23.7081 32.4473 23.8755 32.9126 24 33.39C23.9902 33.5965 23.9167 33.7948 23.7895 33.9578C23.6624 34.1207 23.4879 34.2403 23.29 34.3C23.4644 34.3687 23.6565 34.3785 23.837 34.328C24.0176 34.2774 24.1766 34.1693 24.29 34.02C24.3764 33.9425 24.4447 33.8469 24.49 33.74C24.5649 33.8272 24.6318 33.9209 24.69 34.02C24.8023 34.1706 24.9613 34.2798 25.1423 34.3305C25.3232 34.3811 25.5158 34.3704 25.69 34.3C25.5246 34.2003 25.3809 34.0684 25.2675 33.9121C25.1541 33.7557 25.0734 33.5782 25.03 33.39H25ZM22.73 28.99C22.81 29.19 23.01 29.7 23.08 29.82C23.1072 30.003 23.0752 30.1899 22.9889 30.3536C22.9026 30.5172 22.7664 30.6491 22.6 30.73C22.412 30.6165 22.2622 30.4493 22.17 30.25C22.1238 30.1598 22.1067 30.0576 22.121 29.9573C22.1354 29.857 22.1804 29.7636 22.25 29.69C22.3585 29.4223 22.522 29.1804 22.73 28.98V28.99ZM23.73 29.98C23.697 30.4112 23.6027 30.8354 23.45 31.24C23.3437 31.4642 23.189 31.6622 22.9971 31.8195C22.8052 31.9769 22.5807 32.0897 22.34 32.15C22.1098 32.111 21.8932 32.0148 21.71 31.87C21.7277 31.7404 21.7823 31.6186 21.8675 31.5193C21.9526 31.4199 22.0646 31.3473 22.19 31.31C22.8264 31.0284 23.3631 30.5614 23.73 29.97V29.98ZM22.39 30.97C22.3028 30.8951 22.2091 30.8282 22.11 30.77C21.8615 30.8609 21.6234 30.9782 21.4 31.12C21.1101 31.3339 20.8539 31.5901 20.64 31.88C20.8876 31.9563 21.1524 31.9563 21.4 31.88C21.4545 31.6214 21.6091 31.3949 21.83 31.25C21.997 31.1216 22.1871 31.0265 22.39 30.97ZM22 30.59C21.8639 30.4087 21.7933 30.1866 21.8 29.96L20.97 30.52C20.7026 30.7238 20.4638 30.9626 20.26 31.23C20.532 31.1452 20.8092 31.0784 21.09 31.03C21.44 30.88 21.72 30.75 22 30.6V30.59ZM20.89 31.31C20.4092 31.4625 19.9179 31.5795 19.42 31.66C19.0779 31.8076 18.7686 32.0217 18.51 32.29L19.27 32.49C19.5296 32.3022 19.8077 32.1413 20.1 32.01C20.4043 31.8271 20.6694 31.5858 20.88 31.3L20.89 31.31ZM20.17 33.6C20.32 33.52 20.32 33.4 20.25 33.25C20.1331 33.0835 19.9643 32.9604 19.77 32.9C19.34 32.75 18.86 32.62 18.43 32.47C18.3551 32.5572 18.2882 32.6509 18.23 32.75C18.23 32.83 18.23 32.9 18.38 32.9H19.29C19.3393 32.9419 19.3737 32.9986 19.3881 33.0617C19.4026 33.1248 19.3962 33.1908 19.37 33.25C19.4999 33.1676 19.647 33.1163 19.8 33.1C19.896 33.153 19.9796 33.226 20.0451 33.3139C20.1106 33.4019 20.1566 33.5028 20.18 33.61L20.17 33.6ZM19.47 32.5C19.7176 32.5627 19.9562 32.6568 20.18 32.78C20.26 32.7 20.33 32.7 20.38 32.63C20.5115 32.3953 20.7053 32.2015 20.94 32.07C20.8179 32.0797 20.6958 32.0518 20.59 31.99C20.44 32.07 20.31 32.07 20.16 32.14C19.9166 32.2208 19.6872 32.3389 19.48 32.49L19.47 32.5ZM21.48 32.01C21.4 32.09 21.28 32.09 21.13 32.09C20.7569 32.3125 20.4845 32.6709 20.37 33.09C20.3243 33.2107 20.328 33.3446 20.3805 33.4626C20.4329 33.5805 20.5298 33.673 20.65 33.72C20.7984 33.7852 20.9657 33.7926 21.1192 33.7408C21.2728 33.689 21.4015 33.5817 21.48 33.44C21.48 33.36 21.56 33.36 21.56 33.29C21.5088 33.3314 21.4499 33.3622 21.3868 33.3809C21.3236 33.3995 21.2574 33.4055 21.192 33.3985C21.1265 33.3915 21.0631 33.3717 21.0052 33.3403C20.9474 33.3088 20.8964 33.2662 20.855 33.215C20.7715 33.1116 20.7324 32.9792 20.7465 32.847C20.7606 32.7147 20.8266 32.5935 20.93 32.51C21.01 32.51 21.01 32.43 21.08 32.43C21.3058 32.2847 21.5719 32.2146 21.84 32.23C21.69 32.15 21.56 32.03 21.49 32.03" fill="white"/>
<path d="M16.94 37.5C17.026 37.1567 17.1432 36.822 17.29 36.5C17.64 35.79 18.35 34.05 19.94 33.77C20.09 33.77 19.79 33.34 19.59 33.42C19.3871 33.4765 19.197 33.5716 19.03 33.7V33.27C19.03 33.19 18.95 33.19 18.88 33.19C18.6839 33.1935 18.4916 33.245 18.32 33.34C17.7758 34.0817 17.332 34.8921 17 35.75C16.65 36.58 16.44 36.86 16 36.75C15.56 36.64 15.44 36.19 14.74 36.32C14.4674 36.3932 14.2212 36.5423 14.03 36.75C14.0653 36.8298 14.1283 36.894 14.2074 36.9308C14.2865 36.9676 14.3763 36.9744 14.46 36.95C14.8803 36.9613 15.2905 37.0819 15.65 37.3C16.0757 37.399 16.5063 37.4758 16.94 37.53V37.5ZM23.31 32.02C23.3581 32.2996 23.4788 32.5617 23.66 32.78C23.66 32.78 23.18 35.03 21.41 35.23C21.4853 34.8926 21.6853 34.5961 21.97 34.4C22.53 34.05 23.31 33.49 23.23 32.66C23.0692 32.7534 22.9241 32.8715 22.8 33.01C22.52 33.36 22.04 34.27 21.13 34.27C21.2131 33.9896 21.3807 33.7416 21.61 33.56C22.0235 33.3348 22.3848 33.0247 22.67 32.65C22.7978 32.3713 23.0213 32.1478 23.3 32.02H23.31ZM22.47 40.26L23.53 41.8L24.36 40.33L24.08 39.85L23.52 40.91L22.81 39.85L22.46 40.25" fill="white"/>
<path d="M22.2 38.9799L19.75 35.4999L20.18 35.2199L18.92 34.7399V36.1299L19.35 35.7799L21.93 39.4199L22.21 38.9899L22.2 38.9799ZM13.39 30.7499C13.74 30.3999 14.22 30.6699 14.78 31.2299C15.34 31.7899 15.69 32.2299 15.34 32.5699C14.99 32.9099 14.51 32.6499 13.95 32.1399C13.39 31.6299 13.12 31.1399 13.39 30.7499Z" fill="white"/>
<path d="M14.29 36.88C14.131 36.7436 14.0051 36.5727 13.9219 36.3804C13.8388 36.1881 13.8005 35.9793 13.81 35.77C13.7933 35.5674 13.8187 35.3636 13.8847 35.1714C13.9507 34.9791 14.0559 34.8027 14.1936 34.6532C14.3312 34.5036 14.4984 34.3843 14.6846 34.3026C14.8707 34.221 15.0718 34.1789 15.275 34.1789C15.4783 34.1789 15.6793 34.221 15.8654 34.3026C16.0516 34.3843 16.2188 34.5036 16.3564 34.6532C16.4941 34.8027 16.5993 34.9791 16.6653 35.1714C16.7313 35.3636 16.7567 35.5674 16.74 35.77V36.05C16.8369 35.788 16.954 35.534 17.09 35.29C16.9563 34.8113 16.6413 34.4035 16.2119 34.1533C15.7824 33.9031 15.2724 33.8302 14.79 33.95C14.2774 34.1142 13.85 34.4734 13.6 34.95C13.6826 34.3304 13.9471 33.7492 14.36 33.28C14.6088 33.0882 14.8899 32.9426 15.19 32.85C14.9339 32.8507 14.6809 32.7946 14.4492 32.6856C14.2175 32.5767 14.0128 32.4176 13.85 32.22C13.4524 31.9364 13.1801 31.51 13.09 31.03C13.1521 31.4067 13.0998 31.7933 12.94 32.14C12.5301 32.9162 12.3629 33.7976 12.46 34.67C12.6503 35.5044 13.0897 36.2612 13.72 36.84C13.7893 36.9151 13.8427 37.0034 13.877 37.0996C13.9114 37.1958 13.926 37.298 13.92 37.4H15.26C15.26 37.4 15.54 37.4 15.54 37.2C15.54 37 15.39 37 15.26 37C14.9233 37.0355 14.583 37.0015 14.26 36.9L14.29 36.88ZM20.05 37.2C19.3937 37.4005 18.7258 37.5608 18.05 37.68C17.6565 37.7421 17.2583 37.7689 16.86 37.76V37.96C16.8869 37.9857 16.9079 38.0168 16.9217 38.0513C16.9355 38.0858 16.9417 38.1229 16.94 38.16C17.3615 38.1709 17.7832 38.1441 18.2 38.08C18.9502 37.9894 19.684 37.7942 20.38 37.5L20.08 37.17L20.05 37.2ZM21.22 37.17C22.2962 36.6163 23.1915 35.7662 23.8 34.72L23.95 34.52C23.8756 34.5578 23.7934 34.5774 23.71 34.5774C23.6266 34.5774 23.5444 34.5578 23.47 34.52L23.39 34.67C22.7704 35.5909 21.9541 36.3628 21 36.93L21.2 37.18L21.22 37.17ZM15.2 37.58H14.44C14.3901 37.565 14.3376 37.5604 14.2859 37.5666C14.2341 37.5727 14.1842 37.5894 14.1391 37.6157C14.0941 37.6419 14.055 37.6772 14.0242 37.7192C13.9934 37.7612 13.9715 37.8092 13.96 37.86C13.88 38.01 13.96 38.14 14.11 38.29C14.26 38.44 14.39 38.37 14.46 38.29C14.7472 38.149 15.0245 37.9886 15.29 37.81C15.34 37.66 15.42 37.51 15.19 37.58H15.2ZM15.82 37.93C15.7117 37.875 15.5915 37.8475 15.47 37.85C15.1923 38.0011 14.9366 38.1895 14.71 38.41C14.63 38.56 14.71 38.61 14.86 38.69C14.9395 38.7518 15.0398 38.7805 15.14 38.77C15.2717 38.7671 15.3971 38.7133 15.49 38.62C15.57 38.54 15.84 38.19 15.92 38.14C15.9022 38.0666 15.868 37.9983 15.82 37.94V37.93ZM15.9 38.29C15.82 38.37 15.55 38.72 15.55 38.72C15.55 38.72 15.55 38.8 15.63 38.87H15.71C15.9606 38.87 16.2063 38.8008 16.42 38.67C16.65 38.54 16.85 38.19 16.62 38.11C16.5623 38.0727 16.4975 38.0477 16.4296 38.0366C16.3618 38.0254 16.2924 38.0284 16.2258 38.0453C16.1592 38.0622 16.0967 38.0926 16.0424 38.1347C15.9881 38.1768 15.943 38.2297 15.91 38.29H15.9ZM16.06 37.38C15.9946 37.3423 15.9205 37.3224 15.845 37.3224C15.7695 37.3224 15.6954 37.3423 15.63 37.38C15.55 37.53 15.63 37.66 15.83 37.73C15.9431 37.7983 16.0697 37.8408 16.2011 37.8547C16.3324 37.8685 16.4652 37.8532 16.59 37.81C16.69 37.73 16.54 37.51 16.06 37.38ZM26.4 28.99C26.32 29.19 26.12 29.7 26.05 29.82C26.0229 30.003 26.0548 30.1899 26.1411 30.3536C26.2274 30.5172 26.3636 30.6491 26.53 30.73C26.718 30.6165 26.8678 30.4493 26.96 30.25C27.0062 30.1598 27.0233 30.0576 27.009 29.9573C26.9946 29.857 26.9496 29.7636 26.88 29.69C26.68 29.39 26.53 29.18 26.4 28.98V28.99ZM25.34 29.98C25.3626 30.4206 25.4821 30.8508 25.69 31.24C25.7963 31.4642 25.951 31.6622 26.1429 31.8195C26.3348 31.9769 26.5593 32.0897 26.8 32.15C27.0302 32.111 27.2468 32.0148 27.43 31.87C27.4182 31.7445 27.3718 31.6247 27.2958 31.524C27.2199 31.4234 27.1175 31.3458 27 31.3C26.3406 31.0214 25.7773 30.5555 25.38 29.96" fill="white"/>
<path d="M26.6001 30.9399C26.6873 30.865 26.781 30.7981 26.8801 30.7399C27.1286 30.8308 27.3667 30.9481 27.5901 31.0899C27.88 31.3038 28.1362 31.56 28.3501 31.8499C28.1025 31.9262 27.8377 31.9262 27.5901 31.8499C27.5356 31.5913 27.381 31.3648 27.1601 31.2199C27.0801 31.0899 26.8801 31.0199 26.6001 30.9399ZM27.0301 30.5899C27.1758 30.383 27.2463 30.1325 27.2301 29.8799L28.0601 30.4399C28.3275 30.6437 28.5663 30.8825 28.7701 31.1499C28.4981 31.0651 28.2209 30.9983 27.9401 30.9499C27.6306 30.8631 27.3439 30.7095 27.1001 30.4999L27.0301 30.5899ZM28.1001 31.2799C28.5809 31.4324 29.0722 31.5494 29.5701 31.6299C29.9122 31.7775 30.2215 31.9917 30.4801 32.2599L29.7201 32.4599C29.4605 32.2721 29.1824 32.1113 28.8901 31.9799C28.5807 31.804 28.3142 31.5615 28.1101 31.2699L28.1001 31.2799ZM28.7901 33.5699C28.6401 33.4899 28.6401 33.3699 28.7101 33.2199C28.827 33.0534 28.9958 32.9303 29.1901 32.8699C29.6201 32.7199 30.1001 32.5899 30.5301 32.4399C30.605 32.5271 30.6719 32.6208 30.7301 32.7199C30.7301 32.7999 30.7301 32.8699 30.5801 32.8699H29.6701C29.6208 32.9118 29.5864 32.9685 29.572 33.0316C29.5575 33.0947 29.5639 33.1607 29.5901 33.2199C29.4602 33.1375 29.3131 33.0862 29.1601 33.0699C28.9729 33.1851 28.8369 33.3676 28.7801 33.5799L28.7901 33.5699ZM29.5301 32.4999C29.2825 32.5626 29.0439 32.6567 28.8201 32.7799C28.7811 32.7775 28.7443 32.761 28.7167 32.7333C28.689 32.7057 28.6725 32.6689 28.6701 32.6299C28.5386 32.3952 28.3448 32.2014 28.1101 32.0699C28.2322 32.0796 28.3543 32.0517 28.4601 31.9899C28.6101 32.0699 28.7401 32.0699 28.8901 32.1399C29.113 32.2318 29.3244 32.3492 29.5201 32.4899L29.5301 32.4999ZM27.5201 32.0099C27.6001 32.0899 27.7201 32.0899 27.8701 32.0899C28.2432 32.3124 28.5156 32.6708 28.6301 33.0899C28.6758 33.2106 28.6721 33.3445 28.6196 33.4625C28.5672 33.5804 28.4703 33.673 28.3501 33.7199C28.2017 33.7851 28.0344 33.7925 27.8809 33.7407C27.7273 33.6889 27.5986 33.5816 27.5201 33.4399C27.5201 33.3599 27.4401 33.3599 27.4401 33.2899C27.5435 33.3734 27.6759 33.4125 27.8081 33.3984C27.9403 33.3844 28.0616 33.3183 28.1451 33.2149C28.2286 33.1115 28.2677 32.9791 28.2536 32.8469C28.2395 32.7147 28.1735 32.5934 28.0701 32.5099C27.9901 32.5099 27.9901 32.4299 27.9201 32.4299C27.6943 32.2846 27.4282 32.2145 27.1601 32.2299C27.3101 32.1499 27.4401 32.0299 27.5101 32.0299L27.5201 32.0099ZM32.1401 37.4999C32.0509 37.1563 31.9303 36.8216 31.7801 36.4999C31.4301 35.7899 30.7201 34.0499 29.1301 33.7699C28.9801 33.7699 29.2801 33.3399 29.4801 33.4199C29.683 33.4764 29.8731 33.5715 30.0401 33.6999V33.2699C30.0401 33.1899 30.1201 33.1899 30.1901 33.1899C30.2887 33.1735 30.3898 33.1783 30.4864 33.2042C30.583 33.2301 30.6729 33.2764 30.7501 33.3399C31.3044 34.0929 31.755 34.917 32.0901 35.7899C32.4401 36.6199 32.6501 36.8999 33.0901 36.7899C33.5301 36.6799 33.7201 36.2299 34.3501 36.3599C34.6227 36.4331 34.8689 36.5822 35.0601 36.7899C35.0248 36.8697 34.9618 36.9339 34.8827 36.9707C34.8036 37.0075 34.7138 37.0143 34.6301 36.9899C34.2098 37.0012 33.7996 37.1218 33.4401 37.3399C32.9868 37.4399 32.5568 37.5166 32.1501 37.5699L32.1401 37.4999ZM25.6901 31.9999C25.642 32.2795 25.5213 32.5416 25.3401 32.7599C25.3401 32.7599 25.8201 35.0099 27.5901 35.2099C27.5148 34.8725 27.3148 34.576 27.0301 34.3799C26.4701 34.0299 25.6901 33.4699 25.7701 32.6399C25.9309 32.7333 26.076 32.8514 26.2001 32.9899C26.4801 33.3399 26.9601 34.2499 27.8701 34.2499C27.787 33.9695 27.6194 33.7215 27.3901 33.5399C26.9766 33.3147 26.6153 33.0046 26.3301 32.6299C26.1949 32.3565 25.9735 32.1351 25.7001 31.9999H25.6901ZM24.5001 34.1499C24.783 34.7083 25.1395 35.2263 25.5601 35.6899C25.8401 35.9699 26.5601 36.6899 26.9501 37.0299C26.3358 36.8887 25.7636 36.6043 25.2801 36.1999C25.0458 36.3384 24.7883 36.4333 24.5201 36.4799C24.2492 36.4439 23.9896 36.3482 23.7601 36.1999C23.286 36.6185 22.71 36.9047 22.0901 37.0299C22.4401 36.6799 23.2001 35.9699 23.4801 35.6899C23.9366 35.2679 24.2803 34.7385 24.4801 34.1499" fill="white"/>
<path d="M24.5001 36.6798C24.7171 36.6658 24.9301 36.6151 25.1301 36.5298C25.0002 36.859 24.7822 37.1461 24.5001 37.3598C24.2346 37.13 24.02 36.8473 23.8701 36.5298C24.0701 36.6151 24.2831 36.6658 24.5001 36.6798Z" fill="white"/>
<path d="M25.41 41.7901L29.68 35.8501L30.11 36.2001V34.8101L28.85 35.2901L29.28 35.5701L25.51 40.8801L23.51 37.3901L23.31 37.7401L21.64 40.3201L21.21 40.0401V41.4301L22.55 40.9501L22.12 40.6701L23.59 38.4201L25.41 41.7801" fill="white"/>
<path d="M26.1701 39.4101L25.4601 38.3001C25.3801 38.5001 25.1101 38.8601 24.9001 39.3601L24.6201 38.8001L25.4501 37.3301L25.6501 37.6801L26.4101 39.0201L26.1601 39.4001L26.1701 39.4101ZM27.0701 39.7501L27.3501 40.2301L27.7801 39.9501V41.3401L26.4401 40.8601L26.8701 40.5801L26.6701 40.3001L27.0701 39.7401V39.7501ZM35.6201 30.7401C35.2701 30.3901 34.7901 30.6601 34.2301 31.2201C33.6701 31.7801 33.3201 32.2201 33.6701 32.5601C34.0201 32.9001 34.5001 32.6401 35.0601 32.1301C35.6201 31.6201 35.8901 31.1301 35.6201 30.7401Z" fill="white"/>
<path d="M34.7899 36.88C34.9489 36.7436 35.0748 36.5727 35.158 36.3804C35.2411 36.1881 35.2794 35.9793 35.2699 35.77C35.2395 35.4024 35.072 35.0596 34.8006 34.8097C34.5292 34.5598 34.1738 34.4211 33.8049 34.4211C33.436 34.4211 33.0806 34.5598 32.8092 34.8097C32.5378 35.0596 32.3703 35.4024 32.3399 35.77V36.05C32.2599 35.9 31.9899 35.34 31.9899 35.29C32.1236 34.8113 32.4386 34.4036 32.868 34.1534C33.2975 33.9032 33.8075 33.8302 34.2899 33.95C34.8025 34.1142 35.2299 34.4734 35.4799 34.95C35.3973 34.3304 35.1328 33.7493 34.7199 33.28C34.4711 33.0883 34.19 32.9426 33.8899 32.85C34.146 32.8507 34.399 32.7946 34.6307 32.6856C34.8624 32.5767 35.0671 32.4176 35.2299 32.22C35.6334 31.9359 35.9097 31.5052 35.9999 31.02C35.9378 31.3967 35.9901 31.7833 36.1499 32.13C36.5598 32.9062 36.727 33.7876 36.6299 34.66C36.4396 35.4944 36.0002 36.2512 35.3699 36.83C35.3006 36.9051 35.2472 36.9934 35.2129 37.0896C35.1785 37.1858 35.1639 37.288 35.1699 37.39H33.7999C33.7999 37.39 33.5199 37.39 33.5199 37.19C33.5199 36.99 33.6699 36.99 33.7999 36.99C34.1365 37.0175 34.4754 36.9836 34.7999 36.89L34.7899 36.88ZM27.8699 37.19C26.8097 36.6141 25.9198 35.7691 25.2899 34.74L25.1399 34.54C25.2143 34.5778 25.2965 34.5975 25.3799 34.5975C25.4633 34.5975 25.5455 34.5778 25.6199 34.54L25.6999 34.69C26.3178 35.6062 27.1305 36.3745 28.0799 36.94L27.8799 37.19H27.8699ZM28.8799 37.19C29.5362 37.3905 30.2041 37.5508 30.8799 37.67C31.2734 37.7322 31.6716 37.7589 32.0699 37.75V37.95C32.043 37.9757 32.022 38.0068 32.0082 38.0413C31.9944 38.0758 31.9882 38.1129 31.9899 38.15C31.5684 38.1609 31.1467 38.1341 30.7299 38.07C29.9972 37.9781 29.2806 37.7863 28.5999 37.5L28.8999 37.17L28.8799 37.19ZM33.7299 37.57H34.4899C34.6949 37.5652 34.8943 37.6365 35.0499 37.77C35.0514 37.8595 35.0344 37.9483 35 38.0309C34.9656 38.1135 34.9145 38.1881 34.8499 38.25C34.6999 38.33 34.5699 38.33 34.4999 38.25C34.2127 38.109 33.9354 37.9486 33.6699 37.77C33.6199 37.72 33.5399 37.49 33.7499 37.57H33.7299ZM33.1199 37.92C33.2539 37.8567 33.4021 37.8292 33.5499 37.84C33.8276 37.9911 34.0833 38.1795 34.3099 38.4C34.3899 38.55 34.3099 38.6 34.1599 38.68C34.0804 38.7418 33.9801 38.7705 33.8799 38.76C33.7482 38.7571 33.6228 38.7033 33.5299 38.61C33.4499 38.53 33.1799 38.18 33.0999 38.13C33.1136 38.064 33.1136 37.996 33.0999 37.93L33.1199 37.92ZM32.9999 38.3C33.0799 38.38 33.3499 38.73 33.3499 38.73C33.3499 38.73 33.3499 38.81 33.2699 38.88H33.1899C32.9393 38.88 32.6936 38.8108 32.4799 38.68C32.2799 38.53 32.0499 38.2 32.2799 38.12C32.3366 38.0795 32.4015 38.0519 32.47 38.039C32.5385 38.0262 32.609 38.0284 32.6766 38.0455C32.7442 38.0626 32.8072 38.0943 32.8613 38.1382C32.9154 38.1822 32.9593 38.2374 32.9899 38.3H32.9999ZM32.8399 37.39C32.9053 37.3523 32.9794 37.3324 33.0549 37.3324C33.1304 37.3324 33.2045 37.3523 33.2699 37.39C33.3499 37.54 33.2699 37.67 33.0699 37.74C32.9577 37.8103 32.8309 37.8541 32.6992 37.8679C32.5675 37.8818 32.4343 37.8654 32.3099 37.82C32.2099 37.74 32.3599 37.52 32.8399 37.39Z" fill="white"/>
<path d="M95.67 15.1901C95.47 13.2901 94.56 12.3301 92.46 12.3301H89.81L89.46 23.0501H91.46C91.46 23.0501 91.66 18.0501 91.66 17.8701H94.11C94.11 18.0701 94.54 23.0501 94.54 23.0501H96.54C96.46 22.9701 95.76 15.6201 95.68 15.1901H95.67ZM91.68 16.0501C91.68 15.8501 91.76 14.3101 91.76 14.0501H92.11C93.5 14.0501 93.78 14.3301 93.93 16.0501H91.68ZM72.08 29.9101C71.88 28.0101 70.97 27.0501 68.87 27.0501H66.22L65.87 37.7701H67.87C67.87 37.7701 68.07 32.7701 68.07 32.5901H70.52C70.52 32.7901 70.95 37.7701 70.95 37.7701H72.95C72.87 37.6701 72.17 30.3101 72.09 29.9101H72.08ZM68.09 30.7401C68.09 30.5401 68.17 29.0001 68.17 28.7401H68.52C69.91 28.7401 70.19 29.0201 70.34 30.7401H68.09ZM57.52 12.3301V23.0301H59.52V14.0301H61.9V23.0301H63.9V12.3301H57.52ZM78.33 16.0501H77.27C76.915 16.0654 76.565 15.9673 76.27 15.7701C76.201 15.695 76.147 15.6067 76.113 15.5105C76.079 15.4142 76.064 15.3121 76.07 15.2101V12.3301H74.07V15.4101C74.059 15.7455 74.128 16.0786 74.272 16.3815C74.417 16.6844 74.632 16.948 74.9 17.1501C75.458 17.6225 76.169 17.875 76.9 17.8601H78.29V23.0401H80.29V12.3301H78.29V16.0501H78.33ZM82.44 12.3301V14.0701H84.06V23.0701H86.06V14.0701H87.68V12.3301H82.44ZM79.56 26.9401V30.3801H76.83V26.9501H74.88V37.6701H76.83V32.2101H79.56V37.6701H81.56V26.9501L79.56 26.9401ZM60.4 30.5001H59.49V28.7901H63V27.0501H57.54V37.7701H60.54C61.012 37.7766 61.479 37.6855 61.914 37.5025C62.349 37.3194 62.741 37.0485 63.066 36.7067C63.391 36.3648 63.642 35.9594 63.802 35.516C63.963 35.0726 64.03 34.6008 64 34.1301C63.92 32.9201 63.52 30.5401 60.43 30.5401L60.4 30.5001ZM60.15 36.0501C59.95 36.0501 59.44 35.9701 59.44 35.9701V32.2101H59.79C60.79 32.2101 61.96 32.1301 61.96 34.1101C61.96 35.9301 60.7 36.0601 60.14 36.0601L60.15 36.0501ZM72.66 17.3001C72.674 16.1157 72.432 14.9422 71.95 13.8601C71.73 13.3182 71.352 12.8549 70.865 12.5304C70.378 12.2059 69.805 12.0351 69.22 12.0401H69.14C68.557 12.0456 67.989 12.2206 67.504 12.5438C67.019 12.867 66.639 13.3244 66.41 13.8601C65.933 14.9437 65.691 16.1161 65.7 17.3001V17.6501C65.675 18.5234 65.793 19.395 66.05 20.2301C66.61 22.4001 67.79 23.1601 69.13 23.2301H69.21C70.55 23.2301 71.74 22.4701 72.29 20.2301C72.506 19.3864 72.623 18.5207 72.64 17.6501V17.3001H72.66ZM67.64 17.6501C67.64 14.7901 68.35 13.8101 69.11 13.8101C69.87 13.8101 70.58 14.8101 70.58 17.6501C70.58 20.4901 69.87 21.4201 69.11 21.4201C68.35 21.4201 67.72 20.4201 67.64 17.6501ZM91.23 37.6501L88.85 31.3501C89.415 30.9215 89.82 30.3159 90 29.6301C90.15 28.9201 90.35 26.9801 90.35 26.9801H88.35C88.35 27.1801 88.27 27.8101 88.2 28.5201C88.12 29.5801 87.77 30.5201 86.81 30.5201H86.1V27.0001H84.1V37.6701H86.1V32.2101H87.29L89.29 37.6701L91.23 37.6501Z" fill="white"/>
</svg>
