<svg width="180" height="44" viewBox="0 0 180 44" fill="none" xmlns="http://www.w3.org/2000/svg">
<path d="M48.1184 20.3659L48.7625 18.3431L46.6675 18.4094C45.6863 18.3732 44.7411 18.0421 43.9465 17.4582H44.2294C45.5057 17.4522 46.6736 16.7237 47.2394 15.5799L48.1605 13.6114C47.4381 13.6174 46.7157 13.5752 45.9993 13.4849C45.313 13.3224 44.699 12.9492 44.2354 12.4194C43.6093 11.7512 42.7425 11.3719 41.8274 11.3659C41.4722 11.3659 41.117 11.4261 40.7739 11.5344C40.8221 11.3719 40.8642 11.2094 40.8943 11.0408C41.0388 9.8669 40.7077 8.6809 39.9792 7.74782L38.3899 5.7913L37.4147 8.0789C37.2582 8.404 37.0234 8.687 36.7224 8.8916C36.5538 8.0729 36.1565 7.32642 35.5665 6.73645C34.5793 5.72508 33.2247 5.1592 31.81 5.17124C31.5632 5.17124 31.3164 5.1893 31.0756 5.22542L29.1732 5.59866C29.3358 4.96053 29.5946 4.35251 29.9438 3.79264L30.9913 2.1612L28.3545 2.40803L27.5117 0.60201L25.8863 1.48696L24.3813 0L22.8762 1.48696L21.2508 0.64415L20.408 2.40803L17.7712 2.10702L18.8187 3.74448C19.1679 4.30435 19.4267 4.91237 19.5893 5.5505L17.7833 5.19532H17.7231C17.4702 5.1592 17.2174 5.14114 16.9645 5.14114C15.5498 5.1291 14.1953 5.69498 13.208 6.70635C12.612 7.30234 12.2027 8.0609 12.0401 8.8916C11.7512 8.693 11.5164 8.4221 11.3599 8.103L10.3786 5.79732L8.7773 7.75986C8.0609 8.693 7.7418 9.8729 7.8803 11.0408C7.9104 11.2094 7.9525 11.3719 8.0007 11.5344C7.6575 11.4261 7.3023 11.3659 6.9472 11.3659C6.0321 11.3719 5.1652 11.7512 4.5391 12.4194C4.0816 12.9431 3.4736 13.3164 2.7933 13.4849C2.0709 13.5933 1.3365 13.6354 0.602 13.6114L1.499 15.61C2.0649 16.7538 3.2328 17.4823 4.509 17.4883H4.792C4.0094 18.0602 3.0763 18.3913 2.107 18.4334L0 18.3431L0.6441 20.3659C1.1258 21.9492 2.4923 23.111 4.1358 23.3217C3.9672 24.3873 3.293 25.3084 2.3298 25.79L0.7164 26.4461L1.5833 27.9572C2.2997 29.0709 3.5338 29.7331 4.8522 29.7211C5.1953 29.7211 5.5385 29.6849 5.8756 29.6127C5.9599 29.9799 6.0682 30.3471 6.1886 30.7023C6.4896 31.497 6.5077 32.3639 6.2488 33.1706L5.4662 34.814L7.2181 35.2776C7.6094 35.3799 8.0187 35.4281 8.4221 35.4281C8.711 35.4281 8.994 35.398 9.2769 35.3318C9.4816 35.2836 9.6863 35.2234 9.8789 35.1451C10.1017 35.5485 10.3846 35.9217 10.7037 36.2528C11.8234 37.4027 13.4127 37.9866 15.4294 37.9866H16.8682L13.9003 39.2207L16.1518 40.3344C17.0609 40.7799 17.988 41.1833 18.9331 41.5384L18.6622 42.3211L19.4388 42.6762C20.7271 43.1819 22.0936 43.4649 23.4783 43.513H25.3264C26.705 43.4649 28.0655 43.1759 29.3478 42.6702L30.1003 42.3211L29.8354 41.5384C30.7926 41.1712 31.7318 40.7558 32.6468 40.2923L34.8562 39.2207L31.8943 38.0167H33.3391C35.3558 38.0167 36.9512 37.4147 38.0649 36.2829C38.3899 35.9518 38.6669 35.5786 38.8896 35.1752C39.0823 35.2535 39.2869 35.3137 39.4916 35.3619C39.7746 35.4281 40.0575 35.4582 40.3465 35.4582C40.7498 35.4582 41.1592 35.404 41.5505 35.3077L43.3083 34.8441L42.5438 33.2308C42.2548 32.412 42.2669 31.515 42.5739 30.7023C42.7003 30.3351 42.8027 29.9619 42.8869 29.5886C43.2241 29.6609 43.5732 29.697 43.9164 29.697C45.2468 29.709 46.4869 29.0227 47.1913 27.891L48.0461 26.398L46.4568 25.7478C45.4936 25.2662 44.8194 24.3451 44.6508 23.2796C46.2943 23.0629 47.6609 21.907 48.1425 20.3177L48.1184 20.3659Z" fill="white"/>
<path d="M31.6174 26.7592H17.1692V32.1772C17.1692 34.4047 18.7766 35.7893 21.1545 35.7893C23.1411 35.7893 23.6649 35.8675 24.3993 36.602C24.8629 36.1023 25.519 35.8194 26.2053 35.8314V35.7471L26.6629 34.3384L25.8863 33.4896C25.5732 33.5859 25.2481 33.6221 24.9231 33.604C24.4354 33.598 23.9538 33.5498 23.4782 33.4535H23.3277C23.2615 33.4535 23.2615 33.4535 23.2435 33.4896L23.1532 33.6401L22.9906 33.911L22.6776 33.8388L21.2869 33.5137L21.0943 33.8267V33.8629L21.2629 34.0495L21.1906 34.2903C21.0642 34.5853 20.8836 34.8501 20.6548 35.0789L20.3057 35.4522L19.9866 35.0548L19.7518 34.7598C19.499 34.4287 19.4388 33.9953 19.5833 33.604L19.192 33.7665L19.0174 33.3813L18.9211 33.1103C18.6742 32.5384 18.8608 31.8762 19.3605 31.515L20.4802 30.913L21.5458 31.1237C21.5458 31.0214 21.612 30.6542 21.6421 30.5639H21.5819L20.9799 30.7926L20.3779 30.3833C20.2575 30.2629 20.2515 30.0642 20.3779 29.9378L20.9498 29.0709L19.499 27.2649L21.6722 28.1197L21.8227 27.9391L22.1237 27.5779L22.4669 27.903C22.5572 27.9933 22.6174 28.1017 22.6475 28.2281C23.2495 28.4689 24.3632 29.1732 24.4535 30.317L24.1103 30.4555C24.1525 30.5157 24.2067 30.5639 24.2729 30.594L25.8622 30.7505L26.0067 30.7083C26.2776 30.606 26.5665 30.5518 26.8555 30.5458C27.1445 30.5458 27.4274 30.612 27.6863 30.7384C27.8006 30.6963 27.9271 30.6722 28.0475 30.6662H28.1257C28.9746 30.6662 29.402 31.3043 29.7391 31.81L29.9137 32.0629C30.2087 32.4843 30.6 33.0983 30.618 33.1224L30.7926 33.3933L30.5759 33.6461C30.3772 33.911 30.0642 34.0615 29.7331 34.0615C29.6368 34.0675 29.5404 34.0675 29.4441 34.0615C29.3598 34.0435 29.2756 34.0194 29.1913 33.9833C29.1913 34.0675 29.1913 34.1699 29.1431 34.2542L28.8963 35.6749C30.5338 35.3438 31.6896 33.8749 31.6234 32.2013L31.6174 26.7592ZM17.1512 26.3197H28.4027C27.9451 25.8381 27.7886 25.1458 27.9933 24.5137C27.8428 24.4415 27.6983 24.3451 27.5719 24.2368C27.1324 24.5619 25.7659 25.5371 25.4408 25.7839L25.3686 25.8321L20.9498 25.0495H20.8595C20.715 25.0555 20.5706 25.0555 20.4261 25.0495C20.3839 25.2481 20.2094 25.3866 20.0107 25.3866H19.9385C19.7037 25.3445 19.5411 25.1217 19.5773 24.8869V24.7906C19.0053 24.3813 18.7344 23.6709 18.8849 22.9846V22.9063L18.9512 22.8582C18.9512 22.8582 19.0354 22.798 19.1498 22.7318L18.8308 22.6836C18.7104 22.6595 18.6321 22.5512 18.6502 22.4308C18.6682 22.3104 18.7766 22.2321 18.897 22.2502H18.903L19.6676 22.3706L19.7398 19.6796L20.8776 18.4756L21.588 19.9685L20.8415 22.5572L21.5157 22.6655C21.6361 22.6896 21.7144 22.798 21.6963 22.9184C21.6783 23.0267 21.588 23.099 21.4796 23.099H21.4435L20.8956 23.0087V23.0508C20.9558 23.1592 21.0462 23.2435 21.1605 23.2976L24.5257 23.3518L25.3866 22.503C24.7304 22.2742 24.2609 21.6963 24.1826 21.004C23.7612 20.8415 23.4181 20.5284 23.2254 20.1251C23.0629 19.7458 23.0328 19.3184 23.1472 18.9211C22.6174 18.7104 22.1358 18.3913 21.7445 17.9819H16.7478C16.9886 18.5719 17.1271 19.198 17.1512 19.8301V26.3197Z" fill="#FCE527"/>
<path d="M55.9866 21.672H60.9471V30.1001H64.5591V21.672H69.5197V18.6138H55.9866V21.672ZM74.2876 25.2841V18.662H70.796V30.1001H73.8783L79.8983 23.4058V30.1001H83.39V18.6138H80.3077L74.2876 25.2841ZM95.0151 22.876H89.404V18.662H85.9123V30.1001H89.404V25.8138H95.0151V30.1001H98.5061V18.662H95.0151V22.876ZM110.685 21.9851C109.86 21.7322 108.993 21.6299 108.132 21.672H104.52V18.662H101.029V30.1001L108.108 30.052C108.849 30.064 109.583 29.9797 110.3 29.7871C112.118 29.3416 113.37 27.6861 113.31 25.8138C113.382 24.0981 112.316 22.5329 110.685 21.9851ZM108.903 27.1623C108.463 27.3128 107.994 27.373 107.53 27.3309H104.52V24.4172H107.53C107.982 24.3871 108.439 24.4413 108.879 24.5617C109.433 24.7242 109.806 25.2359 109.794 25.8138C109.8 26.4038 109.451 26.9396 108.903 27.1623ZM127.938 18.662H123.556L119.342 22.9724H118.379V18.662H114.887V30.1001H118.379V25.7657H119.342L123.508 30.1001H128.155L122.352 24.0801L127.938 18.662Z" fill="#222220"/>
<path d="M135.452 18.3011C130.732 18.3011 127.914 20.9499 127.914 24.3693C127.914 27.7887 130.756 30.4375 135.427 30.4375C140.099 30.4375 142.916 27.7887 142.916 24.3693C142.916 20.9499 140.171 18.3011 135.452 18.3011ZM135.427 27.6442C133.092 27.6442 131.599 26.2476 131.599 24.3693C131.599 22.4911 133.116 21.1185 135.427 21.1185C137.739 21.1185 139.256 22.4911 139.256 24.3693C139.256 26.2476 137.763 27.6442 135.427 27.6442ZM154.421 19.1198V17.964H150.929V19.1198C146.546 19.2161 143.922 21.0703 143.922 24.3452C143.922 27.6202 146.546 29.3299 150.929 29.4262V30.582H154.421V29.4262C158.827 29.3299 161.452 27.6202 161.452 24.3452C161.452 21.0703 158.833 19.2161 154.421 19.1198ZM150.929 26.97C148.521 26.8737 147.461 25.8864 147.461 24.3452C147.461 22.8041 148.521 21.6964 150.929 21.6001V26.97ZM154.421 26.97V21.6001C156.853 21.6964 157.888 22.8041 157.888 24.3452H157.894C157.894 25.8864 156.859 26.8737 154.421 26.97ZM172.968 19.1198V17.964H169.477V19.1198C165.094 19.2161 162.469 21.0703 162.469 24.3452C162.469 27.6202 165.094 29.3299 169.477 29.4262V30.582H172.968V29.4262C177.375 29.3299 180 27.6202 180 24.3452C180 21.0703 177.375 19.2161 172.968 19.1198ZM169.477 26.97C167.069 26.8737 166.009 25.8864 166.009 24.3452C166.009 22.8041 167.069 21.6964 169.477 21.6001V26.97ZM176.43 24.3452C176.43 25.8864 175.401 26.8737 172.968 26.97V21.6001C175.401 21.6964 176.436 22.8041 176.436 24.3452H176.43ZM21.7686 29.1252C21.6963 29.1252 21.6301 29.1794 21.6241 29.2516V29.2576C21.6181 29.3359 21.6783 29.4081 21.7565 29.4141H21.7625C21.8468 29.4141 21.9069 29.3479 21.9069 29.2697C21.9069 29.1854 21.8468 29.1252 21.7686 29.1252ZM21.7626 29.1191C21.7686 29.1191 21.7686 29.1252 21.7686 29.1252C21.7746 29.1252 21.7745 29.1191 21.7806 29.1191H21.7626ZM31.5993 38.9921L30.7685 38.673L30.9972 37.8121L31.25 36.873C30.1122 37.4569 28.9203 37.9265 27.6922 38.2757C27.0902 38.4442 26.6567 38.5225 26.6567 38.5225V39.1305C25.9163 39.2509 25.1699 39.3171 24.4174 39.3232H24.3511C23.5986 39.3171 22.852 39.2509 22.1116 39.1305V38.5285C22.1116 38.5285 21.6722 38.4442 21.0702 38.2757C19.8421 37.9265 18.6501 37.4569 17.5123 36.873L17.7591 37.8121L17.9939 38.673L17.1572 38.9921L16.2542 39.3352C17.4943 39.9793 18.7885 40.5151 20.125 40.9365L19.806 41.8034C21.2568 42.3573 22.81 42.6282 24.3632 42.5921H24.3993C25.9524 42.6282 27.5057 42.3573 28.9565 41.8034L28.6433 40.9365C29.9738 40.5151 31.2682 39.9793 32.5083 39.3352L31.5993 38.9921ZM17.2595 39.3894L18.608 38.9379L18.2047 37.6135C19.0896 38.0529 20.0047 38.4202 20.9498 38.7091L20.2875 40.5151C19.246 40.2382 18.2287 39.859 17.2595 39.3894ZM24.4174 42.1646L24.3872 42.1406C23.0627 42.1345 21.7444 41.9539 20.4682 41.6048L21.2808 39.4014C22.2922 39.6543 23.3336 39.7927 24.3811 39.7987H24.4474C25.4949 39.7867 26.5363 39.6543 27.5477 39.4014L28.3605 41.6048C27.0782 41.966 25.7478 42.1526 24.4174 42.1646ZM28.5229 40.5513V40.5332L27.8608 38.7272C28.806 38.4382 29.7209 38.071 30.6059 37.6315L30.2025 38.9559L31.5691 39.4135C30.5938 39.8891 29.5704 40.2743 28.5229 40.5513ZM24.3811 4.62955C25.7416 4.59343 27.0781 5.00279 28.1857 5.79142C28.3603 4.90045 28.6914 4.0456 29.167 3.26901L27.8005 3.42553L27.0901 1.90246L25.7116 2.61283L24.3811 1.29443L23.0507 2.61283L21.6721 1.90246L20.9618 3.42553L19.5951 3.26901C20.0707 4.0456 20.4019 4.90045 20.5765 5.79142C21.6842 5.00279 23.0205 4.59343 24.3811 4.62955ZM20.9016 3.9553L21.2808 3.99744L21.4433 3.6543L21.919 2.63089L22.8039 3.08841L23.147 3.26299L23.424 3.01015L24.3811 2.04092L25.3384 3.01015L25.6152 3.28105L25.9584 3.10647L26.8373 2.64895L27.319 3.67236L27.4814 4.0155L27.8608 3.97336L28.222 3.93122C28.0775 4.26232 27.9511 4.60547 27.8487 4.95463C25.6755 3.84092 23.0928 3.84092 20.9195 4.95463C20.8172 4.60547 20.6909 4.26232 20.5464 3.93122L20.9016 3.9553ZM42.2368 17.0549L42.0742 16.8563C40.9545 15.4295 39.8888 14.075 37.9865 13.4549C38.0648 13.3887 38.1431 13.3285 38.2274 13.2743C39.1304 12.7626 39.7685 11.8837 39.9732 10.8663C40.0756 9.94522 39.8167 9.02422 39.2508 8.28972L38.6488 7.53724L38.2695 8.43422C38.2695 8.48842 37.6012 9.92722 36.2528 9.92722H35.8554C35.9277 8.98202 35.5846 8.04892 34.9164 7.3747C34.1037 6.54393 32.9839 6.08039 31.8221 6.08641C31.6053 6.08641 31.3885 6.10447 31.1778 6.13457L30.2568 6.31517L30.8287 7.06768C31.2742 7.66968 31.6776 8.71112 31.202 9.27102C30.9732 9.46972 30.7144 9.62622 30.4314 9.73452C29.8294 10.0175 28.9625 10.4208 28.9625 11.4322C28.9625 12.0884 29.4742 12.7747 30.3953 13.3586C33.1103 15.0804 34.7898 16.8563 35.5183 18.8549C36.644 21.9011 35.1752 23.6349 33.7485 24.5499L33.1102 24.9593L33.6702 25.471C34.1699 25.8984 34.7839 26.1633 35.4401 26.2295H35.9879C36.5478 26.2295 37.1017 26.1513 37.6374 25.9887C37.505 26.2235 37.3425 26.4462 37.1679 26.6509C36.3552 27.5961 35.151 28.1138 33.9049 28.0476H33.3692L33.327 28.5834C33.321 29.3359 33.6521 30.0462 34.224 30.5339C34.3745 30.6663 34.5431 30.7747 34.7237 30.8589C33.8328 31.7258 33.327 32.9118 33.3089 34.1579C33.3089 34.8382 33.1524 35.5125 32.8574 36.1265L32.2555 37.0295H33.327C35.0969 37.0295 36.4514 36.5419 37.3905 35.5727C37.8781 35.061 38.2394 34.4409 38.4501 33.7666C38.7992 34.0616 39.2087 34.2663 39.6542 34.3686C39.8649 34.4168 40.0816 34.4409 40.2983 34.4409C40.6234 34.4409 40.9485 34.3987 41.2615 34.3265L41.9478 34.1459L41.6468 33.5078C41.2675 32.4904 41.2675 31.3646 41.6468 30.3472C41.8695 29.685 42.026 28.9987 42.1102 28.3004C42.652 28.5773 43.2542 28.7158 43.8622 28.7098C44.8615 28.7218 45.7945 28.2282 46.3363 27.3914L46.6674 26.7894L46.0654 26.5365C44.0487 25.6998 43.6033 23.4483 43.513 22.2322C43.7117 22.2743 43.9103 22.2984 44.115 22.3044L44.2836 22.4188C46.4748 22.4188 47.2092 20.1854 47.2393 20.0891L47.4863 19.3004H46.6614C44.9276 19.2402 43.3083 18.4215 42.2368 17.0549ZM44.2896 21.8108H44.2052C43.7659 21.8168 43.3324 21.6964 42.9592 21.4677C42.9592 21.4677 42.64 25.8202 45.8848 27.1687V27.1867C45.4574 27.8369 44.723 28.2222 43.9464 28.2101C43.0674 28.2643 42.2187 27.8911 41.6649 27.2108C41.6829 28.2342 41.5144 29.2576 41.1712 30.2208C40.7316 31.3827 40.7316 32.671 41.1712 33.8329C40.9002 33.8991 40.6294 33.9352 40.3525 33.9352C40.1839 33.9352 40.0093 33.9171 39.8468 33.875C39.0461 33.6824 38.408 33.0924 38.1491 32.3158C38.1491 32.3158 38.2756 36.4937 33.4053 36.4937H33.3692C33.7364 35.7954 33.9291 35.0188 33.923 34.2302C34.1337 31.1419 36.2286 30.7024 36.2286 30.7024C35.6507 30.6302 35.1029 30.4255 34.6213 30.1004C34.1818 29.7332 33.9291 29.1914 33.917 28.6195C35.3256 28.6797 36.6863 28.0957 37.6073 27.0242C38.1611 26.3921 38.5283 25.6215 38.6848 24.7967C37.9082 25.3807 36.951 25.6757 35.9818 25.6335H35.4883C34.9645 25.5794 34.4649 25.3747 34.0615 25.0315C35.9157 23.8275 37.216 21.7687 36.0662 18.6442C35.1391 16.1399 32.9177 14.2677 30.6842 12.859C29.9438 12.4014 29.4982 11.8837 29.4982 11.4382C29.4982 10.3907 30.9853 10.3606 31.5993 9.63222C32.3036 8.81352 31.8641 7.48908 31.25 6.69443C31.4246 6.66433 31.6053 6.65229 31.7799 6.65229C32.7852 6.64025 33.7545 7.0436 34.4528 7.766C35.1632 8.44022 35.4341 9.45762 35.1632 10.3968L35.4883 10.463C35.6869 10.4991 35.8856 10.5172 36.0903 10.5232H36.2226C37.9865 10.5232 38.7812 8.67502 38.7812 8.67502C38.7812 8.67502 40.6595 10.9867 37.8963 12.7927C37.4207 13.0998 37.21 13.3947 37.2943 13.6957L37.3363 13.8944L37.535 13.9305C39.5397 14.4723 40.5451 15.857 41.7913 17.4282C42.9712 18.9272 44.7531 19.8302 46.6614 19.8964H46.6976C46.6976 19.8964 46.0956 21.8108 44.2896 21.8108Z" fill="#222220"/>
<path d="M40.4246 13.7256C41.0988 14.1109 41.6828 14.6347 42.1403 15.2608C42.4835 15.7905 42.9711 16.2119 43.549 16.4648C43.7657 16.537 44.0005 16.5731 44.2293 16.5731C45.1503 16.5731 45.9932 16.0494 46.4146 15.2307L46.7637 14.4481L45.9149 14.3999C44.9998 14.2313 44.1751 13.7618 43.5671 13.0574C43.1156 12.5698 42.4835 12.2868 41.8152 12.2808C41.2975 12.2868 40.7978 12.4434 40.3644 12.7203L39.5818 13.2681L40.4246 13.7256ZM41.8333 12.8648L41.8152 12.8708C42.3269 12.8708 42.8085 13.0935 43.1517 13.4728C43.856 14.2795 44.8192 14.8153 45.8788 14.9899C45.5537 15.5979 44.9216 15.9771 44.2293 15.9832C44.0607 15.9832 43.8922 15.9531 43.7296 15.8989C42.7544 15.5678 42.4112 14.0929 40.7196 13.2019C41.0507 12.9852 41.436 12.8708 41.8333 12.8648ZM40.8219 21.4855L40.8099 21.4735C40.3163 17.5002 37.4326 14.6287 34.224 12.8889C33.929 12.7263 33.652 12.5939 33.3872 12.4675C34.7116 12.7384 36.0902 12.4133 37.1557 11.5825C37.1557 11.5825 35.2955 12.9491 31.4908 11.7089C32.5444 12.3952 34.5912 13.3584 36.4634 14.9236C41.135 19.0293 37.7939 23.0387 37.7939 23.0387C39.1905 21.7143 39.6781 19.6915 39.052 17.8735C40.0393 19.5169 40.5149 21.4193 40.4126 23.3337C40.2801 26.4882 38.5283 29.2454 36.7223 31.4427C36.1805 32.135 35.8072 32.9477 35.6507 33.8146C35.9577 32.9537 36.4213 32.1591 37.0233 31.4728C38.9798 29.1792 40.6353 26.8012 40.8701 23.3758C41.0748 23.9778 41.9056 25.7297 43.23 26.3858C43.23 26.3858 41.5684 25.3865 40.8219 21.4855ZM15.8989 36.1685C15.6099 35.5544 15.4534 34.8802 15.4474 34.1999C15.4293 32.9537 14.9176 31.7678 14.0266 30.9009C14.2072 30.8166 14.3758 30.7083 14.5263 30.5758C15.0982 30.0882 15.4293 29.3778 15.4233 28.6253L15.3872 28.0895H14.8453C13.6052 28.1497 12.4012 27.638 11.5885 26.6929C11.4139 26.4882 11.2574 26.2654 11.1189 26.0307C11.6547 26.1932 12.2086 26.2715 12.7684 26.2715H13.3163C13.9724 26.2052 14.5925 25.9404 15.0922 25.5129L15.652 25.0012L15.0139 24.5919C13.5811 23.6768 12.1183 21.943 13.244 18.8969C13.9724 16.9163 15.652 15.1283 18.3912 13.4066C19.3122 12.8046 19.8179 12.1364 19.8179 11.4802C19.8179 10.4688 18.9691 10.0655 18.349 9.78249C18.0661 9.67409 17.8072 9.51759 17.5785 9.31899C17.0969 8.75909 17.5002 7.69354 17.9517 7.11561L18.5537 6.3631L17.6266 6.1825C17.4159 6.14638 17.1992 6.13434 16.9825 6.13434C15.8086 6.09822 14.6768 6.54973 13.846 7.37447C13.1658 8.04269 12.8106 8.98179 12.8768 9.93299H12.5156C11.1611 9.93299 10.5229 8.50019 10.4989 8.43999L10.1196 7.54304L9.51762 8.29559C8.95772 9.02999 8.69892 9.95109 8.80122 10.8721C9.00592 11.8895 9.63802 12.7685 10.541 13.2802C10.6253 13.3343 10.7096 13.3945 10.7818 13.4608C8.87952 14.0628 7.81392 15.4354 6.69422 16.8621L6.53162 17.0668C5.46012 18.4333 3.83472 19.2521 2.10092 19.3123H1.27612L1.52902 20.1009C1.52902 20.1972 2.28752 22.4307 4.48482 22.4307H4.59322C4.79792 22.4246 4.99652 22.4006 5.19522 22.3584C5.10492 23.5624 4.65942 25.826 2.63672 26.6628L2.03472 26.9156L2.36582 27.5176C2.90762 28.3544 3.84072 28.8481 4.84002 28.836C5.44802 28.842 6.04402 28.7036 6.58582 28.4267C6.67012 29.125 6.82662 29.8113 7.04942 30.4735C7.42862 31.4909 7.42862 32.6166 7.04942 33.634L6.74842 34.2721L7.43462 34.4527C7.74772 34.525 8.07282 34.5671 8.39792 34.5671C8.61462 34.5671 8.83132 34.543 9.04202 34.4949C9.48752 34.3925 9.89692 34.1879 10.246 33.8929C10.4567 34.5671 10.8179 35.1872 11.3056 35.6989C12.2507 36.6681 13.6052 37.1497 15.3691 37.1557H16.4407L15.8989 36.1685ZM15.3811 36.5056C10.5109 36.5056 10.6313 32.3277 10.6313 32.3277C10.3724 33.1042 9.73432 33.6942 8.93362 33.8869C8.77112 33.929 8.59652 33.9471 8.42802 33.9471C8.15102 33.9471 7.88012 33.9109 7.61532 33.8447C8.05472 32.6828 8.05472 31.3945 7.61532 30.2327C7.27212 29.2695 7.10962 28.2461 7.12762 27.2226C6.57382 27.9029 5.72502 28.2762 4.84602 28.222H4.81592C4.03332 28.234 3.29892 27.8427 2.87142 27.1925C6.11632 25.844 5.79722 21.4915 5.79722 21.4915C5.42392 21.7203 4.99052 21.8407 4.55102 21.8347H4.48482C2.67882 21.8347 2.07682 19.9203 2.07682 19.9203H2.11292C4.02132 19.8601 5.80922 18.9571 6.98922 17.4581C8.22932 15.8869 9.24072 14.5022 11.2454 13.9604L11.444 13.9243L11.4862 13.7257C11.5403 13.4186 11.3296 13.1236 10.8841 12.8226C8.12092 11.0166 9.99922 8.70489 9.99922 8.70489C9.99922 8.70489 10.7818 10.5531 12.5577 10.5531H12.642C12.8467 10.5471 13.0453 10.529 13.244 10.4929L13.5691 10.4267C13.2922 9.48749 13.5691 8.47009 14.2795 7.79588C14.9778 7.07347 15.947 6.67013 16.9524 6.68217C17.127 6.68217 17.3076 6.69421 17.4821 6.72431C16.8801 7.52498 16.4346 8.84939 17.139 9.66209C17.741 10.3665 19.234 10.3966 19.234 11.4681C19.234 11.9136 18.8186 12.4313 18.0781 12.8949C15.8387 14.3036 13.6173 16.1758 12.6962 18.6802C11.5464 21.8046 12.8467 23.8815 14.7009 25.0675C14.2975 25.4046 13.7979 25.6153 13.2741 25.6695H12.7744C11.8052 25.7116 10.848 25.4166 10.0714 24.8327C10.228 25.6574 10.5952 26.428 11.143 27.0601C12.0641 28.1256 13.4306 28.7156 14.8393 28.6554C14.8273 29.2273 14.5744 29.7691 14.135 30.1364C13.6534 30.4614 13.1055 30.6661 12.5276 30.7384C12.5276 30.7384 14.6286 31.1658 14.8574 34.2661C14.8514 35.0547 15.044 35.8313 15.4112 36.5297L15.3811 36.5056Z" fill="#222220"/>
<path d="M4.52704 16.5671H4.53314C4.76184 16.5671 4.99664 16.531 5.21334 16.4588C5.79134 16.2059 6.27894 15.7845 6.62204 15.2547C7.07354 14.6287 7.65754 14.1049 8.33174 13.7196L9.17454 13.2681L8.39194 12.7203C7.95854 12.4434 7.45884 12.2868 6.94714 12.2808C6.27894 12.2868 5.64684 12.5698 5.19534 13.0634C4.59334 13.7618 3.76254 14.2374 2.85354 14.4059L2.00464 14.4481L2.34784 15.2307C2.76924 16.0494 3.60604 16.5611 4.52704 16.5671ZM5.61074 13.4728C5.94784 13.0935 6.42944 12.8708 6.94114 12.8708C7.33244 12.8768 7.71774 12.9972 8.04884 13.2079C6.34514 14.1169 5.98994 15.5738 5.03884 15.9049C4.88224 15.9591 4.71374 15.9892 4.54514 15.9892C3.84684 15.9892 3.20874 15.6039 2.88364 14.9899C3.94314 14.8153 4.90634 14.2795 5.61074 13.4728ZM8.36194 23.3578C8.25964 21.4434 8.72924 19.541 9.72254 17.8976C9.09644 19.7156 9.58404 21.7384 10.9807 23.0628C10.9807 23.0628 7.63354 19.0534 12.3111 14.9477C14.1833 13.3825 16.2242 12.4193 17.2777 11.733C13.473 12.9731 11.6128 11.6066 11.6128 11.6066C12.6783 12.4374 14.0509 12.7624 15.3753 12.4915C15.1104 12.618 14.8335 12.7564 14.5385 12.9129C11.3298 14.6588 8.42824 17.5303 7.95264 21.5036V21.4735C7.20614 25.3745 5.54464 26.3738 5.54464 26.3738C6.86294 25.7236 7.69974 23.9658 7.89844 23.3638C8.12114 26.7952 9.79474 29.1731 11.7512 31.4608C12.3472 32.147 12.8168 32.9417 13.1238 33.8026C12.9613 32.9417 12.588 32.129 12.0402 31.4427C10.2342 29.2454 8.48844 26.4882 8.36194 23.3578ZM23.2795 16.1096C23.4902 15.9049 23.7852 15.8086 24.0802 15.8447V16.9825C24.0742 17.2654 24.0019 17.5363 23.8635 17.7832H25.0013C24.8628 17.5363 24.7906 17.2654 24.7846 16.9825V15.8447C25.0735 15.8086 25.3685 15.9049 25.5792 16.1096V15.321H23.2795V16.1096ZM22.804 10.6494H22.792C22.9666 10.7999 23.1713 10.9203 23.394 10.9925L23.5385 11.0588V10.3123L22.202 9.75244C22.2682 10.1256 22.485 10.4507 22.804 10.6494ZM25.9767 10.6434L25.9707 10.6494C26.2897 10.4507 26.5064 10.1256 26.5727 9.75244L25.2362 10.3123V11.0527L25.3747 10.9865C25.5974 10.9143 25.8021 10.7939 25.9767 10.6434Z" fill="#222220"/>
<path d="M28.3725 7.62736C28.3725 6.5016 26.4762 5.49023 24.3872 5.49023C22.2982 5.49023 20.4019 6.5016 20.4019 7.62736L20.4441 7.90428L21.2808 12.7203L20.4441 13.2079L18.2588 14.4481C18.2588 14.4481 17.7711 14.7009 17.5424 14.8514C16.7176 15.4534 16.5431 16.2601 17.0186 16.6093C17.139 15.7905 17.8554 15.1885 18.6862 15.2126C19.3785 15.2307 20.0227 15.5798 20.414 16.1517C20.5344 16.2962 20.6427 16.4527 20.739 16.6093C20.8655 16.8139 20.9919 16.9945 21.1183 17.1691H15.5437C16.0133 17.9758 16.2842 18.8848 16.3444 19.818V32.2012C16.3444 35.2113 18.6501 36.626 21.1604 36.626C23.0869 36.626 23.3457 36.5357 24.4053 37.5952C25.4648 36.5357 25.7237 36.626 27.6501 36.626C30.1424 36.626 32.4661 35.1992 32.4661 32.2012V19.83C32.5263 18.8969 32.7972 17.9879 33.2668 17.1812H27.632C27.7584 17.0066 27.8849 16.826 28.0113 16.6213C28.1136 16.4648 28.222 16.3083 28.3364 16.1638C28.7337 15.5919 29.3778 15.2427 30.0701 15.2246C30.9009 15.2006 31.6173 15.8026 31.7377 16.6213C32.2193 16.2782 32.0447 15.4173 31.214 14.8634C30.9912 14.7069 30.5036 14.4601 30.5036 14.4601L28.3364 13.1838L27.4996 12.6962L28.3364 7.8802L28.3725 7.62736ZM21.2086 8.18123L24.1464 9.17453V13.7859L21.9852 12.642L21.2086 8.18123ZM16.7477 17.9818H21.8106C22.2019 18.3912 22.6835 18.7163 23.2133 18.921C23.0989 19.3183 23.129 19.7457 23.2915 20.125C23.4842 20.5283 23.8273 20.8414 24.2487 21.0039C24.327 21.6962 24.7966 22.2741 25.4527 22.5029C25.0915 22.8701 24.7364 23.2133 24.5919 23.3517L21.2267 23.2976C21.1123 23.2434 21.022 23.1591 20.9618 23.0507V23.0086L21.5096 23.0989H21.5457C21.6541 23.0989 21.7444 23.0267 21.7625 22.9183C21.7805 22.7979 21.7022 22.6895 21.5818 22.6654L20.9076 22.5571L21.6541 19.9685L20.9437 18.4755L19.8059 19.6795L19.7337 22.3705L18.9691 22.2501C18.8487 22.226 18.7404 22.3042 18.7163 22.4246V22.4307C18.6982 22.5511 18.7765 22.6594 18.8969 22.6835L19.216 22.7317C19.1016 22.7979 19.0233 22.846 19.0173 22.8581L18.9511 22.9062V22.9845C18.8006 23.6708 19.0775 24.3812 19.6434 24.7905V24.8869C19.6073 25.1216 19.7698 25.3444 20.0046 25.3865H20.0768C20.2755 25.3865 20.4501 25.2481 20.4922 25.0494C20.6367 25.0554 20.7752 25.0554 20.9196 25.0494H21.0099L25.4226 25.8501L25.4949 25.8019C25.8441 25.5551 27.1865 24.5979 27.626 24.2547C27.7524 24.3631 27.8969 24.4594 28.0474 24.5317C27.8427 25.1638 27.9992 25.8561 28.4568 26.3377H17.1511V19.83C17.127 19.1979 16.9885 18.5718 16.7477 17.9818ZM27.2467 23.9357C26.7892 24.2728 25.6635 25.0915 25.2541 25.3805L21.2507 24.6822V24.5738C21.317 24.3029 21.3531 24.026 21.3591 23.7491L24.7303 23.8032L24.7966 23.737C24.8507 23.6828 25.9163 22.6534 26.4581 22.0574C26.6026 22.238 26.7711 22.3885 26.9638 22.5089C26.8675 23.0026 26.9698 23.5143 27.2467 23.9357ZM20.5584 23.2133V23.2313C20.6487 23.3999 20.7812 23.5444 20.9437 23.6407C20.9377 23.8875 20.9136 24.1283 20.8715 24.3691C20.8715 24.4233 20.8715 24.4775 20.8293 24.5317V24.6159C20.5524 24.6159 20.2815 24.5738 20.0166 24.4895C19.535 24.2307 19.2641 23.7009 19.3424 23.1591C19.5591 23.0086 19.8059 22.9123 20.0648 22.8761C20.2875 22.8701 20.4862 23.0026 20.5584 23.2133ZM20.1431 22.4126L20.2093 19.8661L20.8113 19.2641L21.1785 20.0287L20.4621 22.5089L20.1431 22.4126ZM27.2166 35.8253H26.6387L27.0902 34.3504C27.1624 34.1457 26.7892 33.8808 26.6327 33.646C26.9999 33.8688 27.3792 34.0674 27.7705 34.248C27.7705 34.2962 27.2166 35.8253 27.2166 35.8253ZM28.7638 34.1758L28.7156 34.1337L28.4026 35.7591C28.2039 35.7591 27.9932 35.8012 27.8006 35.8133L28.1317 34.248C28.228 33.7845 26.9818 33.646 26.3678 32.725C25.9645 33.0621 25.4467 33.2186 24.929 33.1644C24.4715 33.1584 24.02 33.1103 23.5745 33.02C23.4962 33.0139 23.418 33.0139 23.3397 33.02C23.1531 33.0079 22.9725 33.1042 22.8762 33.2668L22.7859 33.4173L21.0701 33.0019L20.6608 33.7123C20.5946 33.8086 20.6066 33.941 20.6909 34.0253L20.8053 34.1517C20.6909 34.3745 20.5464 34.5792 20.3718 34.7537L20.119 34.4407C19.9263 34.1276 19.9444 33.7243 20.1611 33.4293L20.8354 32.2915L22.2742 32.5083L22.0514 31.9965C21.7504 31.3223 22.2079 30.4614 22.2561 29.9678C22.2561 30.1183 22.0996 30.1484 21.9431 30.1484H21.5277C21.4976 30.1424 21.4614 30.1424 21.4313 30.1484L21.04 30.3832L20.733 30.1002C20.6849 30.0099 20.7029 29.9016 20.7752 29.8353L21.4855 29.0347L20.6427 28.0534L21.8467 28.6554L22.2079 28.222C22.3043 28.3183 22.2621 28.5711 22.2621 28.5711C23.135 28.7879 23.7431 29.5825 23.719 30.4855V30.6601C23.8394 30.8527 24.032 30.9852 24.2487 31.0394L25.8802 31.2019C26.2053 31.0996 26.5364 31.0333 26.8735 30.9912C27.1624 30.9912 27.4514 31.0815 27.6922 31.238C27.8066 31.1598 27.9451 31.1116 28.0835 31.1056H28.1377C28.8661 31.1056 29.1731 31.7678 29.5645 32.3096C29.8594 32.725 30.2568 33.3511 30.2568 33.3511C30.1424 33.5196 29.9558 33.622 29.7511 33.622C29.6788 33.628 29.6126 33.628 29.5404 33.622C28.7578 33.4775 28.6434 31.8641 28.1979 31.7377H28.1257C28.0414 31.7377 27.9631 31.7858 27.921 31.8641C28.1257 32.4119 28.0053 32.6347 28.228 33.0681C28.3905 33.327 28.5952 33.5618 28.83 33.7604C28.83 33.7604 28.7999 34.0012 28.7638 34.1758ZM19.9926 32.5986H19.9805L20.0528 32.7852C20.0046 32.9477 19.4507 33.1825 19.4507 33.1825L19.3303 32.9176C19.1738 32.5384 19.2882 32.1049 19.6193 31.8581L20.5283 31.3042L21.4976 31.5089C21.4915 31.7016 21.5517 31.8882 21.6661 32.0447L20.6487 31.8521L20.0467 32.2735C19.9504 32.3578 19.9323 32.4902 19.9926 32.5986ZM31.6354 32.2072C31.7016 33.8808 30.5397 35.3497 28.8962 35.6748L29.1731 34.218C29.1731 34.1337 29.2032 34.0313 29.2153 33.947C29.2996 33.9832 29.3839 34.0072 29.4681 34.0253C29.5645 34.0313 29.6608 34.0313 29.7571 34.0253C30.0882 34.0253 30.4012 33.8748 30.5999 33.6099L30.8166 33.3571L30.636 33.1103C30.636 33.1103 30.2327 32.4721 29.9317 32.0507L29.7631 31.7979C29.426 31.2922 28.9986 30.6541 28.1497 30.6541H28.0715C27.9511 30.6601 27.8247 30.6842 27.7103 30.7263C27.4514 30.5999 27.1685 30.5337 26.8795 30.5337C26.5905 30.5397 26.3016 30.5939 26.0307 30.6962L25.8862 30.7384L24.2969 30.5818C24.2307 30.5517 24.1765 30.5036 24.1344 30.4434L24.4775 30.3049C24.3812 29.1551 23.2735 28.4507 22.6715 28.2159C22.6414 28.0895 22.5812 27.9812 22.4909 27.8909L22.1477 27.5658L21.8467 27.927L21.6962 28.1076L19.4688 27.1925L20.9196 28.9986L20.3477 29.8654C20.2273 29.9858 20.2213 30.1845 20.3477 30.3109L20.9497 30.7203L21.5517 30.4915H21.6119C21.6119 30.5818 21.5457 30.9491 21.5156 31.0514L20.4681 30.8708L19.3484 31.4728C18.8307 31.846 18.6501 32.5323 18.921 33.1103L19.0474 33.3812L19.222 33.7664L19.6133 33.6039C19.4688 33.9952 19.529 34.4287 19.7818 34.7598L20.0166 35.0608L20.3297 35.4581L20.6788 35.0848C20.9076 34.8561 21.0882 34.5912 21.2146 34.2962L21.2869 34.0554L21.1183 33.8688V33.8327L21.3109 33.5196L22.7016 33.8447L23.0146 33.9169L23.1832 33.64L23.2735 33.4895C23.2735 33.4594 23.2735 33.4534 23.3578 33.4534H23.5083C23.9839 33.5497 24.4655 33.5979 24.9471 33.6039C25.2721 33.622 25.5972 33.5858 25.9103 33.4895L26.6808 34.3685L26.2233 35.7771V35.8614C25.537 35.8494 24.8808 36.1323 24.4173 36.632C23.6768 35.8975 23.1531 35.8193 21.1725 35.8193C18.7946 35.8193 17.1872 34.4287 17.1872 32.2072V26.7892H31.6354V32.2072ZM32.0267 17.9818C31.7798 18.5658 31.6474 19.1919 31.6233 19.83V23.8875C31.0996 23.7731 30.7083 23.3277 30.6721 22.7919V22.6052H30.4915C30.1785 22.5812 29.8895 22.4367 29.6728 22.2139C29.4079 21.9069 29.2634 21.5216 29.2574 21.1183C28.9986 21.5397 29.0226 22.0815 29.3237 22.4788C29.5584 22.7738 29.9016 22.9725 30.2748 23.0206C30.3832 23.719 30.943 24.2608 31.6414 24.3511V26.3377H29.1129C28.4507 26.0006 28.1738 25.2119 28.4688 24.5317L28.5651 24.3149L28.3424 24.2307C27.62 23.9778 27.2226 23.2012 27.4514 22.4668L27.4996 22.2862L27.331 22.2079C26.6989 21.8407 26.3497 21.1243 26.4521 20.4019C26.121 20.739 26.0367 21.2507 26.2474 21.6721C26.127 21.8106 25.9705 21.9731 25.7959 22.1537C25.1638 22.0213 24.7063 21.4735 24.6822 20.8293V20.6788L24.5437 20.6246C24.1765 20.5163 23.8755 20.2634 23.7009 19.9263C23.5865 19.6494 23.5624 19.3364 23.6407 19.0474C23.7611 19.0715 23.8815 19.0895 24.0019 19.1016C24.1223 19.1076 24.2487 19.1076 24.3691 19.1016C25.3444 19.1016 26.2715 18.6802 26.9216 17.9578L32.0267 17.9818ZM28.1257 13.8762L29.1129 14.4782L29.3598 14.6226C28.8481 14.7611 28.3845 15.038 28.0173 15.4233L27.9752 15.4594C27.8909 15.5497 27.8126 15.64 27.7344 15.7364L27.6862 15.7966C27.6079 15.8929 27.5357 15.9952 27.4695 16.1036L27.4334 16.1578C27.3491 16.2782 27.2708 16.4106 27.1925 16.543C26.6447 17.6327 25.5792 18.3611 24.3691 18.4815C23.1591 18.3611 22.0936 17.6327 21.5457 16.543C21.4675 16.4106 21.3892 16.2842 21.3109 16.1578L21.2628 16.0915L21.0701 15.7785L21.016 15.7123C20.9377 15.616 20.8594 15.5256 20.7812 15.4414L20.739 15.3992C20.3718 15.0139 19.9083 14.737 19.3966 14.5986L19.6494 14.4541L20.6427 13.8521L21.6601 13.2501L24.3752 14.725L27.0902 13.2982L28.1257 13.8762ZM26.7892 12.6721L24.628 13.8099V9.18053L27.5598 8.18723L26.7892 12.6721ZM24.3812 8.69293L21.1665 7.40461C21.4374 6.75445 22.7016 6.2006 24.3812 6.2006C26.0608 6.2006 27.325 6.75445 27.5959 7.40461L24.3812 8.69293Z" fill="#222220"/>
</svg>
