<svg width="171" height="39" viewBox="0 0 171 39" fill="none" xmlns="http://www.w3.org/2000/svg">
<path d="M39 4.8999H46.9C50.9 4.8999 53.6 8.1999 53.6 11.3999C53.6 14.6999 50.9 17.9999 46.9 17.9999H42V23.2999H39V4.8999ZM46.6 15.1999C49.2 15.1999 50.6 13.1999 50.6 11.3999C50.6 9.4999 49.2 7.5999 46.6 7.5999H42V15.1999H46.6Z" fill="#323E48"/>
<path d="M54.5 16.6001C54.5 12.7001 57.2 9.6001 61.4 9.6001C65.7 9.6001 67.8 13.2001 67.8 16.8001V17.5001H57.5C57.9 19.8001 59.9 21.1001 62.6 21.1001C64.3 21.1001 65.7 20.6001 66.9 19.9001V22.4001C65.8 23.2001 64 23.7001 62 23.7001C57.8 23.7001 54.5 20.9001 54.5 16.6001ZM64.8 15.2001C64.8 13.8001 63.7 12.0001 61.3 12.0001C59 12.0001 57.7 13.6001 57.6 15.2001H64.8Z" fill="#323E48"/>
<path d="M70.4 9.8999H73.4V15.0999H80.2V9.8999H83.2V23.2999H80.2V17.6999H73.4V23.2999H70.4V9.8999Z" fill="#323E48"/>
<path d="M85.7 16.6001C85.7 12.7001 88.4 9.6001 92.6 9.6001C96.9 9.6001 99 13.2001 99 16.8001V17.5001H88.7C89.1 19.8001 91.1 21.1001 93.8 21.1001C95.5 21.1001 96.9 20.6001 98.1 19.9001V22.4001C97 23.2001 95.2 23.7001 93.2 23.7001C89 23.7001 85.7 20.9001 85.7 16.6001ZM96 15.2001C96 13.8001 94.9 12.0001 92.5 12.0001C90.2 12.0001 88.9 13.6001 88.8 15.2001H96Z" fill="#323E48"/>
<path d="M100.7 16.6001C100.7 12.4001 104 9.6001 108 9.6001C109.6 9.6001 110.8 9.9001 112 10.5001V13.0001C110.8 12.4001 109.7 12.1001 108.4 12.1001C105.8 12.1001 103.6 13.9001 103.6 16.6001C103.6 19.3001 105.7 21.1001 108.4 21.1001C109.9 21.1001 111.1 20.8001 112.2 20.1001V22.6001C110.9 23.3001 109.6 23.7001 107.9 23.7001C104 23.7001 100.7 20.8001 100.7 16.6001Z" fill="#323E48"/>
<path d="M113.7 16.6001C113.7 12.4001 117 9.6001 121 9.6001C122.6 9.6001 123.8 9.9001 125 10.5001V13.0001C123.8 12.4001 122.7 12.1001 121.4 12.1001C118.8 12.1001 116.6 13.9001 116.6 16.6001C116.6 19.3001 118.7 21.1001 121.4 21.1001C122.9 21.1001 124.1 20.8001 125.2 20.1001V22.6001C123.9 23.3001 122.6 23.7001 120.9 23.7001C117.1 23.7001 113.7 20.8001 113.7 16.6001Z" fill="#323E48"/>
<path d="M141.6 20.8001V23.0001C141.2 23.3001 140.5 23.4001 139.9 23.4001C138.6 23.4001 137.5 22.8001 137.1 21.5001C136.1 22.6001 134.5 23.6001 132.2 23.6001C129.4 23.6001 127.2 22.0001 127.2 19.1001C127.2 16.1001 129.4 15.2001 132.3 15.2001C134.3 15.2001 136.9 15.2001 136.9 15.2001V15.0001C136.9 12.7001 135 12.1001 133 12.1001C131.4 12.1001 129.8 12.7001 128.8 13.3001V10.7001C129.8 10.2001 131.3 9.6001 133.7 9.6001C137.3 9.6001 139.9 11.3001 139.9 14.7001V19.7001C139.9 20.5001 140.4 21.0001 141 21.0001C141 21.0001 141.3 21.0001 141.6 20.8001ZM136.7 17.5001C136.7 17.5001 134.6 17.5001 133.2 17.5001C131.3 17.5001 130 17.9001 130 19.2001C130 20.7001 131.3 21.2001 132.9 21.2001C134.5 21.2001 136 20.4001 136.7 19.6001V17.5001Z" fill="#323E48"/>
<path d="M143.7 9.8999H146.7V15.0999H153.5V9.8999H156.5V23.2999H153.5V17.6999H146.7V23.2999H143.7V9.8999Z" fill="#323E48"/>
<path d="M159 16.6001C159 12.4001 162.3 9.6001 166.3 9.6001C167.9 9.6001 169.1 9.9001 170.3 10.5001V13.0001C169.1 12.4001 168 12.1001 166.7 12.1001C164.1 12.1001 161.9 13.9001 161.9 16.6001C161.9 19.3001 164 21.1001 166.7 21.1001C168.2 21.1001 169.4 20.8001 170.5 20.1001V22.6001C169.2 23.3001 167.9 23.7001 166.2 23.7001C162.3 23.7001 159 20.8001 159 16.6001Z" fill="#323E48"/>
<path d="M39 30.5H40.4V33.1L42.8 30.5H44.5L41.7 33.5L45 37.1H43.3L40.5 34.1V37.1H39V30.5Z" fill="#323E48"/>
<path d="M46.8 30.5H49.7001C51.1001 30.5 52 31.3 52 32.5C52 33.7 51.1001 34.5 49.7001 34.5H48.2001V37.1H46.8V30.5ZM49.6 33.3C50.2 33.3 50.6 33 50.6 32.5C50.6 32 50.2 31.7 49.6 31.7H48.2001V33.3H49.6Z" fill="#323E48"/>
<path d="M54 30.5H58.8V31.7H55.3V33H58.1V34.2H55.3V35.9H59V37.1H54V30.5Z" fill="#323E48"/>
<path d="M60.8 35.9001H61.4C62 35.0001 62.3 33.8001 62.3 31.6001V30.6001H66.9V36.0001H67.8V38.6001H66.5V37.3001H62V38.6001H60.7V35.9001H60.8ZM65.6 35.9001V31.7001H63.7C63.7 33.1001 63.6 34.5001 63 35.9001H65.6Z" fill="#323E48"/>
<path d="M69.9 30.5H71.3V34.8L74.5 30.5H75.7V37.1H74.4V32.8L71 37.1H69.9V30.5Z" fill="#323E48"/>
<path d="M83.1 30.5V31.7H81V37.1H79.6V31.7H77.5V30.5H83.1Z" fill="#323E48"/>
<path d="M4.3 30.5H0V12C0 5.7 5.2 0.5 11.5 0.5H25.7V11.9C25.7 18.3 20.5 23.4 14.2 23.4H7L8.6 19.1H14.1C18.1 19.1 21.3 15.9 21.3 11.9V4.8H11.4C7.4 4.8 4.2 8 4.2 12V30.5H4.3Z" fill="url(#paint0_radial_1063_40108)"/>
<defs>
<radialGradient id="paint0_radial_1063_40108" cx="0" cy="0" r="1" gradientUnits="userSpaceOnUse" gradientTransform="translate(0.8589 29.2926) scale(24.887 24.887)">
<stop stop-color="#D6005E"/>
<stop offset="1" stop-color="#E3448A"/>
</radialGradient>
</defs>
</svg>
