<svg width="12" height="12" viewBox="0 0 12 12" xmlns="http://www.w3.org/2000/svg">
<path d="M5.99967 6H5.49967C5.49967 6.13261 5.55235 6.25978 5.64612 6.35355L5.99967 6ZM5.99967 10.1667C3.69849 10.1667 1.83301 8.30118 1.83301 6H0.833008C0.833008 8.85347 3.1462 11.1667 5.99967 11.1667V10.1667ZM10.1663 6C10.1663 8.30118 8.30086 10.1667 5.99967 10.1667V11.1667C8.85315 11.1667 11.1663 8.85347 11.1663 6H10.1663ZM5.99967 1.83333C8.30086 1.83333 10.1663 3.69881 10.1663 6H11.1663C11.1663 3.14653 8.85315 0.833332 5.99967 0.833332V1.83333ZM5.99967 0.833332C3.1462 0.833332 0.833008 3.14653 0.833008 6H1.83301C1.83301 3.69881 3.69849 1.83333 5.99967 1.83333V0.833332ZM5.49967 3V6H6.49967V3H5.49967ZM5.64612 6.35355L7.64612 8.35355L8.35323 7.64644L6.35323 5.64645L5.64612 6.35355Z" fill="currentColor"/>
</svg>
