<svg width="16" height="17" viewBox="0 0 16 17" xmlns="http://www.w3.org/2000/svg">
<path d="M0.535156 0.5V5.3C0.535156 6.47821 1.49028 7.43333 2.66849 7.43333C3.8467 7.43333 4.80182 6.47821 4.80182 5.3V2.1C4.80182 1.5109 4.32426 1.03333 3.73516 1.03333C3.14605 1.03333 2.66849 1.5109 2.66849 2.1V5.83333M6.40182 1.03333H13.3352C13.9243 1.03333 14.4018 1.5109 14.4018 2.1V14.9C14.4018 15.4891 13.9243 15.9667 13.3352 15.9667H2.66849C2.07939 15.9667 1.60182 15.4891 1.60182 14.9V9.03333M11.7352 5.3H7.46849M11.7352 8.5H7.46849M11.7352 11.7H4.26849" stroke="currentColor" fill="none"/>
</svg>
