<svg width="14" height="12" viewBox="0 0 14 12" xmlns="http://www.w3.org/2000/svg">
<path d="M6.99844 10.8002L6.64488 11.1537C6.84015 11.349 7.15673 11.349 7.35199 11.1537L6.99844 10.8002ZM2.22686 6.02862L1.87331 6.38217H1.87331L2.22686 6.02862ZM6.22687 2.02862L5.87331 2.38218L6.22687 2.02862ZM6.99844 2.8002L6.64488 3.15375C6.84015 3.34901 7.15673 3.34901 7.35199 3.15375L6.99844 2.8002ZM7.77001 2.02862L7.41646 1.67507V1.67507L7.77001 2.02862ZM7.35199 10.4466L2.58042 5.67507L1.87331 6.38217L6.64488 11.1537L7.35199 10.4466ZM11.4165 5.67507L6.64488 10.4466L7.35199 11.1537L12.1236 6.38218L11.4165 5.67507ZM5.87331 2.38218L6.64488 3.15375L7.35199 2.44664L6.58042 1.67507L5.87331 2.38218ZM7.35199 3.15375L8.12356 2.38218L7.41646 1.67507L6.64488 2.44664L7.35199 3.15375ZM9.77001 0.700195C8.88726 0.700195 8.04066 1.05087 7.41646 1.67507L8.12356 2.38218C8.56023 1.94551 9.15247 1.7002 9.77001 1.7002V0.700195ZM12.0984 4.02862C12.0984 4.64616 11.8531 5.2384 11.4165 5.67507L12.1236 6.38218C12.7478 5.75797 13.0984 4.91138 13.0984 4.02862H12.0984ZM13.0984 4.02862C13.0984 2.19038 11.6083 0.700195 9.77001 0.700195V1.7002C11.056 1.7002 12.0984 2.74267 12.0984 4.02862H13.0984ZM4.22686 1.7002C4.8444 1.7002 5.43665 1.94551 5.87331 2.38218L6.58042 1.67507C5.95622 1.05087 5.10962 0.700195 4.22686 0.700195V1.7002ZM1.89844 4.02862C1.89844 2.74267 2.94091 1.7002 4.22686 1.7002V0.700195C2.38863 0.700195 0.898438 2.19038 0.898438 4.02862H1.89844ZM2.58042 5.67507C2.14375 5.2384 1.89844 4.64616 1.89844 4.02862H0.898438C0.898438 4.91138 1.24911 5.75797 1.87331 6.38217L2.58042 5.67507Z" fill="currentColor"/>
</svg>
