<svg width="12" height="12" viewBox="0 0 12 12" xmlns="http://www.w3.org/2000/svg">
<path d="M6.4987 8.00016V7.50016H5.4987V8.00016H6.4987ZM5.4987 8.00683V8.50683H6.4987V8.00683H5.4987ZM5.4987 3.66683V6.3335H6.4987V3.66683H5.4987ZM5.4987 8.00016V8.00683H6.4987V8.00016H5.4987ZM5.9987 10.1668C3.69751 10.1668 1.83203 8.30135 1.83203 6.00016H0.832031C0.832031 8.85363 3.14523 11.1668 5.9987 11.1668V10.1668ZM10.1654 6.00016C10.1654 8.30135 8.29988 10.1668 5.9987 10.1668V11.1668C8.85217 11.1668 11.1654 8.85363 11.1654 6.00016H10.1654ZM5.9987 1.8335C8.29988 1.8335 10.1654 3.69898 10.1654 6.00016H11.1654C11.1654 3.14669 8.85217 0.833496 5.9987 0.833496V1.8335ZM5.9987 0.833496C3.14523 0.833496 0.832031 3.14669 0.832031 6.00016H1.83203C1.83203 3.69898 3.69751 1.8335 5.9987 1.8335V0.833496Z" fill="currentColor"/>
</svg>
