<svg width="12" height="12" viewBox="0 0 12 12" xmlns="http://www.w3.org/2000/svg">
<path d="M4.66634 8.66188L5.08228 8.38441C4.98954 8.24538 4.83346 8.16188 4.66634 8.16188V8.66188ZM5.99967 10.6606L5.58373 10.9381C5.67648 11.0771 5.83255 11.1606 5.99967 11.1606C6.1668 11.1606 6.32287 11.0771 6.41562 10.9381L5.99967 10.6606ZM7.33301 8.66188V8.16188C7.16588 8.16188 7.00981 8.24538 6.91707 8.38441L7.33301 8.66188ZM4.2504 8.93936L5.58373 10.9381L6.41562 10.3831L5.08228 8.38441L4.2504 8.93936ZM6.41562 10.9381L7.74895 8.93936L6.91707 8.38441L5.58373 10.3831L6.41562 10.9381ZM7.33301 9.16188H9.99967V8.16188H7.33301V9.16188ZM9.99967 9.16188C10.6442 9.16188 11.1663 8.64053 11.1663 7.99565H10.1663C10.1663 8.08763 10.0925 8.16188 9.99967 8.16188V9.16188ZM11.1663 7.99565V1.99956H10.1663V7.99565H11.1663ZM11.1663 1.99956C11.1663 1.35469 10.6442 0.833332 9.99967 0.833332V1.83333C10.0925 1.83333 10.1663 1.90759 10.1663 1.99956H11.1663ZM9.99967 0.833332H1.99967V1.83333H9.99967V0.833332ZM1.99967 0.833332C1.35517 0.833332 0.833008 1.35469 0.833008 1.99956H1.83301C1.83301 1.90759 1.90684 1.83333 1.99967 1.83333V0.833332ZM0.833008 1.99956V7.99565H1.83301V1.99956H0.833008ZM0.833008 7.99565C0.833008 8.64053 1.35517 9.16188 1.99967 9.16188V8.16188C1.90684 8.16188 1.83301 8.08763 1.83301 7.99565H0.833008ZM1.99967 9.16188H4.66634V8.16188H1.99967V9.16188ZM5.66634 5.83333H6.33301V4.83333H5.66634V5.83333ZM3.66634 5.83333H4.33301V4.83333H3.66634V5.83333ZM7.66634 5.83333H8.33301V4.83333H7.66634V5.83333Z" fill="currentColor"/>
</svg>
