<svg width="38" height="38" viewBox="0 0 38 38" fill="none" xmlns="http://www.w3.org/2000/svg">
<path d="M17.0311 22.0858L17.597 21.5203L16.466 20.3886L15.9001 20.9541L17.0311 22.0858ZM23.2656 26.5835V27.3835H24.8656V26.5835H23.2656ZM24.8656 24.0518V23.2518H23.2656V24.0518H24.8656ZM23.2656 3.79839V4.59839H24.8656V3.79839H23.2656ZM24.8656 1.2666V0.466602H23.2656V1.2666H24.8656ZM11.399 13.1252H10.599V14.7252H11.399V13.1252ZM13.9323 14.7252H14.7323V13.1252H13.9323V14.7252ZM34.199 13.1252H33.399V14.7252H34.199V13.1252ZM36.7323 14.7252H37.5323V13.1252H36.7323V14.7252ZM31.1001 5.76432L30.5343 6.32983L31.6653 7.46155L32.2311 6.89603L31.1001 5.76432ZM34.7645 4.36425L35.3303 3.79873L34.1993 2.66702L33.6334 3.23253L34.7645 4.36425ZM14.4978 3.23253L13.9319 2.66702L12.8009 3.79873L13.3668 4.36425L14.4978 3.23253ZM15.9001 6.89603L16.466 7.46155L17.597 6.32983L17.0311 5.76432L15.9001 6.89603ZM32.2311 20.9541L31.6653 20.3886L30.5343 21.5203L31.1001 22.0858L32.2311 20.9541ZM33.6334 24.6176L34.1993 25.1831L35.3303 24.0514L34.7645 23.4859L33.6334 24.6176ZM1.83113 37.2759L17.0311 22.0858L15.9001 20.9541L0.700124 36.1442L1.83113 37.2759ZM24.8656 26.5835V24.0518H23.2656V26.5835H24.8656ZM24.8656 3.79839V1.2666H23.2656V3.79839H24.8656ZM11.399 14.7252H13.9323V13.1252H11.399V14.7252ZM34.199 14.7252H36.7323V13.1252H34.199V14.7252ZM32.2311 6.89603L34.7645 4.36425L33.6334 3.23253L31.1001 5.76432L32.2311 6.89603ZM13.3668 4.36425L15.9001 6.89603L17.0311 5.76432L14.4978 3.23253L13.3668 4.36425ZM31.1001 22.0858L33.6334 24.6176L34.7645 23.4859L32.2311 20.9541L31.1001 22.0858Z" fill="black"/>
</svg>
