<svg width="16" height="16" viewBox="0 0 16 16" fill="none" xmlns="http://www.w3.org/2000/svg">
<path d="M0 13.3332H16M0 15.4665H16M2.66667 4.26654V2.66654H4.26667M11.7333 2.66654H13.3333V4.26654M2.66667 7.46654V9.06654H4.26667M11.7333 9.06654H13.3333V7.46654M8 7.99987C6.82179 7.99987 5.86667 7.04474 5.86667 5.86654C5.86667 4.68833 6.82179 3.7332 8 3.7332C9.17821 3.7332 10.1333 4.68833 10.1333 5.86654C10.1333 7.04474 9.17821 7.99987 8 7.99987ZM1.6 0.533203H14.4C14.9891 0.533203 15.4667 1.01077 15.4667 1.59987V10.1332C15.4667 10.7223 14.9891 11.1999 14.4 11.1999H1.6C1.0109 11.1999 0.533333 10.7223 0.533333 10.1332V1.59987C0.533333 1.01077 1.0109 0.533203 1.6 0.533203Z" stroke="black"/>
</svg>
