<svg width="36" height="36" viewBox="0 0 36 36" fill="none" xmlns="http://www.w3.org/2000/svg">
<path d="M0 30.0002H36M0 34.8002H36M6 9.60019V6.0002H9.6M26.4 6.0002H30V9.60019M6 16.8002V20.4002H9.6M26.4 20.4002H30V16.8002M18 18.0002C15.349 18.0002 13.2 15.8512 13.2 13.2002C13.2 10.5492 15.349 8.40019 18 8.40019C20.651 8.40019 22.8 10.5492 22.8 13.2002C22.8 15.8512 20.651 18.0002 18 18.0002ZM3.6 1.2002H32.4C33.7255 1.2002 34.8 2.27471 34.8 3.6002V22.8002C34.8 24.1257 33.7255 25.2002 32.4 25.2002H3.6C2.27452 25.2002 1.2 24.1257 1.2 22.8002V3.6002C1.2 2.27471 2.27452 1.2002 3.6 1.2002Z" stroke="black"/>
</svg>
