<svg width="36" height="36" viewBox="0 0 36 36" fill="none" xmlns="http://www.w3.org/2000/svg">
<path d="M28.8002 20.4002H20.4002V28.8002M33.6002 20.4002H36.0002M28.8002 34.8002H19.2002M26.4002 27.6002H34.8002V36.0002M7.20019 8.40019H9.60019M26.4002 8.40019H28.8002M7.20019 27.6002H9.60019M3.6002 1.2002H13.2002C14.5257 1.2002 15.6002 2.27471 15.6002 3.6002V13.2002C15.6002 14.5257 14.5257 15.6002 13.2002 15.6002H3.6002C2.27471 15.6002 1.2002 14.5257 1.2002 13.2002V3.6002C1.2002 2.27471 2.27471 1.2002 3.6002 1.2002ZM22.8002 1.2002H32.4002C33.7257 1.2002 34.8002 2.27471 34.8002 3.6002V13.2002C34.8002 14.5257 33.7257 15.6002 32.4002 15.6002H22.8002C21.4747 15.6002 20.4002 14.5257 20.4002 13.2002V3.6002C20.4002 2.27471 21.4747 1.2002 22.8002 1.2002ZM3.6002 20.4002H13.2002C14.5257 20.4002 15.6002 21.4747 15.6002 22.8002V32.4002C15.6002 33.7257 14.5257 34.8002 13.2002 34.8002H3.6002C2.27471 34.8002 1.2002 33.7257 1.2002 32.4002V22.8002C1.2002 21.4747 2.27471 20.4002 3.6002 20.4002Z" stroke="black"/>
</svg>
