<svg width="36" height="36" viewBox="0 0 36 36" fill="none" xmlns="http://www.w3.org/2000/svg">
<path d="M3.6001 1.2002V0.700195C3.32396 0.700195 3.1001 0.924053 3.1001 1.2002H3.6001ZM32.4001 1.2002H32.9001C32.9001 0.924053 32.6762 0.700195 32.4001 0.700195V1.2002ZM32.4001 34.8002L32.1765 35.2474C32.3315 35.3249 32.5156 35.3166 32.663 35.2255C32.8104 35.1344 32.9001 34.9735 32.9001 34.8002H32.4001ZM27.6001 32.4002L27.8237 31.953C27.6829 31.8826 27.5173 31.8826 27.3765 31.953L27.6001 32.4002ZM22.8001 34.8002L22.5765 35.2474C22.7173 35.3178 22.8829 35.3178 23.0237 35.2474L22.8001 34.8002ZM18.0001 32.4002L18.2237 31.953C18.0829 31.8826 17.9173 31.8826 17.7765 31.953L18.0001 32.4002ZM13.2001 34.8002L12.9765 35.2474C13.1173 35.3178 13.2829 35.3178 13.4237 35.2474L13.2001 34.8002ZM3.6001 34.8002H3.1001C3.1001 34.9735 3.18982 35.1344 3.33723 35.2255C3.48464 35.3166 3.66871 35.3249 3.8237 35.2474L3.6001 34.8002ZM8.4001 32.4002L8.6237 31.953C8.48294 31.8826 8.31726 31.8826 8.17649 31.953L8.4001 32.4002ZM3.6001 1.7002H32.4001V0.700195H3.6001V1.7002ZM31.9001 1.2002V34.8002H32.9001V1.2002H31.9001ZM32.6237 34.353L27.8237 31.953L27.3765 32.8474L32.1765 35.2474L32.6237 34.353ZM27.3765 31.953L22.5765 34.353L23.0237 35.2474L27.8237 32.8474L27.3765 31.953ZM23.0237 34.353L18.2237 31.953L17.7765 32.8474L22.5765 35.2474L23.0237 34.353ZM17.7765 31.953L12.9765 34.353L13.4237 35.2474L18.2237 32.8474L17.7765 31.953ZM4.1001 34.8002V1.2002H3.1001V34.8002H4.1001ZM13.4237 34.353L8.6237 31.953L8.17649 32.8474L12.9765 35.2474L13.4237 34.353ZM8.17649 31.953L3.37649 34.353L3.8237 35.2474L8.6237 32.8474L8.17649 31.953ZM9.6001 11.3002H14.4001V10.3002H9.6001V11.3002ZM19.2001 11.3002H26.4001V10.3002H19.2001V11.3002ZM9.6001 18.5002H14.4001V17.5002H9.6001V18.5002ZM19.2001 18.5002H26.4001V17.5002H19.2001V18.5002ZM19.2001 25.7002H26.4001V24.7002H19.2001V25.7002Z" fill="black"/>
</svg>
