<svg width="100" height="100" viewBox="0 0 100 100" fill="none" xmlns="http://www.w3.org/2000/svg">
<path d="M68.8547 68.8568C58.4407 79.2708 41.5563 79.2708 31.1423 68.8568M68.8547 68.8568C79.2687 58.4428 79.2687 41.5585 68.8547 31.1445M68.8547 68.8568L82.997 82.999M31.1423 68.8568C20.7283 58.4428 20.7283 41.5585 31.1423 31.1445M31.1423 68.8568L17.0004 82.999M68.8547 31.1445C58.4407 20.7305 41.5563 20.7305 31.1423 31.1445M68.8547 31.1445L82.997 17.0023M31.1423 31.1445L17.0004 17.0023M82.997 82.999C64.7725 101.223 35.2248 101.223 17.0004 82.999M82.997 82.999C101.221 64.7745 101.221 35.2268 82.997 17.0023M17.0004 82.999C-1.22408 64.7745 -1.22408 35.2268 17.0004 17.0023M82.997 17.0023C64.7725 -1.22213 35.2248 -1.22213 17.0004 17.0023" stroke="white" stroke-width="2"/>
</svg>
