<svg width="100" height="100" viewBox="0 0 100 100" fill="none" xmlns="http://www.w3.org/2000/svg">
<path d="M9.9987 63.334H16.6654C20.3473 63.334 23.332 66.3188 23.332 70.0006V90.0006C23.332 93.6825 20.3473 96.6673 16.6654 96.6673H9.9987C6.3168 96.6673 3.33203 93.6825 3.33203 90.0006V70.0006C3.33203 66.3188 6.3168 63.334 9.9987 63.334ZM9.9987 63.334V43.334C9.9987 21.2426 27.9073 3.33398 49.9987 3.33398C72.0901 3.33398 89.9987 21.2426 89.9987 43.334V63.334M89.9987 63.334H83.332C79.6501 63.334 76.6654 66.3188 76.6654 70.0006V90.0006C76.6654 93.6825 79.6501 96.6673 83.332 96.6673H89.9987C93.6806 96.6673 96.6654 93.6825 96.6654 90.0006V70.0006C96.6654 66.3188 93.6806 63.334 89.9987 63.334Z" stroke="white" stroke-width="2"/>
</svg>
