<svg width="117" height="107" viewBox="0 0 117 107" fill="none" xmlns="http://www.w3.org/2000/svg">
<path d="M55.8106 81.8399L55.9474 81.7487L51.3894 94.3743L31.9723 100.163L22.9475 102.807L16.6574 104.721L38.1621 43.8314L15.0621 105.177L9 107L13.558 94.3743H13.4213L45.7283 6H58.354L27.551 90.2266L55.7195 81.8399L55.8106 81.7487V81.8399Z" fill="#111111"/>
<path d="M78.2649 6H116.096L111.493 18.6257L96.997 55.8332L68.7374 64.2199L55.5752 102.761L53.7064 103.308L49.194 104.675L70.6986 43.8314L47.5987 105.131L41.3998 107L45.9578 94.3743H46.0034L50.607 81.7487H50.5614L64.4998 43.8314H64.5453L73.7069 18.6257H73.6613L78.2649 6ZM87.5619 47.1275L98.9126 18.6257H86.3326L73.6144 50.865L87.5619 47.1275Z" fill="#111111"/>
<path d="M8.79853 0H11.8119L4.47106 19.9926L3.38321 22.9927L2.83929 23.1552L1.88198 23.4368L7.00357 8.98963L1.50123 23.5559L0 24L1.08785 20.9998L2.19746 17.9997L8.79853 0Z" fill="#111111"/>
<path d="M15.2952 11.2196L17.5035 10.5589L16.4156 13.559L14.8274 14.0248L13.6634 21.054H12.4124L13.2065 15.0104L12.173 21.054H10.6609L11.6617 14.967L10.9873 15.162L7.64758 21.054H6.15723L9.54044 15.0104L5.9179 21.054H4.64512L7.37562 16.2343L6.28777 16.5592L7.3865 13.559L9.19233 13.0283L13.1303 6.06406H16.1437L15.2952 11.2196Z" fill="#111111"/>
<path d="M31.8849 6.02073H34.9091L29.4263 20.9998H28.023L30.079 15.0104L27.7728 20.9998H26.413L27.5226 17.9997L29.7092 11.9886L24.4984 17.9997H23.0624L25.5971 15.0104L23.0407 17.8914L22.5946 15.0104L22.9319 17.9997H21.485L20.68 12.021L17.3947 20.9998H15.9805L18.0474 15.0104L15.7412 20.9998H14.3814L19.8641 6.02073H22.8775L24.0959 15.0104L31.8849 6.02073Z" fill="#111111"/>
</svg>
