<svg width="0" height="0" class="hidden">
  <symbol xmlns="http://www.w3.org/2000/svg" viewBox="0 0 15 16" id="ic_arr_hor">
    <path d="M10 14.5L3 8L10 1.5" stroke="currentColor" stroke-width="2" stroke-linecap="square" fill="none"></path>
  </symbol>
  <symbol xmlns="http://www.w3.org/2000/svg" viewBox="0 0 9 7" id="ic_arrow_hor">
    <path d="M4.04289 4.79289L3.33579 5.5L4.75 6.91421L5.45711 6.20711L4.04289 4.79289ZM6.75 3.5L7.45711 4.20711L8.16421 3.5L7.45711 2.79289L6.75 3.5ZM5.45711 0.792893L4.75 0.0857865L3.33579 1.5L4.04289 2.20711L5.45711 0.792893ZM5.45711 6.20711L7.45711 4.20711L6.04289 2.79289L4.04289 4.79289L5.45711 6.20711ZM7.45711 2.79289L5.45711 0.792893L4.04289 2.20711L6.04289 4.20711L7.45711 2.79289ZM6.75 2.5H0.25V4.5H6.75V2.5Z" fill="currentColor"></path>
  </symbol>
  <symbol xmlns="http://www.w3.org/2000/svg" viewBox="0 0 15 9" id="ic_arrow_hor2">
    <path fill-rule="evenodd" clip-rule="evenodd" d="M1.88814 4.95939H15V4.04061H1.88814L4.99174 1.14968L4.29426 0.5L0 4.5L4.29426 8.5L4.99174 7.85032L1.88814 4.95939Z" fill="currentColor"></path>
  </symbol>
  <symbol xmlns="http://www.w3.org/2000/svg" viewBox="0 0 20 20" id="ic_cart">
    <path d="M2.5 16.25C1.77365 16.25 1.25 16.8096 1.25 17.5C1.25 18.1904 1.77365 18.75 2.5 18.75C3.22635 18.75 3.75 18.1904 3.75 17.5M2.5 16.25C3.22635 16.25 3.75 16.8096 3.75 17.5M2.5 16.25V10H5M3.75 17.5H11.25M11.25 17.5C11.25 16.8096 11.7737 16.25 12.5 16.25M11.25 17.5C11.25 18.1904 11.7737 18.75 12.5 18.75C13.2263 18.75 13.75 18.1904 13.75 17.5C13.75 16.8096 13.2263 16.25 12.5 16.25M12.5 16.25V11.25M5 10V5H10L11.25 10M5 10V13.75H7.5H10L11.25 10M11.25 10L12.5 11.25M12.5 11.25H16.25M16.25 11.25V1.25M16.25 11.25V17.5H20" stroke="currentColor" fill="none"></path>
  </symbol>
  <symbol xmlns="http://www.w3.org/2000/svg" viewBox="0 0 12 10" id="ic_check">
    <path d="M1.66797 4.66667L4.66797 7.66667L10.3346 2" stroke="currentColor" stroke-linecap="square" fill="none"></path>
  </symbol>
  <symbol xmlns="http://www.w3.org/2000/svg" viewBox="0 0 20 20" id="ic_check_big">
    <path d="M1.33203 9.33333L7.33203 15.3333L18.6654 4" stroke="currentColor" stroke-linecap="square" fill="none"></path>
  </symbol>
  <symbol xmlns="http://www.w3.org/2000/svg" viewBox="0 0 36 36" id="ic_check_circle">
    <path d="M9.59995 18.0002L16.8 24.0002L26.3999 12.0002M18 34.8002C8.72157 34.8002 1.19995 27.2786 1.19995 18.0002C1.19995 8.72181 8.72157 1.2002 18 1.2002C27.2783 1.2002 34.7999 8.72181 34.7999 18.0002C34.7999 27.2786 27.2783 34.8002 18 34.8002Z" stroke="#111111" fill="none"></path>
  </symbol>
  <symbol xmlns="http://www.w3.org/2000/svg" viewBox="0 0 10 8" id="ic_check3">
    <path fill-rule="evenodd" clip-rule="evenodd" d="M3.67021 4.96651L8.375 0.261719L9.63208 1.5188L3.67021 7.48067L0.375 4.18547L1.63208 2.92839L3.67021 4.96651Z" fill="currentColor"></path>
  </symbol>
  <symbol xmlns="http://www.w3.org/2000/svg" viewBox="0 0 12 12" id="ic_close">
    <path d="M1.20312 1.19922L10.8031 10.7992M1.20312 10.7992L10.8031 1.19922" stroke="currentColor" fill="none"></path>
  </symbol>
  <symbol xmlns="http://www.w3.org/2000/svg" viewBox="0 0 20 20" id="ic_close_big">
    <path d="M2 2L18 18M2 18L18 2" stroke="currentColor" fill="none"></path>
  </symbol>
  <symbol xmlns="http://www.w3.org/2000/svg" viewBox="0 0 20 20" id="ic_compare">
    <path d="M4.66667 0L4.66667 11.3333M4.66667 11.3333C3.19391 11.3333 2 12.5272 2 14C2 15.4728 3.19391 16.6667 4.66667 16.6667M4.66667 11.3333C6.13943 11.3333 7.33333 12.5272 7.33333 14C7.33333 15.4728 6.13943 16.6667 4.66667 16.6667M4.66667 16.6667V20M15.3333 0L15.3333 3.33333M15.3333 3.33333C13.8606 3.33333 12.6667 4.52724 12.6667 6C12.6667 7.47276 13.8606 8.66667 15.3333 8.66667M15.3333 3.33333C16.8061 3.33333 18 4.52724 18 6C18 7.47276 16.8061 8.66667 15.3333 8.66667M15.3333 8.66667V20" stroke="currentColor" fill="none"></path>
  </symbol>
  <symbol xmlns="http://www.w3.org/2000/svg" viewBox="0 0 20 20" id="ic_favorite">
    <path d="M9.9974 16.0536L4.22879 19.0865L5.33073 12.6627L0.664062 8.11383L7.11309 7.17732L9.9974 1.33301L12.8817 7.17732L19.3307 8.11383L14.6641 12.6627L15.766 19.0865L9.9974 16.0536Z" stroke="currentColor" stroke-linecap="round" stroke-linejoin="round" fill="none"></path>
  </symbol>
  <symbol xmlns="http://www.w3.org/2000/svg" viewBox="0 0 15 16" id="ic_email">
    <path d="M10.5 8C10.5 9.65685 9.15685 11 7.5 11C5.84315 11 4.5 9.65685 4.5 8C4.5 6.34315 5.84315 5 7.5 5C9.15685 5 10.5 6.34315 10.5 8ZM10.5 8V9C10.5 10.1046 11.3954 11 12.5 11C13.2095 11 13.8328 10.6305 14.1878 10.0734C14.3855 9.76329 14.5 9.39502 14.5 9V8C14.5 4.13401 11.366 1 7.5 1C3.63401 1 0.5 4.13401 0.5 8C0.5 11.866 3.63401 15 7.5 15C8.98725 15 10.3662 14.5362 11.5 13.7453" stroke="currentColor" fill="none"></path>
  </symbol>
  <symbol xmlns="http://www.w3.org/2000/svg" viewBox="0 0 16 17" id="ic_features">
    <path d="M0.535156 0.5V5.3C0.535156 6.47821 1.49028 7.43333 2.66849 7.43333C3.8467 7.43333 4.80182 6.47821 4.80182 5.3V2.1C4.80182 1.5109 4.32426 1.03333 3.73516 1.03333C3.14605 1.03333 2.66849 1.5109 2.66849 2.1V5.83333M6.40182 1.03333H13.3352C13.9243 1.03333 14.4018 1.5109 14.4018 2.1V14.9C14.4018 15.4891 13.9243 15.9667 13.3352 15.9667H2.66849C2.07939 15.9667 1.60182 15.4891 1.60182 14.9V9.03333M11.7352 5.3H7.46849M11.7352 8.5H7.46849M11.7352 11.7H4.26849" stroke="currentColor" fill="none"></path>
  </symbol>
  <symbol xmlns="http://www.w3.org/2000/svg" viewBox="0 0 15 15" id="ic_file">
    <path d="M4.5 6.99542H4V7.99542H4.5V6.99542ZM10.5 7.99542H11V6.99542H10.5V7.99542ZM4.50054 9.99347L4.00054 9.99293L3.99946 10.9929L4.49946 10.9935L4.50054 9.99347ZM10.4995 11L10.9995 11.0005L11.0005 10.0005L10.5005 10L10.4995 11ZM4.50033 3.99738L4.00033 3.99705L3.99967 4.99705L4.49967 4.99738L4.50033 3.99738ZM8.49967 5L8.99967 5.00033L9.00033 4.00033L8.50033 4L8.49967 5ZM10.5 0.5L10.8536 0.146447L10.7071 0H10.5V0.5ZM13.5 3.5H14V3.29289L13.8536 3.14645L13.5 3.5ZM4.5 7.99542H10.5V6.99542H4.5V7.99542ZM4.49946 10.9935L10.4995 11L10.5005 10L4.50054 9.99347L4.49946 10.9935ZM4.49967 4.99738L8.49967 5L8.50033 4L4.50033 3.99738L4.49967 4.99738ZM12.5 14H2.5V15H12.5V14ZM2 13.5V1.5H1V13.5H2ZM2.5 1H10.5V0H2.5V1ZM13 3.5V13.5H14V3.5H13ZM10.1464 0.853553L13.1464 3.85355L13.8536 3.14645L10.8536 0.146447L10.1464 0.853553ZM2.5 14C2.22386 14 2 13.7761 2 13.5H1C1 14.3284 1.67157 15 2.5 15V14ZM12.5 15C13.3284 15 14 14.3284 14 13.5H13C13 13.7761 12.7761 14 12.5 14V15ZM2 1.5C2 1.22386 2.22386 1 2.5 1V0C1.67157 0 1 0.671574 1 1.5H2Z" fill="currentColor"></path>
  </symbol>
  <symbol xmlns="http://www.w3.org/2000/svg" viewBox="0 0 16 17" id="ic_filter">
    <path fill-rule="evenodd" clip-rule="evenodd" d="M6.20029 9.75972L2.09476 3.84523C1.84062 3.4791 2.1275 3 2.60088 3H13.3991C13.8725 3 14.1594 3.4791 13.9052 3.84523L9.79971 9.75972V12.3494C9.79971 12.5577 9.67133 12.7481 9.46809 12.8413L7.06848 13.9412C6.6696 14.1241 6.20029 13.8582 6.20029 13.4493V9.75972Z" stroke="currentColor" fill="none"></path>
  </symbol>
  <symbol xmlns="http://www.w3.org/2000/svg" viewBox="0 0 14 12" id="ic_heart">
    <path d="M6.99844 10.8002L6.64488 11.1537C6.84015 11.349 7.15673 11.349 7.35199 11.1537L6.99844 10.8002ZM2.22686 6.02862L1.87331 6.38217H1.87331L2.22686 6.02862ZM6.22687 2.02862L5.87331 2.38218L6.22687 2.02862ZM6.99844 2.8002L6.64488 3.15375C6.84015 3.34901 7.15673 3.34901 7.35199 3.15375L6.99844 2.8002ZM7.77001 2.02862L7.41646 1.67507V1.67507L7.77001 2.02862ZM7.35199 10.4466L2.58042 5.67507L1.87331 6.38217L6.64488 11.1537L7.35199 10.4466ZM11.4165 5.67507L6.64488 10.4466L7.35199 11.1537L12.1236 6.38218L11.4165 5.67507ZM5.87331 2.38218L6.64488 3.15375L7.35199 2.44664L6.58042 1.67507L5.87331 2.38218ZM7.35199 3.15375L8.12356 2.38218L7.41646 1.67507L6.64488 2.44664L7.35199 3.15375ZM9.77001 0.700195C8.88726 0.700195 8.04066 1.05087 7.41646 1.67507L8.12356 2.38218C8.56023 1.94551 9.15247 1.7002 9.77001 1.7002V0.700195ZM12.0984 4.02862C12.0984 4.64616 11.8531 5.2384 11.4165 5.67507L12.1236 6.38218C12.7478 5.75797 13.0984 4.91138 13.0984 4.02862H12.0984ZM13.0984 4.02862C13.0984 2.19038 11.6083 0.700195 9.77001 0.700195V1.7002C11.056 1.7002 12.0984 2.74267 12.0984 4.02862H13.0984ZM4.22686 1.7002C4.8444 1.7002 5.43665 1.94551 5.87331 2.38218L6.58042 1.67507C5.95622 1.05087 5.10962 0.700195 4.22686 0.700195V1.7002ZM1.89844 4.02862C1.89844 2.74267 2.94091 1.7002 4.22686 1.7002V0.700195C2.38863 0.700195 0.898438 2.19038 0.898438 4.02862H1.89844ZM2.58042 5.67507C2.14375 5.2384 1.89844 4.64616 1.89844 4.02862H0.898438C0.898438 4.91138 1.24911 5.75797 1.87331 6.38217L2.58042 5.67507Z" fill="currentColor"></path>
  </symbol>
  <symbol xmlns="http://www.w3.org/2000/svg" viewBox="0 0 8 9" id="ic_location">
    <path d="M4.00052 9.00091V5.53425M4.00052 5.53425C5.17873 5.53425 6.13385 4.57912 6.13385 3.40091C6.13385 2.2227 5.17873 1.26758 4.00052 1.26758C2.82231 1.26758 1.86719 2.2227 1.86719 3.40091C1.86719 4.57912 2.82231 5.53425 4.00052 5.53425Z" stroke="currentColor" stroke-width="2" fill="none"></path>
  </symbol>
  <symbol xmlns="http://www.w3.org/2000/svg" viewBox="0 0 15 16" id="ic_location2">
    <path fill-rule="evenodd" clip-rule="evenodd" d="M7.5 8.99478C8.604 8.99478 9.5 8.09934 9.5 6.99606C9.5 5.89278 8.604 4.99738 7.5 4.99738C6.396 4.99738 5.5 5.89278 5.5 6.99606C5.5 8.09934 6.396 8.99478 7.5 8.99478Z" stroke="currentColor" stroke-linecap="square" fill="none"></path>
    <path fill-rule="evenodd" clip-rule="evenodd" d="M13.5 6.99606C13.5 11.9928 8.5 14.9909 7.5 14.9909C6.5 14.9909 1.5 11.9928 1.5 6.99606C1.5 3.68522 4.187 1 7.5 1C10.813 1 13.5 3.68522 13.5 6.99606Z" stroke="currentColor" stroke-linecap="square" fill="none"></path>
  </symbol>
  <symbol xmlns="http://www.w3.org/2000/svg" viewBox="0 0 16 16" id="ic_menu">
    <path d="M0 3.73242H16M0 12.2658H4.8H6.4M0 7.99909H16" stroke="currentColor" fill="none"></path>
  </symbol>
  <symbol xmlns="http://www.w3.org/2000/svg" viewBox="0 0 14 14" id="ic_new">
    <path d="M4.19844 12.5999H9.79844M6.99844 12.5999V8.5999M6.99844 8.5999C8.76575 8.5999 10.1984 7.16721 10.1984 5.3999V2.1999C10.1984 1.75807 9.84027 1.3999 9.39844 1.3999H4.59844C4.15661 1.3999 3.79844 1.75807 3.79844 2.1999V5.3999C3.79844 7.16721 5.23113 8.5999 6.99844 8.5999ZM3.79844 2.9999H2.99844C2.11478 2.9999 1.39844 3.71625 1.39844 4.5999C1.39844 5.48356 2.11478 6.1999 2.99844 6.1999H3.79844M10.1984 2.9999H10.9984C11.8821 2.9999 12.5984 3.71625 12.5984 4.5999C12.5984 5.48356 11.8821 6.1999 10.9984 6.1999H10.1984" stroke="currentColor" fill="none"></path>
  </symbol>
  <symbol xmlns="http://www.w3.org/2000/svg" viewBox="0 0 12 12" id="ic_notice">
    <path d="M6.4987 8.00016V7.50016H5.4987V8.00016H6.4987ZM5.4987 8.00683V8.50683H6.4987V8.00683H5.4987ZM5.4987 3.66683V6.3335H6.4987V3.66683H5.4987ZM5.4987 8.00016V8.00683H6.4987V8.00016H5.4987ZM5.9987 10.1668C3.69751 10.1668 1.83203 8.30135 1.83203 6.00016H0.832031C0.832031 8.85363 3.14523 11.1668 5.9987 11.1668V10.1668ZM10.1654 6.00016C10.1654 8.30135 8.29988 10.1668 5.9987 10.1668V11.1668C8.85217 11.1668 11.1654 8.85363 11.1654 6.00016H10.1654ZM5.9987 1.8335C8.29988 1.8335 10.1654 3.69898 10.1654 6.00016H11.1654C11.1654 3.14669 8.85217 0.833496 5.9987 0.833496V1.8335ZM5.9987 0.833496C3.14523 0.833496 0.832031 3.14669 0.832031 6.00016H1.83203C1.83203 3.69898 3.69751 1.8335 5.9987 1.8335V0.833496Z" fill="currentColor"></path>
  </symbol>
  <symbol xmlns="http://www.w3.org/2000/svg" viewBox="0 0 45 46" id="ic_notice2">
    <path d="M22 14V14.5H23V14H22ZM23 13.97V13.47H22V13.97H23ZM23 32V21.5H22V32H23ZM23 14V13.97H22V14H23ZM18 23.5H22.5V22.5H18V23.5ZM18 32.5H27V31.5H18V32.5ZM22.5 2.5C33.8218 2.5 43 11.6782 43 23H44C44 11.1259 34.3741 1.5 22.5 1.5V2.5ZM2 23C2 11.6782 11.1782 2.5 22.5 2.5V1.5C10.6259 1.5 1 11.1259 1 23H2ZM22.5 43.5C11.1782 43.5 2 34.3218 2 23H1C0.999999 34.8741 10.6259 44.5 22.5 44.5V43.5ZM22.5 44.5C34.3741 44.5 44 34.8741 44 23H43C43 34.3218 33.8218 43.5 22.5 43.5V44.5Z" fill="currentColor"></path>
  </symbol>
  <symbol xmlns="http://www.w3.org/2000/svg" viewBox="0 0 62 63" id="ic_notice3">
    <path d="M31.4997 43.8997V43.3997H30.4997V43.8997H31.4997ZM30.4997 43.9411V44.4411H31.4997V43.9411H30.4997ZM30.4997 17.0331V40.9347H31.4997V17.0331H30.4997ZM30.4997 43.8997V43.9411H31.4997V43.8997H30.4997ZM30.9997 59.9331C15.2964 59.9331 2.56641 47.203 2.56641 31.4997H1.56641C1.56641 47.7553 14.7442 60.9331 30.9997 60.9331V59.9331ZM59.4331 31.4997C59.4331 47.203 46.703 59.9331 30.9997 59.9331V60.9331C47.2553 60.9331 60.4331 47.7553 60.4331 31.4997H59.4331ZM30.9997 3.06641C46.703 3.06641 59.4331 15.7964 59.4331 31.4997H60.4331C60.4331 15.2442 47.2553 2.06641 30.9997 2.06641V3.06641ZM30.9997 2.06641C14.7442 2.06641 1.56641 15.2442 1.56641 31.4997H2.56641C2.56641 15.7964 15.2964 3.06641 30.9997 3.06641V2.06641Z" fill="currentColor"></path>
  </symbol>
  <symbol xmlns="http://www.w3.org/2000/svg" viewBox="0 0 16 16" id="ic_phone">
    <path fill-rule="evenodd" clip-rule="evenodd" d="M1.86343 2.36195C2.74343 1.43495 3.05443 1.17495 3.42943 1.05395C3.68895 0.985949 3.96112 0.982174 4.22243 1.04295C4.56643 1.14295 4.65743 1.21895 5.78543 2.34295C6.77643 3.32995 6.87543 3.43695 6.97043 3.62995C7.15208 3.96873 7.18046 4.36894 7.04843 4.72995C6.94843 5.00495 6.80643 5.18695 6.20543 5.78995L5.81343 6.18295C5.71048 6.28757 5.68629 6.44643 5.75343 6.57695C6.62437 8.06281 7.86 9.30189 9.34343 10.177C9.51418 10.2684 9.72445 10.2389 9.86343 10.104L10.2404 9.73295C10.4734 9.4941 10.7202 9.26905 10.9794 9.05895C11.3866 8.80896 11.8939 8.78666 12.3214 8.99995C12.5304 9.09995 12.5994 9.16195 13.6214 10.182C14.6754 11.233 14.7054 11.266 14.8214 11.507C15.0397 11.9059 15.0374 12.3891 14.8154 12.786C14.7024 13.01 14.6334 13.091 14.0404 13.697C13.6824 14.063 13.3454 14.397 13.2914 14.446C12.8022 14.851 12.1746 15.0497 11.5414 15C10.383 14.8944 9.26169 14.5363 8.25643 13.951C6.02956 12.7711 4.13383 11.0521 2.74243 8.95095C2.43937 8.51122 2.16994 8.04924 1.93643 7.56895C1.31001 6.49532 0.986529 5.27189 1.00043 4.02895C1.04825 3.37871 1.36008 2.77637 1.86343 2.36195Z" stroke="currentColor" stroke-linecap="round" stroke-linejoin="round" fill="none"></path>
  </symbol>
  <symbol xmlns="http://www.w3.org/2000/svg" viewBox="0 0 20 20" id="ic_search">
    <path d="M19.3307 19.3332L13.9974 13.9998M8.66406 16.6665C4.24578 16.6665 0.664062 13.0848 0.664062 8.6665C0.664062 4.24823 4.24578 0.666504 8.66406 0.666504C13.0823 0.666504 16.6641 4.24823 16.6641 8.6665C16.6641 13.0848 13.0823 16.6665 8.66406 16.6665Z" stroke="currentColor" fill="none"></path>
  </symbol>
  <symbol xmlns="http://www.w3.org/2000/svg" viewBox="0 0 16 17" id="ic_sort">
    <path d="M3.73125 15.9667L3.3777 16.3202C3.57296 16.5155 3.88954 16.5155 4.0848 16.3202L3.73125 15.9667ZM4.0848 16.3202L7.2848 13.1202L6.5777 12.4131L3.3777 15.6131L4.0848 16.3202ZM4.0848 15.6131L0.884803 12.4131L0.177697 13.1202L3.3777 16.3202L4.0848 15.6131ZM3.23125 0.5V15.9667H4.23125V0.5H3.23125ZM9.59792 4.73333H15.9979V3.73333H9.59792V4.73333ZM9.59792 9H13.8646V8H9.59792V9ZM9.59792 13.2667H11.7312V12.2667H9.59792V13.2667Z" fill="currentColor"></path>
  </symbol>
  <symbol xmlns="http://www.w3.org/2000/svg" viewBox="0 0 14 14" id="ic_stock">
    <path d="M4.99844 5.3999H5.79844M8.19844 8.5999H8.99844M8.99844 4.9999L4.99844 8.9999M6.4396 1.63138L5.53638 2.5346C5.38817 2.68281 5.18715 2.76607 4.97755 2.76607H3.55492C3.11845 2.76607 2.76461 3.11991 2.76461 3.55639V4.97901C2.76461 5.18862 2.68134 5.38964 2.53313 5.53785L1.62992 6.44107C1.32128 6.7497 1.32128 7.2501 1.62992 7.55874L2.53313 8.46196C2.68134 8.61017 2.76461 8.81119 2.76461 9.02079V10.4434C2.76461 10.8799 3.11845 11.2337 3.55492 11.2337H4.97755C5.18715 11.2337 5.38817 11.317 5.53638 11.4652L6.4396 12.3684C6.74824 12.6771 7.24864 12.6771 7.55727 12.3684L8.46049 11.4652C8.6087 11.317 8.80972 11.2337 9.01933 11.2337H10.442C10.8784 11.2337 11.2323 10.8799 11.2323 10.4434V9.02079C11.2323 8.81119 11.3155 8.61017 11.4637 8.46196L12.367 7.55874C12.6756 7.2501 12.6756 6.7497 12.367 6.44107L11.4637 5.53785C11.3155 5.38964 11.2323 5.18862 11.2323 4.97901V3.55639C11.2323 3.11991 10.8784 2.76607 10.442 2.76607H9.01933C8.80972 2.76607 8.6087 2.68281 8.46049 2.5346L7.55727 1.63138C7.24864 1.32274 6.74824 1.32274 6.4396 1.63138Z" stroke="currentColor" fill="none"></path>
  </symbol>
  <symbol xmlns="http://www.w3.org/2000/svg" viewBox="0 0 16 16" id="ic_tooltip">
    <path d="M7.99987 9.59987V7.99987H8.5332C9.41686 7.99987 10.1332 7.28353 10.1332 6.39987V6.2932C10.1332 5.46846 9.46462 4.79987 8.63987 4.79987H7.99987C7.11621 4.79987 6.39987 5.51621 6.39987 6.39987M7.46654 11.1999H8.5332M7.99987 15.4665C3.87614 15.4665 0.533203 12.1236 0.533203 7.99987C0.533203 3.87614 3.87614 0.533203 7.99987 0.533203C12.1236 0.533203 15.4665 3.87614 15.4665 7.99987C15.4665 12.1236 12.1236 15.4665 7.99987 15.4665Z" stroke="currentColor" fill="none"></path>
  </symbol>
  <symbol xmlns="http://www.w3.org/2000/svg" viewBox="0 0 20 20" id="ic_video_play">
    <path d="M6 16.6668V3.3335L15.3333 10.0002L6 16.6668Z" stroke="currentColor" stroke-linejoin="round" fill="none"></path>
  </symbol>
  <symbol xmlns="http://www.w3.org/2000/svg" viewBox="0 0 16 16" id="ic_vk">
    <path d="M14.87 11.5119C14.87 11.4562 14.8143 11.4562 14.8143 11.4005C14.5914 10.9549 14.0901 10.3978 13.4217 9.78511C13.0875 9.50659 12.9204 9.28378 12.809 9.17237C12.6418 8.94956 12.6419 8.78246 12.6976 8.55965C12.7533 8.39254 12.9761 8.11402 13.366 7.6127C13.5888 7.33419 13.7002 7.16708 13.8673 6.99998C14.7028 5.88592 15.0928 5.16178 14.9814 4.82757L14.9257 4.77187C14.87 4.71617 14.8142 4.66047 14.7028 4.66047C14.5914 4.60476 14.4243 4.60476 14.2572 4.66047H12.1405C12.0848 4.66047 12.0848 4.66047 11.9734 4.66047C11.9177 4.66047 11.862 4.66047 11.862 4.66047H11.8063H11.7506L11.6949 4.71616C11.6392 4.77187 11.6392 4.77186 11.6392 4.82757C11.4164 5.4403 11.1379 5.94162 10.8594 6.49865C10.6923 6.77716 10.5252 7.05568 10.358 7.27849C10.1909 7.5013 10.0795 7.6684 9.96812 7.77981C9.85671 7.89121 9.74531 7.94692 9.68961 8.05832C9.6339 8.11402 9.5225 8.16973 9.5225 8.11403C9.4668 8.11403 9.41109 8.11402 9.41109 8.05832C9.35539 8.00262 9.29969 7.94692 9.24399 7.89121C9.18829 7.83551 9.18828 7.7241 9.13258 7.6127C9.13258 7.50129 9.13258 7.38989 9.13258 7.33419C9.13258 7.27848 9.13258 7.11138 9.13258 6.99998C9.13258 6.83287 9.13258 6.72146 9.13258 6.66576C9.13258 6.49865 9.13258 6.27584 9.13258 6.05303C9.13258 5.83022 9.13258 5.66311 9.13258 5.5517C9.13258 5.4403 9.13258 5.27319 9.13258 5.16179C9.13258 4.99468 9.13258 4.88327 9.13258 4.82757C9.13258 4.77186 9.07689 4.66046 9.07689 4.60476C9.02119 4.54906 8.96547 4.49335 8.90977 4.43765C8.85407 4.38195 8.74267 4.38195 8.68696 4.32625C8.40845 4.27054 8.07424 4.21484 7.68432 4.21484C6.79308 4.21484 6.18035 4.27055 5.95754 4.38195C5.84613 4.43766 5.73473 4.49336 5.67903 4.60476C5.56762 4.71617 5.56762 4.77187 5.62332 4.77187C5.90183 4.82757 6.12465 4.93897 6.23605 5.10608L6.29176 5.21749C6.34746 5.2732 6.34745 5.3846 6.40315 5.5517C6.45886 5.71881 6.45886 5.88592 6.45886 6.10873C6.45886 6.44295 6.45886 6.77716 6.45886 6.99998C6.45886 7.27849 6.40315 7.44559 6.40315 7.6127C6.40315 7.77981 6.34746 7.89122 6.29176 7.94692C6.23606 8.05832 6.23605 8.11403 6.18035 8.11403C6.18035 8.11403 6.18034 8.16973 6.12464 8.16973C6.06894 8.16973 6.01324 8.22543 5.90183 8.22543C5.84613 8.22543 5.73473 8.16973 5.67903 8.11403C5.56762 8.05833 5.45622 7.94692 5.40051 7.83551C5.28911 7.72411 5.1777 7.557 5.06629 7.33419C4.95489 7.11138 4.78777 6.88857 4.67637 6.55435L4.56497 6.33155C4.50927 6.22014 4.39787 5.99733 4.28646 5.71881C4.17506 5.4403 4.06365 5.21749 3.95224 4.93898C3.89654 4.82757 3.84084 4.77187 3.78514 4.71616H3.72943C3.72943 4.71616 3.67372 4.66047 3.61802 4.66047C3.56232 4.66047 3.50662 4.60476 3.45092 4.60476H1.44562C1.22281 4.60476 1.11141 4.66046 1.05571 4.71616L1 4.77187C1 4.77187 1 4.82757 1 4.88327C1 4.93898 1 4.99468 1.05571 5.10608C1.33422 5.77451 1.66843 6.44295 2.00265 7.11138C2.33686 7.72411 2.67108 8.28114 2.89389 8.67105C3.17241 9.06097 3.39521 9.45089 3.67373 9.78511C3.95224 10.1193 4.11935 10.3421 4.17505 10.4535C4.28645 10.5649 4.34215 10.6206 4.39786 10.6763L4.56497 10.8435C4.67638 10.9549 4.84348 11.122 5.06629 11.2891C5.2891 11.4562 5.56761 11.6233 5.84613 11.7904C6.12464 11.9575 6.45886 12.0689 6.79308 12.1803C7.183 12.2917 7.51721 12.3474 7.85143 12.2917H8.68696C8.85407 12.2917 8.96549 12.236 9.07689 12.1246L9.13258 12.0689C9.13258 12.0132 9.18828 12.0132 9.18828 11.9575C9.18828 11.9018 9.18828 11.8461 9.18828 11.7347C9.18828 11.5119 9.18829 11.3448 9.24399 11.1777C9.29969 11.0106 9.2997 10.8992 9.3554 10.7878C9.41111 10.6764 9.4668 10.6206 9.5225 10.5649C9.57821 10.5092 9.63392 10.4535 9.63392 10.4535H9.68961C9.80101 10.3978 9.96813 10.4535 10.0795 10.5649C10.2466 10.6763 10.4137 10.8435 10.5251 11.0106C10.6365 11.1777 10.8037 11.3448 11.0265 11.5676C11.2493 11.7904 11.4164 11.9575 11.5278 12.0132L11.6949 12.1246C11.8063 12.1803 11.9177 12.236 12.0848 12.2917C12.2519 12.3474 12.3633 12.3474 12.4747 12.3474L14.3686 12.2917C14.5357 12.2917 14.7028 12.236 14.8143 12.1803C14.9257 12.1246 14.9814 12.0689 14.9814 11.9575C14.9814 11.9018 14.9814 11.7904 14.9814 11.7347C14.87 11.6233 14.87 11.5676 14.87 11.5119Z" fill="none" stroke="currentColor"></path>
  </symbol>
  <symbol xmlns="http://www.w3.org/2000/svg" viewBox="0 0 15 16" id="ic_whatsapp">
    <path d="M1.8998 12.2004L2.34701 12.424L2.48533 12.1474L2.29956 11.9001L1.8998 12.2004ZM3.29959 13.6002L3.59991 13.2004L3.35262 13.0147L3.07598 13.153L3.29959 13.6002ZM0.5 15L0.0527864 14.7764C-0.0434608 14.9689 -0.00573355 15.2014 0.146447 15.3536C0.298627 15.5057 0.531113 15.5435 0.723607 15.4472L0.5 15ZM4.5 5L4.22265 4.58397C4.08355 4.67671 4 4.83282 4 5H4.5ZM10.5 11V11.5C10.6672 11.5 10.8233 11.4164 10.916 11.2774L10.5 11ZM6.25426 5.52554L6.74745 5.44334L6.25426 5.52554ZM6.3937 6.36221L5.90051 6.44441L6.3937 6.36221ZM5.96201 7.35866L6.23936 7.77469H6.23936L5.96201 7.35866ZM10.6421 10.7868L11.0581 11.0642L10.6421 10.7868ZM9.97446 9.24574L10.0567 8.75255L9.97446 9.24574ZM9.13779 9.1063L9.05559 9.59949V9.5995L9.13779 9.1063ZM8.14134 9.53799L7.72531 9.26064L8.14134 9.53799ZM0 8C0 9.68803 0.558266 11.2471 1.50003 12.5007L2.29956 11.9001C1.48342 10.8137 1 9.46403 1 8H0ZM7.5 0.5C3.35786 0.5 0 3.85786 0 8H1C1 4.41015 3.91015 1.5 7.5 1.5V0.5ZM15 8C15 3.85786 11.6421 0.5 7.5 0.5V1.5C11.0899 1.5 14 4.41015 14 8H15ZM7.5 15.5C11.6421 15.5 15 12.1421 15 8H14C14 11.5899 11.0899 14.5 7.5 14.5V15.5ZM2.99927 14C4.25289 14.9417 5.81197 15.5 7.5 15.5V14.5C6.03597 14.5 4.68629 14.0166 3.59991 13.2004L2.99927 14ZM0.723607 15.4472L3.5232 14.0474L3.07598 13.153L0.276393 14.5528L0.723607 15.4472ZM1.45258 11.9768L0.0527864 14.7764L0.947214 15.2236L2.34701 12.424L1.45258 11.9768ZM4 5V6H5V5H4ZM9.5 11.5H10.5V10.5H9.5V11.5ZM4 6C4 9.03757 6.46243 11.5 9.5 11.5V10.5C7.01472 10.5 5 8.48528 5 6H4ZM4.77735 5.41603L4.99051 5.27392L4.43581 4.44187L4.22265 4.58397L4.77735 5.41603ZM5.76106 5.60774L5.90051 6.44441L6.8869 6.28001L6.74745 5.44334L5.76106 5.60774ZM5.68466 6.94264L4.72265 7.58397L5.27735 8.41603L6.23936 7.77469L5.68466 6.94264ZM5.90051 6.44441C5.93285 6.63849 5.84837 6.8335 5.68466 6.94264L6.23936 7.77469C6.73049 7.44727 6.98394 6.86225 6.8869 6.28001L5.90051 6.44441ZM4.99051 5.27392C5.29241 5.07266 5.70141 5.24985 5.76106 5.60774L6.74745 5.44334C6.56851 4.36967 5.34149 3.83808 4.43581 4.44187L4.99051 5.27392ZM10.916 11.2774L11.0581 11.0642L10.2261 10.5095L10.084 10.7226L10.916 11.2774ZM10.0567 8.75255L9.21999 8.6131L9.05559 9.5995L9.89226 9.73894L10.0567 8.75255ZM7.72531 9.26064L7.08397 10.2226L7.91603 10.7774L8.55736 9.81534L7.72531 9.26064ZM9.21999 8.6131C8.63775 8.51606 8.05273 8.76951 7.72531 9.26064L8.55736 9.81534C8.6665 9.65163 8.86151 9.56715 9.05559 9.59949L9.21999 8.6131ZM11.0581 11.0642C11.6619 10.1585 11.1303 8.93149 10.0567 8.75255L9.89226 9.73894C10.2502 9.79859 10.4273 10.2076 10.2261 10.5095L11.0581 11.0642Z" fill="currentColor"></path>
  </symbol>
</svg>